SplineFontDB: 2.0
FontName: Waree-Oblique
FullName: Waree Oblique
FamilyName: Waree
Weight: Book
Copyright: Copyright (c) 2003 by Bitstream, Inc. All Rights Reserved.\n\nTLWG changes are in public domain.
Version: 0.11.2: 2008-01-19
ItalicAngle: -11
UnderlinePosition: -170
UnderlineWidth: 20
Ascent: 1638
Descent: 410
NeedsXUIDChange: 1
FSType: 0
OS2Version: 0
OS2_WeightWidthSlopeOnly: 0
OS2_UseTypoMetrics: 0
CreationTime: 1153662374
ModificationTime: 1200713442
PfmFamily: 33
TTFWeight: 400
TTFWidth: 5
LineGap: 0
VLineGap: 0
Panose: 2 11 5 4 2 2 2 2 2 4
OS2TypoAscent: 0
OS2TypoAOffset: 1
OS2TypoDescent: 0
OS2TypoDOffset: 1
OS2TypoLinegap: 0
OS2WinAscent: 0
OS2WinAOffset: 1
OS2WinDescent: 0
OS2WinDOffset: 1
HheadAscent: 0
HheadAOffset: 1
HheadDescent: 0
HheadDOffset: 1
OS2SubXSize: -12660
OS2SubYSize: -12824
OS2SubXOff: 24034
OS2SubYOff: -18656
OS2SupXSize: -12836
OS2SupYSize: -12856
OS2SupXOff: -28420
OS2SupYOff: -18656
OS2StrikeYSize: -12928
OS2StrikeYPos: -12660
OS2Vendor: 'PfEd'
Lookup: 4 0 1 "'liga' Standard Ligatures in Latin lookup 0"  {"'liga' Standard Ligatures in Latin lookup 0"  } ['liga' ('latn' <'dflt' > ) ]
Lookup: 4 0 0 "'frac' Diagonal Fractions in Latin lookup 42"  {"'frac' Diagonal Fractions in Latin lookup 42"  } ['frac' ('latn' <'dflt' > ) ]
Lookup: 6 0 0 "'ccmp' Thai General Composition"  {"'ccmp' Thai Below Vowel Tone Reordering"  "'ccmp' Thai General Composition"  } ['ccmp' ('thai' <'KUY ' 'PAL ' 'THA ' 'dflt' > ) ]
Lookup: 6 0 0 "'ccmp' Thai Conditional Descender Removal"  {"'ccmp' Thai Conditional Descender Removal"  } ['ccmp' ('thai' <'KUY ' 'PAL ' 'THA ' 'dflt' > ) ]
Lookup: 5 0 0 "Required Thai Descender Removal"  {"Required Thai Descender Removal"  } [' RQD' ('thai' <'PAL ' > ) ]
Lookup: 1 0 0 "Thai Descender Removal Single Substitution"  {"Thai Descender Removal Single Substitution" ("descless" ) } []
Lookup: 2 0 0 "Thai Sara Am Decomposition"  {"Thai Sara Am Decomposition"  } []

StartChar: .notdef
Encoding: 395 -1 0
Width: 1229
Flags: W
HStem: -362 114<169 964> 1329 115<475 1270>
Fore
32 -362 m 1
 383 1444 l 1
 1407 1444 l 1
 1056 -362 l 1
 32 -362 l 1
169 -248 m 1
 964 -248 l 1
 1270 1329 l 1
 475 1329 l 1
 169 -248 l 1
EndSplineSet
EndChar
StartChar: uni0E4D.high
Encoding: 392 63262 2
Width: 0
VWidth: 2561
Flags: W
HStem: 1881 102<-48.7287 91.7412> 2139 103<-36.2774 106.816>
VStem: -155 102<1987.65 2122.16> 110 102<2002.48 2136.11>
AnchorPoint: "AboveMark" -5 1848 mark 0
Fore
-155 2026 m 0
 -155 2138 -49 2242 66 2242 c 16
 156 2242 212 2177 212 2096 c 0
 212 1981 107 1881 -4 1881 c 0
 -94 1881 -155 1943 -155 2026 c 0
44 2139 m 0
 -14 2139 -53 2087 -53 2048 c 0
 -53 2013 -26 1983 13 1983 c 0
 53 1983 110 2021 110 2078 c 0
 110 2115 82 2139 44 2139 c 0
EndSplineSet
EndChar
StartChar: exclam
Encoding: 3 33 5
Width: 821
Flags: W
HStem: 0 254<358 512> 1473 20G<595.122 802>
VStem: 309 493<0 1493 506.477 1262.22>
Fore
358 254 m 1
 561 254 l 1
 512 0 l 1
 309 0 l 1
 358 254 l 1
599 1493 m 1
 802 1493 l 1
 675 838 l 1
 585 481 l 1
 423 481 l 1
 472 838 l 1
 599 1493 l 1
EndSplineSet
EndChar
StartChar: quotedbl
Encoding: 4 34 6
Width: 942
Flags: W
HStem: 938 555<487 549 865 927 379 1035 487 487>
Fore
657 1493 m 1
 549 938 l 1
 379 938 l 1
 487 1493 l 1
 657 1493 l 1
1035 1493 m 1
 927 938 l 1
 757 938 l 1
 865 1493 l 1
 1035 1493 l 1
EndSplineSet
EndChar
StartChar: numbersign
Encoding: 5 35 7
Width: 1716
Flags: W
HStem: 0 21G<369 538.841 823 991.889> 414 153<268 553 782 1006 1236 1524> 901 154<477 769 998 1222 1452 1734>
Fore
1222 901 m 1
 931 901 l 1
 782 567 l 1
 1075 567 l 1
 1222 901 l 1
1183 1470 m 1
 998 1055 l 1
 1290 1055 l 1
 1476 1470 l 1
 1636 1470 l 1
 1452 1055 l 1
 1764 1055 l 1
 1734 901 l 1
 1383 901 l 1
 1236 567 l 1
 1554 567 l 1
 1524 414 l 1
 1167 414 l 1
 983 0 l 1
 823 0 l 1
 1006 414 l 1
 713 414 l 1
 530 0 l 1
 369 0 l 1
 553 414 l 1
 238 414 l 1
 268 567 l 1
 620 567 l 1
 769 901 l 1
 447 901 l 1
 477 1055 l 1
 838 1055 l 1
 1021 1470 l 1
 1183 1470 l 1
EndSplineSet
EndChar
StartChar: dollar
Encoding: 6 36 8
Width: 1303
Flags: W
HStem: 0 142<525.738 592 720 860.801> 1180 141<672.84 821 949 1147.07> 1536 20G<890.17 994>
VStem: 348 191<831.419 1026.01> 1023 192<311.96 503.903>
Fore
1215 456 m 0
 1215 275 1095 30 692 2 c 1
 633 -301 l 1
 533 -301 l 1
 592 0 l 1
 465 2 331 26 188 92 c 1
 223 272 l 1
 382 158 530 143 620 142 c 1
 708 598 l 1
 478 637 348 718 348 882 c 0
 348 1058 462 1294 849 1321 c 1
 894 1556 l 1
 994 1556 l 1
 949 1324 l 1
 1078 1318 1188 1296 1287 1262 c 1
 1253 1087 l 1
 1140 1151 1026 1174 921 1179 c 1
 838 752 l 1
 1078 714 1215 628 1215 456 c 0
821 1180 m 1
 551 1150 539 971 539 931 c 0
 539 838 612 793 742 770 c 1
 821 1180 l 1
720 145 m 1
 1006 183 1023 353 1023 405 c 0
 1023 505 939 552 804 578 c 1
 720 145 l 1
EndSplineSet
EndChar
StartChar: percent
Encoding: 7 37 9
Width: 1946
Flags: W
HStem: -29 127<1408.08 1624.7> 657 127<1498.7 1715.16> 707 127<518.424 737.366> 1393 127<610.98 831.145>
VStem: 318 160<870.232 1224.9> 870 162<1002.43 1351.45> 1204 162<138.15 489.003> 1756 162<266.465 619.676>
Fore
1508 98 m 0xdf
 1680 98 1756 328 1756 477 c 0
 1756 581 1717 657 1617 657 c 0
 1416 657 1366 377 1366 278 c 0
 1366 175 1406 98 1508 98 c 0xdf
1204 261 m 0
 1204 477 1334 784 1641 784 c 0
 1824 784 1918 669 1918 493 c 0
 1918 275 1786 -29 1483 -29 c 0
 1299 -29 1204 84 1204 261 c 0
619 834 m 256xbf
 820 834 870 1114 870 1211 c 0
 870 1320 825 1393 728 1393 c 256
 528 1393 478 1111 478 1011 c 0
 478 909 518 834 619 834 c 256xbf
1655 1520 m 1
 1815 1520 l 1
 580 -29 l 1
 420 -29 l 1
 1655 1520 l 1
318 996 m 0
 318 1216 450 1520 752 1520 c 256
 935 1520 1032 1406 1032 1228 c 0
 1032 1018 904 707 594 707 c 256
 410 707 318 820 318 996 c 0
EndSplineSet
EndChar
StartChar: ampersand
Encoding: 8 38 10
Width: 1597
Flags: W
HStem: -29 162<541.558 925.336> 1362 158<829.496 1122.33>
VStem: 209 198<257.81 567.793> 519 193<1000.6 1255.32> 1434 186<583.568 801>
Fore
654 803 m 1
 560 732 407 596 407 406 c 0
 407 245 530 133 720 133 c 0
 854 133 972 180 1079 260 c 1
 654 803 l 1
519 1103 m 0
 519 1269 662 1520 1000 1520 c 0
 1129 1520 1235 1487 1319 1448 c 1
 1284 1266 l 1
 1151 1346 1053 1362 990 1362 c 0
 811 1362 712 1237 712 1129 c 0
 712 1059 754 996 817 915 c 2
 1224 395 l 1
 1341 532 1402 673 1434 801 c 1
 1620 801 l 1
 1560 593 1437 420 1310 285 c 1
 1534 0 l 1
 1282 0 l 1
 1168 147 l 1
 1018 37 855 -29 670 -29 c 0
 388 -29 209 124 209 360 c 0
 209 632 414 810 574 913 c 1
 549 957 519 1025 519 1103 c 0
EndSplineSet
EndChar
StartChar: quotesingle
Encoding: 9 39 11
Width: 563
Flags: W
HStem: 938 555<487 549 379 657 487 487>
Fore
657 1493 m 1
 549 938 l 1
 379 938 l 1
 487 1493 l 1
 657 1493 l 1
EndSplineSet
EndChar
StartChar: parenleft
Encoding: 10 40 12
Width: 799
Flags: W
VStem: 275.484 189.974<25.6541 693.177>
Fore
275.484 379.01 m 0
 275.484 849.006 520.242 1245.34 777 1554 c 1
 937 1554 l 1
 733.848 1291.73 465.458 866.137 465.458 332.504 c 0
 465.458 99.6383 517.541 -101.777 583 -270 c 1
 423 -270 l 1
 345.026 -94.5591 275.484 125.852 275.484 379.01 c 0
EndSplineSet
EndChar
StartChar: parenright
Encoding: 11 41 13
Width: 799
Flags: W
VStem: 583 191<580.156 1257.73>
Fore
112 -270 m 1
 315 -7 583 419 583 952 c 0
 583 1182 532 1383 466 1554 c 1
 626 1554 l 1
 704 1379 774 1159 774 906 c 0
 774 436 524 34 272 -270 c 1
 112 -270 l 1
EndSplineSet
EndChar
StartChar: asterisk
Encoding: 12 42 14
Width: 1024
Flags: W
HStem: 586 934<683 750 1339.05 1701.38>
VStem: 228 977<858 1247 1447.05 1809.38>
Fore
1205 1247 m 1
 809 1053 l 1
 1130 858 l 1
 1053 760 l 1
 756 963 l 1
 683 586 l 1
 569 586 l 1
 642 963 l 1
 267 760 l 1
 228 858 l 1
 625 1053 l 1
 303 1247 l 1
 381 1346 l 1
 677 1143 l 1
 750 1520 l 1
 864 1520 l 1
 791 1143 l 1
 1167 1346 l 1
 1205 1247 l 1
EndSplineSet
EndChar
StartChar: plus
Encoding: 13 43 15
Width: 1716
Flags: W
HStem: 0 21G<774 945.878> 557 170<358 882 1083 1607>
Fore
1192 1284 m 1
 1083 727 l 1
 1640 727 l 1
 1607 557 l 1
 1050 557 l 1
 942 0 l 1
 774 0 l 1
 882 557 l 1
 325 557 l 1
 358 727 l 1
 915 727 l 1
 1024 1284 l 1
 1192 1284 l 1
EndSplineSet
EndChar
StartChar: comma
Encoding: 14 44 16
Width: 651
Flags: W
HStem: -238 492<241 289 289 289>
Fore
289 254 m 1
 500 254 l 1
 467 82 l 1
 241 -238 l 1
 112 -238 l 1
 256 82 l 1
 289 254 l 1
EndSplineSet
EndChar
StartChar: hyphen
Encoding: 15 45 17
Width: 739
Flags: W
HStem: 479 164<225 732 225 732 225 225>
Fore
225 643 m 1
 764 643 l 1
 732 479 l 1
 193 479 l 1
 225 643 l 1
EndSplineSet
EndChar
StartChar: period
Encoding: 16 46 18
Width: 651
Flags: W
HStem: 0 254<268 430 219 479 268 268>
Fore
268 254 m 1
 479 254 l 1
 430 0 l 1
 219 0 l 1
 268 254 l 1
EndSplineSet
EndChar
StartChar: slash
Encoding: 17 47 19
Width: 690
Flags: W
HStem: 1473 20G<799.935 980>
VStem: -37 1017<-190 1493 -190 -190>
Fore
810 1493 m 1
 980 1493 l 1
 133 -190 l 1
 -37 -190 l 1
 810 1493 l 1
EndSplineSet
EndChar
StartChar: zero
Encoding: 18 48 20
Width: 1303
Flags: W
HStem: -29 160<542.077 827.087> 1360 160<765.257 1049.58>
VStem: 248 202<233.345 576.085> 1143 201<913.333 1256.72>
Fore
1110 745 m 0
 1130 848 1143 948 1143 1037 c 0
 1143 1224 1085 1360 915 1360 c 0
 665 1360 545 1063 483 745 c 0
 463 642 450 541 450 452 c 0
 450 266 507 131 676 131 c 0
 864 131 1023 297 1110 745 c 0
280 745 m 0
 410 1413 740 1520 946 1520 c 256
 1236 1520 1344 1322 1344 1041 c 0
 1344 950 1332 850 1312 745 c 0
 1229 320 1030 -29 645 -29 c 256
 356 -29 248 168 248 448 c 0
 248 539 260 640 280 745 c 0
EndSplineSet
EndChar
StartChar: one
Encoding: 19 49 21
Width: 1303
Flags: W
HStem: 0 170<287 617 817 1114 254 1147 287 287> 1473 20G<768.944 1074>
Fore
287 170 m 1
 617 170 l 1
 838 1309 l 1
 465 1237 l 1
 501 1421 l 1
 872 1493 l 1
 1074 1493 l 1
 817 170 l 1
 1147 170 l 1
 1114 0 l 1
 254 0 l 1
 287 170 l 1
EndSplineSet
EndChar
StartChar: two
Encoding: 20 50 22
Width: 1303
Flags: W
HStem: 0 170<426 1098> 1217 21G<400.824 511> 1350 170<682.375 1015.68>
VStem: 1103 209<986.097 1262.74>
Fore
877 1520 m 0
 1139 1520 1312 1400 1312 1184 c 0
 1312 909 1080 731 879 558 c 2
 426 170 l 1
 1131 170 l 1
 1098 0 l 1
 150 0 l 1
 183 170 l 1
 559 490 l 2
 922 796 1103 944 1103 1136 c 0
 1103 1266 1005 1350 848 1350 c 0
 763 1350 625 1332 397 1217 c 1
 436 1421 l 1
 539 1459 720 1520 877 1520 c 0
EndSplineSet
EndChar
StartChar: three
Encoding: 21 51 23
Width: 1303
Flags: W
HStem: -29 170<312.295 812.698> 715 166<585 927.333> 1350 170<670.065 1046.58>
VStem: 1028 204<329.086 624.78> 1124 208<1028.69 1278.13>
Fore
1332 1212 m 0xe8
 1332 1057 1244 867 987 805 c 1
 1136 772 1232 674 1232 519 c 0
 1232 300 1075 -29 549 -29 c 0
 401 -29 270 5 165 45 c 1
 203 240 l 1
 322 162 463 141 576 141 c 0
 956 141 1028 371 1028 496 c 0xf0
 1028 642 909 715 727 715 c 2
 553 715 l 1
 585 881 l 1
 767 881 l 2
 1058 881 1124 1053 1124 1165 c 0
 1124 1295 1012 1350 850 1350 c 0
 695 1350 528 1301 449 1276 c 1
 484 1456 l 1
 691 1511 820 1520 901 1520 c 0
 1155 1520 1332 1417 1332 1212 c 0xe8
EndSplineSet
EndChar
StartChar: four
Encoding: 22 52 24
Width: 1303
Flags: W
HStem: 0 21G<774 978.864> 352 168<365 842 1076 1256> 1473 20G<993.981 1265>
Fore
1030 1317 m 1
 365 520 l 1
 875 520 l 1
 1030 1317 l 1
1011 1493 m 1
 1265 1493 l 1
 1076 520 l 1
 1289 520 l 1
 1256 352 l 1
 1043 352 l 1
 975 0 l 1
 774 0 l 1
 842 352 l 1
 168 352 l 1
 206 547 l 1
 1011 1493 l 1
EndSplineSet
EndChar
StartChar: five
Encoding: 23 53 25
Width: 1303
Flags: W
HStem: -29 170<312.208 777.375> 817 170<642.148 899.723> 1323 170<663 1271>
VStem: 1023 206<369.271 706.546>
Fore
574 141 m 0
 876 141 1023 355 1023 557 c 0
 1023 722 904 817 706 817 c 0
 579 817 464 784 365 743 c 1
 511 1493 l 1
 1304 1493 l 1
 1271 1323 l 1
 663 1323 l 1
 592 957 l 1
 649 975 708 987 774 987 c 0
 1062 987 1229 843 1229 600 c 0
 1229 375 1093 -29 545 -29 c 0
 400 -29 271 0 165 35 c 1
 204 238 l 1
 326 164 452 141 574 141 c 0
EndSplineSet
EndChar
StartChar: six
Encoding: 24 54 26
Width: 1303
Flags: W
HStem: -29 160<553.54 869.411> 827 160<680.957 983.657> 1350 170<829.636 1210.78>
VStem: 257 207<222.969 591.295> 1074 207<374.322 736.056>
Fore
701 131 m 256
 1000 131 1074 447 1074 580 c 0
 1074 730 995 827 837 827 c 256
 559 827 464 542 464 379 c 0
 464 228 544 131 701 131 c 256
1281 612 m 0
 1281 296 1063 -29 670 -29 c 0
 371 -29 257 168 257 455 c 0
 257 544 268 642 288 745 c 0
 374 1190 654 1520 1057 1520 c 0
 1152 1520 1250 1503 1361 1460 c 1
 1325 1276 l 1
 1251 1315 1150 1350 1032 1350 c 0
 729 1350 578 1116 501 807 c 1
 590 909 720 987 880 987 c 0
 1136 987 1281 847 1281 612 c 0
EndSplineSet
EndChar
StartChar: seven
Encoding: 25 55 27
Width: 1303
Flags: W
HStem: 0 21G<375 597.585> 1323 170<458 1142>
Fore
458 1493 m 1
 1418 1493 l 1
 1401 1407 l 1
 586 0 l 1
 375 0 l 1
 1142 1323 l 1
 425 1323 l 1
 458 1493 l 1
EndSplineSet
EndChar
StartChar: eight
Encoding: 26 56 28
Width: 1303
Flags: W
HStem: -29 160<502.389 859.328> 709 159<657.008 963.927> 1360 160<734.089 1078.17>
VStem: 209 208<214.704 522.016> 387 199<931.44 1217.76> 1050 203<317.374 626.608> 1151 206<1027.58 1295.58>
Fore
676 131 m 256xf4
 934 131 1050 323 1050 490 c 0
 1050 630 955 709 789 709 c 0
 526 709 417 512 417 349 c 0
 417 210 511 131 676 131 c 256xf4
209 307 m 0
 209 509 316 731 604 795 c 1
 472 829 387 918 387 1058 c 0
 387 1243 528 1520 946 1520 c 0
 1193 1520 1357 1417 1357 1217 c 0xea
 1357 1058 1264 856 1009 795 c 1
 1155 759 1253 661 1253 504 c 0
 1253 361 1164 -29 645 -29 c 256
 370 -29 209 82 209 307 c 0
820 868 m 0
 1078 868 1151 1058 1151 1171 c 0
 1151 1294 1063 1360 915 1360 c 0
 651 1360 586 1163 586 1054 c 0
 586 932 673 868 820 868 c 0
EndSplineSet
EndChar
StartChar: nine
Encoding: 27 57 29
Width: 1303
Flags: W
HStem: -29 170<381.339 762.153> 506 158<606.618 914.565> 1360 160<722.093 1038.85>
VStem: 312 206<754.46 1121.85> 1129 206<898.864 1267.33>
Fore
312 878 m 0
 312 1189 525 1520 922 1520 c 0
 1221 1520 1335 1322 1335 1035 c 0
 1335 946 1324 848 1304 745 c 0
 1218 301 938 -29 535 -29 c 0
 440 -29 343 -12 231 31 c 1
 267 215 l 1
 341 176 442 141 559 141 c 0
 863 141 1014 374 1091 684 c 1
 1003 582 872 506 712 506 c 0
 457 506 312 644 312 878 c 0
891 1360 m 256
 593 1360 518 1043 518 910 c 0
 518 760 598 664 756 664 c 256
 1033 664 1129 948 1129 1111 c 0
 1129 1262 1049 1360 891 1360 c 256
EndSplineSet
EndChar
StartChar: colon
Encoding: 28 58 30
Width: 690
Flags: W
HStem: 0 254<289 451> 805 254<446 607>
VStem: 240 417<0 1059 601.26 820.165>
Fore
289 254 m 1
 500 254 l 1
 451 0 l 1
 240 0 l 1
 289 254 l 1
446 1059 m 1
 657 1059 l 1
 607 805 l 1
 396 805 l 1
 446 1059 l 1
EndSplineSet
EndChar
StartChar: semicolon
Encoding: 29 59 31
Width: 690
Flags: W
HStem: 805 254<446 607>
VStem: 112 545<-238 1059 -456.121 -238>
Fore
446 1059 m 1
 657 1059 l 1
 607 805 l 1
 396 805 l 1
 446 1059 l 1
289 254 m 1
 500 254 l 1
 467 82 l 1
 241 -238 l 1
 112 -238 l 1
 256 82 l 1
 289 254 l 1
EndSplineSet
EndChar
StartChar: less
Encoding: 30 60 32
Width: 1716
Flags: W
Fore
1695 1008 m 1
 592 641 l 1
 1553 276 l 1
 1517 94 l 1
 326 559 l 1
 358 725 l 1
 1730 1190 l 1
 1695 1008 l 1
EndSplineSet
EndChar
StartChar: equal
Encoding: 31 61 33
Width: 1716
Flags: W
HStem: 352 170<318 1567> 762 168<398 1647>
Fore
398 930 m 1
 1680 930 l 1
 1647 762 l 1
 365 762 l 1
 398 930 l 1
318 522 m 1
 1600 522 l 1
 1567 352 l 1
 285 352 l 1
 318 522 l 1
EndSplineSet
EndChar
StartChar: greater
Encoding: 32 62 34
Width: 1716
Flags: W
Fore
413 1008 m 1
 448 1190 l 1
 1640 725 l 1
 1608 559 l 1
 235 94 l 1
 271 276 l 1
 1372 641 l 1
 413 1008 l 1
EndSplineSet
EndChar
StartChar: question
Encoding: 33 63 35
Width: 1087
Flags: W
HStem: 0 254<440 594> 1219 21G<387.83 479> 1356 164<635.644 912.872>
VStem: 970 208<1067.45 1303.29>
Fore
440 254 m 1
 643 254 l 1
 594 0 l 1
 391 0 l 1
 440 254 l 1
832 1520 m 0
 1051 1520 1178 1411 1178 1241 c 0
 1178 1056 1048 947 951 868 c 2
 846 782 l 2
 731 686 717 666 690 524 c 2
 666 401 l 1
 475 401 l 1
 505 555 l 2
 533 700 583 767 712 872 c 2
 820 961 l 2
 907 1031 970 1102 970 1197 c 0
 970 1294 894 1356 766 1356 c 0
 695 1356 574 1335 384 1219 c 1
 420 1407 l 1
 536 1469 671 1520 832 1520 c 0
EndSplineSet
EndChar
StartChar: at
Encoding: 34 64 36
Width: 2048
Flags: W
HStem: -356 143<745.06 1250.66> 88 143<928.888 1210.46> 842 145<1035.87 1331.32> 1298 144<1044.87 1549.32>
VStem: 222 145<157.766 635.489> 694 163<303.302 646.766> 1900 146<543.812 982.475>
Fore
1073 231 m 0
 1314 231 1405 469 1405 623 c 0
 1405 757 1331 842 1190 842 c 0
 946 842 857 598 857 449 c 0
 857 315 930 231 1073 231 c 0
222 356 m 0
 222 956 763 1442 1333 1442 c 0
 1775 1442 2046 1149 2046 795 c 0
 2046 471 1833 95 1323 84 c 1
 1353 238 l 1
 1268 150 1160 88 1006 88 c 0
 810 88 694 218 694 419 c 0
 694 690 881 987 1181 987 c 0
 1333 987 1418 925 1470 836 c 1
 1495 967 l 1
 1638 967 l 1
 1495 231 l 1
 1781 273 1900 556 1900 775 c 0
 1900 1093 1640 1298 1307 1298 c 0
 776 1298 367 847 367 390 c 0
 367 47 606 -213 997 -213 c 0
 1193 -213 1377 -136 1511 -45 c 1
 1580 -156 l 1
 1413 -268 1198 -356 969 -356 c 0
 543 -356 222 -78 222 356 c 0
EndSplineSet
EndChar
StartChar: A
Encoding: 35 65 37
Width: 1401
Flags: W
HStem: 0 21G<16 239.966 1170.76 1384> 383 168<533 1082> 1473 20G<864.48 1108.74>
Fore
952 1294 m 1
 533 551 l 1
 1082 551 l 1
 952 1294 l 1
876 1493 m 1
 1105 1493 l 1
 1384 0 l 1
 1174 0 l 1
 1112 383 l 1
 439 383 l 1
 229 0 l 1
 16 0 l 5
 876 1493 l 1
EndSplineSet
EndChar
StartChar: B
Encoding: 36 66 38
Width: 1405
Flags: W
HStem: 0 166<435 965.598> 713 164<573 1066.75> 1327 166<661 1148.09>
VStem: 1141 210<331.992 642.628> 1215 210<1072.36 1269.33>
Fore
759 166 m 2xf0
 1064 166 1141 362 1141 516 c 0
 1141 637 1069 713 866 713 c 2
 542 713 l 1
 435 166 l 1
 759 166 l 2xf0
872 877 m 2
 1168 877 1215 1055 1215 1158 c 0xe8
 1215 1292 1098 1327 960 1327 c 2
 661 1327 l 1
 573 877 l 1
 872 877 l 2
1351 510 m 0xf0
 1351 306 1219 0 737 0 c 2
 201 0 l 1
 491 1493 l 1
 1007 1493 l 2
 1256 1493 1425 1406 1425 1207 c 0xe8
 1425 1147 1404 853 1102 805 c 1
 1255 771 1351 670 1351 510 c 0xf0
EndSplineSet
EndChar
StartChar: C
Encoding: 37 67 39
Width: 1430
Flags: W
HStem: -29 166<654.191 1121.58> 1354 166<877.143 1349.27>
VStem: 239 214<340.922 751.405>
Fore
239 538 m 0
 239 893 452 1520 1139 1520 c 0
 1294 1520 1452 1485 1587 1378 c 1
 1545 1165 l 1
 1442 1283 1304 1354 1119 1354 c 0
 762 1354 546 1123 473 745 c 0
 460 677 453 614 453 556 c 0
 453 293 591 137 883 137 c 0
 1068 137 1233 208 1382 326 c 1
 1341 115 l 1
 1164 9 992 -29 838 -29 c 0
 452 -29 239 182 239 538 c 0
EndSplineSet
EndChar
StartChar: D
Encoding: 38 68 40
Width: 1577
Flags: W
HStem: 0 166<435 965.289> 1327 166<661 1180.69>
VStem: 1408 216<839.083 1131.28>
Fore
1388 748 m 0
 1401 815 1408 876 1408 931 c 0
 1408 1207 1242 1327 905 1327 c 2
 661 1327 l 1
 435 166 l 1
 679 166 l 2
 1083 166 1309 340 1388 748 c 0
1601 748 m 0
 1497 211 1163 0 616 0 c 2
 201 0 l 1
 491 1493 l 1
 906 1493 l 2
 1372 1493 1624 1342 1624 966 c 0
 1624 900 1617 828 1601 748 c 0
EndSplineSet
EndChar
StartChar: E
Encoding: 39 69 41
Width: 1294
Flags: W
HStem: 0 170<436 1163> 711 170<574 1252> 1323 170<660 1402>
Fore
491 1493 m 1
 1435 1493 l 1
 1402 1323 l 1
 660 1323 l 1
 574 881 l 1
 1285 881 l 1
 1252 711 l 1
 541 711 l 1
 436 170 l 1
 1196 170 l 1
 1163 0 l 1
 201 0 l 5
 491 1493 l 1
EndSplineSet
EndChar
StartChar: F
Encoding: 40 70 42
Width: 1178
Flags: W
HStem: 0 21G<201 406.899> 713 170<575 1134> 1323 170<660 1316>
Fore
491 1493 m 1
 1349 1493 l 1
 1316 1323 l 1
 660 1323 l 1
 575 883 l 1
 1167 883 l 1
 1134 713 l 1
 542 713 l 1
 403 0 l 1
 201 0 l 1
 491 1493 l 1
EndSplineSet
EndChar
StartChar: G
Encoding: 41 71 43
Width: 1587
Flags: W
HStem: -29 166<660.757 1166.07> 614 166<1041 1338> 1354 166<882.16 1385.2>
VStem: 238 214<335.361 741.902>
Fore
238 535 m 0
 238 859 422 1520 1155 1520 c 0
 1311 1520 1495 1488 1648 1378 c 1
 1606 1163 l 1
 1492 1278 1341 1354 1140 1354 c 0
 762 1354 549 1135 473 745 c 0
 460 678 452 613 452 550 c 0
 452 320 559 137 904 137 c 0
 1047 137 1160 161 1260 213 c 1
 1338 614 l 1
 1008 614 l 1
 1041 780 l 1
 1571 780 l 1
 1446 139 l 1
 1282 37 1083 -29 854 -29 c 0
 457 -29 238 176 238 535 c 0
EndSplineSet
EndChar
StartChar: H
Encoding: 42 72 44
Width: 1540
Flags: W
HStem: 0 21G<201 406.882 1137 1342.88> 711 170<574 1275> 1473 20G<487.115 693 1423.11 1629>
Fore
491 1493 m 1
 693 1493 l 1
 574 881 l 1
 1308 881 l 1
 1427 1493 l 1
 1629 1493 l 1
 1339 0 l 1
 1137 0 l 1
 1275 711 l 1
 541 711 l 1
 403 0 l 1
 201 0 l 1
 491 1493 l 1
EndSplineSet
EndChar
StartChar: I
Encoding: 43 73 45
Width: 604
Flags: MW
HStem: 0 21G<201 406.885> 1473 20G<487.115 693>
Fore
491 1493 m 1
 693 1493 l 1
 403 0 l 1
 201 0 l 1
 491 1493 l 1
EndSplineSet
EndChar
StartChar: J
Encoding: 44 74 46
Width: 604
Flags: W
HStem: -410 1903<-186 693 491 491> -410 170<-153 66.9953>
Fore
-90 -240 m 2x40
 105 -240 177 -125 221 104 c 2
 491 1493 l 1
 693 1493 l 1
 423 104 l 2
 359 -227 215 -410 -109 -410 c 2
 -186 -410 l 1x80
 -153 -240 l 1
 -90 -240 l 2x40
EndSplineSet
EndChar
StartChar: K
Encoding: 45 75 47
Width: 1343
Flags: W
HStem: 0 21G<201 406.894 1103.95 1386> 1473 20G<487.115 693 1337.9 1623>
Fore
491 1493 m 1
 693 1493 l 1
 571 862 l 1
 1363 1493 l 1
 1623 1493 l 1
 747 797 l 1
 1386 0 l 1
 1120 0 l 1
 543 719 l 1
 403 0 l 1
 201 0 l 1
 491 1493 l 1
EndSplineSet
EndChar
StartChar: L
Encoding: 46 76 48
Width: 1141
Flags: W
HStem: 0 170<436 1130 201 1163 436 436> 1473 20G<487.115 693>
Fore
491 1493 m 1
 693 1493 l 1
 436 170 l 1
 1163 170 l 1
 1130 0 l 1
 201 0 l 1
 491 1493 l 1
EndSplineSet
EndChar
StartChar: M
Encoding: 47 77 49
Width: 1767
Flags: W
HStem: 0 21G<201 400.89 1370 1570.88> 1473 20G<487.115 795.622 1544.58 1857>
Fore
491 1493 m 1
 792 1493 l 1
 976 477 l 1
 1556 1493 l 1
 1857 1493 l 1
 1567 0 l 1
 1370 0 l 1
 1625 1311 l 1
 1041 287 l 1
 838 287 l 1
 652 1311 l 1
 397 0 l 1
 201 0 l 1
 491 1493 l 1
EndSplineSet
EndChar
StartChar: N
Encoding: 48 78 50
Width: 1532
Flags: W
HStem: 0 21G<201 400.891 1052.29 1334.88> 1473 20G<487.115 769.709 1421.11 1621>
Fore
491 1493 m 1
 763 1493 l 1
 1182 244 l 1
 1425 1493 l 1
 1621 1493 l 1
 1331 0 l 1
 1059 0 l 1
 640 1249 l 1
 397 0 l 1
 201 0 l 5
 491 1493 l 1
EndSplineSet
EndChar
StartChar: O
Encoding: 49 79 51
Width: 1612
Flags: W
HStem: -29 164<640.973 1031.9> 1356 164<865.352 1261.86>
VStem: 238 216<329.677 832.961> 1448 215<657.858 1160.81>
Fore
833 135 m 256
 1269 135 1448 616 1448 933 c 0
 1448 1185 1328 1356 1071 1356 c 256
 633 1356 454 873 454 559 c 0
 454 307 575 135 833 135 c 256
238 536 m 0
 238 925 484 1520 1102 1520 c 0
 1464 1520 1663 1299 1663 953 c 0
 1663 517 1382 -29 801 -29 c 0
 438 -29 238 190 238 536 c 0
EndSplineSet
EndChar
StartChar: P
Encoding: 50 80 52
Width: 1235
Flags: W
HStem: 0 21G<201 406.9> 600 166<552 987.022> 1327 166<661 1085.93>
VStem: 1163 218<938.097 1251.86>
Fore
806 766 m 2
 1092 766 1163 993 1163 1120 c 0
 1163 1254 1075 1327 915 1327 c 2
 661 1327 l 1
 552 766 l 1
 806 766 l 2
1381 1161 m 0
 1381 979 1293 600 774 600 c 2
 520 600 l 1
 403 0 l 1
 201 0 l 1
 491 1493 l 1
 947 1493 l 2
 1278 1493 1381 1343 1381 1161 c 0
EndSplineSet
EndChar
StartChar: Q
Encoding: 51 81 53
Width: 1612
Flags: W
HStem: -264 399<1061 1269> -29 164<641.006 897.312> 1356 164<866.002 1261.86>
VStem: 239 215<330.354 834.646> 1448 215<656.268 1160.81>
Fore
833 135 m 256x78
 1269 135 1448 616 1448 933 c 0
 1448 1185 1328 1356 1071 1356 c 256
 633 1356 454 873 454 559 c 0
 454 307 575 135 833 135 c 256x78
1663 953 m 0
 1663 747 1582 226 1095 27 c 1
 1305 -264 l 1
 1061 -264 l 1xb8
 886 -25 l 1
 818 -29 826 -29 801 -29 c 0
 438 -29 239 191 239 538 c 0
 239 931 488 1520 1102 1520 c 0
 1464 1520 1663 1299 1663 953 c 0
EndSplineSet
EndChar
StartChar: R
Encoding: 52 82 54
Width: 1423
Flags: W
HStem: 0 21G<201 406.899 1140.89 1364> 631 166<558 913.918> 1327 166<661 1090.19>
VStem: 1166 218<959.993 1257.39>
Fore
1384 1177 m 0
 1384 1007 1307 772 1045 700 c 1
 1104 679 1177 616 1238 408 c 2
 1364 0 l 1
 1147 0 l 1
 1030 383 l 2
 977 564 918 631 746 631 c 2
 526 631 l 1
 403 0 l 1
 201 0 l 1
 491 1493 l 1
 947 1493 l 2
 1224 1493 1384 1400 1384 1177 c 0
812 797 m 2
 1114 797 1166 1025 1166 1133 c 0
 1166 1266 1076 1327 915 1327 c 2
 661 1327 l 1
 558 797 l 1
 812 797 l 2
EndSplineSet
EndChar
StartChar: S
Encoding: 53 83 55
Width: 1300
Flags: W
HStem: -29 164<388.2 869.814> 1356 164<722.993 1191.24>
VStem: 338 210<957.056 1204.38> 1058 218<301.91 572.119>
Fore
338 1001 m 0
 338 1214 490 1520 954 1520 c 0
 1116 1520 1261 1485 1377 1444 c 1
 1338 1247 l 1
 1247 1295 1108 1356 946 1356 c 0
 627 1356 548 1176 548 1057 c 0
 548 956 622 913 794 879 c 2
 911 854 l 2
 1137 809 1276 709 1276 512 c 0
 1276 331 1181 -29 608 -29 c 0
 419 -29 248 29 154 66 c 1
 194 274 l 1
 300 207 451 135 640 135 c 0
 976 135 1058 327 1058 455 c 0
 1058 573 970 630 815 662 c 2
 696 686 l 2
 467 733 338 821 338 1001 c 0
EndSplineSet
EndChar
StartChar: T
Encoding: 54 84 56
Width: 1251
Flags: W
HStem: 0 21G<524 730.885> 1323 170<284 781 984 1514>
Fore
284 1493 m 1
 1547 1493 l 1
 1514 1323 l 1
 984 1323 l 1
 727 0 l 1
 524 0 l 1
 781 1323 l 1
 251 1323 l 1
 284 1493 l 1
EndSplineSet
EndChar
StartChar: U
Encoding: 55 85 57
Width: 1499
Flags: W
HStem: -29 164<581.243 986.283> 1473 20G<464.116 671 1404.12 1611>
VStem: 268 208<233.943 498.897> 468 203<607.752 1493>
Fore
744 -29 m 0xe0
 426 -29 268 113 268 384 c 0xe0
 268 438 275 497 287 561 c 2
 468 1493 l 1
 671 1493 l 1xd0
 495 586 l 2
 482 520 476 462 476 412 c 0
 476 204 586 135 776 135 c 0
 1057 135 1176 297 1232 586 c 2
 1408 1493 l 1
 1611 1493 l 1
 1430 561 l 2
 1355 175 1124 -29 744 -29 c 0xe0
EndSplineSet
EndChar
StartChar: V
Encoding: 56 86 58
Width: 1401
Flags: W
HStem: 0 21G<582.249 826.507> 1473 20G<306 520.644 1452.58 1674>
Fore
586 0 m 1
 306 1493 l 1
 517 1493 l 1
 746 236 l 1
 1464 1493 l 1
 1674 1493 l 1
 815 0 l 1
 586 0 l 1
EndSplineSet
EndChar
StartChar: W
Encoding: 57 87 59
Width: 2025
Flags: W
HStem: 0 21G<440.875 704.796 1328.03 1591.91> 1473 20G<358 563.094 1180.16 1417.09 2034.16 2248>
Fore
358 1493 m 1
 562 1493 l 1
 631 231 l 1
 1189 1493 l 1
 1416 1493 l 1
 1485 231 l 1
 2043 1493 l 1
 2248 1493 l 1
 1583 0 l 1
 1329 0 l 1
 1266 1296 l 1
 696 0 l 1
 442 0 l 1
 358 1493 l 1
EndSplineSet
EndChar
StartChar: X
Encoding: 58 88 60
Width: 1403
Flags: W
HStem: 0 21G<61 296.197 1112.65 1339> 1473 20G<419 645.477 1362.67 1597>
Fore
419 1493 m 1
 636 1493 l 1
 899 938 l 1
 1380 1493 l 1
 1597 1493 l 1
 978 776 l 1
 1339 0 l 1
 1122 0 l 1
 825 635 l 1
 279 0 l 1
 61 0 l 1
 749 797 l 1
 419 1493 l 1
EndSplineSet
EndChar
StartChar: Y
Encoding: 59 89 61
Width: 1251
Flags: W
HStem: 0 21G<524 730.882> 1473 20G<286 512.609 1310.74 1545>
Fore
286 1493 m 1
 503 1493 l 1
 798 879 l 1
 1328 1493 l 1
 1545 1493 l 1
 865 711 l 1
 727 0 l 1
 524 0 l 1
 662 711 l 1
 286 1493 l 1
EndSplineSet
EndChar
StartChar: Z
Encoding: 60 90 62
Width: 1403
Flags: W
HStem: 0 170<377 1311> 1323 170<405 1293>
Fore
405 1493 m 1
 1578 1493 l 1
 1548 1339 l 1
 377 170 l 1
 1344 170 l 1
 1311 0 l 1
 92 0 l 1
 122 154 l 1
 1293 1323 l 1
 372 1323 l 1
 405 1493 l 1
EndSplineSet
EndChar
StartChar: bracketleft
Encoding: 61 91 63
Width: 799
Flags: W
HStem: -270 143<335 548> 1413 143<635 875>
VStem: 124 778<-270 1556 -334.828 -270>
Fore
478 1556 m 1
 902 1556 l 1
 875 1413 l 1
 635 1413 l 1
 335 -127 l 1
 575 -127 l 1
 548 -270 l 1
 124 -270 l 1
 478 1556 l 1
EndSplineSet
EndChar
StartChar: backslash
Encoding: 62 92 64
Width: 690
Flags: W
HStem: 1473 20G<290 462.294>
VStem: 290 363<-190 1493 1493 1493>
Fore
460 1493 m 1
 653 -190 l 1
 483 -190 l 1
 290 1493 l 1
 460 1493 l 1
EndSplineSet
EndChar
StartChar: bracketright
Encoding: 63 93 65
Width: 799
Flags: W
HStem: -270 143<174 413> 1413 143<501 713>
VStem: 147 778<-270 1556 1344.44 1444.47>
Fore
925 1556 m 1
 571 -270 l 1
 147 -270 l 1
 174 -127 l 1
 413 -127 l 1
 713 1413 l 1
 474 1413 l 1
 501 1556 l 1
 925 1556 l 1
EndSplineSet
EndChar
StartChar: asciicircum
Encoding: 64 94 66
Width: 1716
Flags: W
HStem: 936 557<1246 1681 1246 1246>
Fore
1246 1493 m 1
 1681 936 l 1
 1480 936 l 1
 1117 1331 l 1
 600 936 l 1
 399 936 l 1
 1050 1493 l 1
 1246 1493 l 1
EndSplineSet
EndChar
StartChar: underscore
Encoding: 65 95 67
Width: 1024
Flags: W
HStem: -483 143<-86 950>
Fore
978 -340 m 1
 950 -483 l 1
 -114 -483 l 1
 -86 -340 l 1
 978 -340 l 1
EndSplineSet
EndChar
StartChar: grave
Encoding: 66 96 68
Width: 1024
Flags: W
HStem: 1264 374<685 895 685 685>
Fore
685 1638 m 1
 895 1264 l 1
 742 1264 l 1
 488 1638 l 1
 685 1638 l 1
EndSplineSet
EndChar
StartChar: a
Encoding: 67 97 69
Width: 1255
Flags: W
HStem: -29 154<421.337 720.488> 563 144<522.024 994> 991 156<518.491 949.307>
VStem: 178 190<176.125 439.264> 1032 178<715 912.365>
Back
205 899 m 9
 205 1069 l 17
 308.333 1120.33 435.333 1146.33 586 1147 c 0
 746.687 1148.41 867.854 1106.25 949.5 1020.5 c 128
 1029.17 936.833 1069 809.667 1069 639 c 2
 1069 0 l 1
 885 0 l 1
 885 170 l 1
 843 102 790.667 51.8333 728 19.5 c 128
 665.333 -12.8333 588.667 -29 498 -29 c 0
 383.333 -29 292.167 3.16667 224.5 67.5 c 128
 156.833 131.833 123 218 123 326 c 0
 123 452 165.167 547 249.5 611 c 128
 333.833 675 459.667 707 627 707 c 2
 885 707 l 1
 885 725 l 2
 885 809.667 857.167 875.167 801.5 921.5 c 128
 746.491 967.285 668.325 990.452 567 991 c 8
 450.333 991.667 329.667 961 205 899 c 9
702 563 m 2
 553.333 563 450.333 546 393 512 c 128
 335.667 478 307 420 307 338 c 0
 307 272.667 328.5 220.833 371.5 182.5 c 128
 414.5 144.167 473 125 547 125 c 0
 649 125 730.833 161.167 792.5 233.5 c 128
 854.167 305.833 885 402 885 522 c 2
 885 563 l 1
 702 563 l 2
EndSplineSet
Fore
571 125 m 0
 774 125 939 278 986 522 c 2
 994 563 l 1
 811 563 l 2
 579 563 368 527 368 289 c 0
 368 185 444 125 571 125 c 0
1022 707 m 1
 1027 731 1032 755 1032 787 c 0
 1032 924 928 991 760 991 c 0
 651 991 520 968 380 899 c 1
 413 1069 l 1
 508 1103 657 1147 809 1147 c 0
 1115 1147 1210 996 1210 800 c 0
 1210 749 1204 694 1193 639 c 2
 1069 0 l 1
 885 0 l 1
 918 170 l 1
 814 42 683 -29 492 -29 c 0
 291 -29 178 75 178 243 c 0
 178 400 258 707 764 707 c 2
 1022 707 l 1
EndSplineSet
EndChar
StartChar: b
Encoding: 68 98 70
Width: 1300
Flags: W
HStem: -29 154<561.776 872.384> 993 154<740.399 1023.97> 1536 20G<484.118 673>
VStem: 1121 193<457.432 891.958>
Fore
877 993 m 256
 577 993 465 627 465 413 c 0
 465 244 537 125 708 125 c 256
 1023 125 1121 518 1121 704 c 0
 1121 873 1048 993 877 993 c 256
1314 728 m 0
 1314 382 1095 -29 723 -29 c 0
 547 -29 451 45 404 168 c 1
 371 0 l 1
 186 0 l 1
 488 1556 l 1
 673 1556 l 1
 556 950 l 1
 651 1073 776 1147 952 1147 c 0
 1180 1147 1314 985 1314 728 c 0
EndSplineSet
EndChar
StartChar: c
Encoding: 69 99 71
Width: 1126
Flags: W
HStem: -29 156<529.873 852.898> 991 156<678.227 1094.83>
VStem: 206 196<252.541 664.746>
Fore
206 404 m 0
 206 677 371 1147 899 1147 c 0
 1028 1147 1128 1118 1208 1077 c 1
 1175 905 l 1
 1101 951 1003 991 877 991 c 0
 497 991 402 610 402 430 c 0
 402 242 504 127 709 127 c 0
 835 127 948 167 1040 213 c 1
 1007 43 l 1
 875 -14 759 -29 658 -29 c 0
 369 -29 206 135 206 404 c 0
EndSplineSet
EndChar
StartChar: d
Encoding: 70 100 72
Width: 1300
Flags: W
HStem: -29 154<493.196 773.5> 993 154<647.132 954.928> 1536 20G<1228.14 1416>
VStem: 204 193<225.297 666.643>
Fore
204 388 m 0
 204 729 419 1147 794 1147 c 0
 971 1147 1068 1073 1115 950 c 1
 1232 1556 l 1
 1416 1556 l 1
 1114 0 l 1
 930 0 l 1
 963 168 l 1
 867 45 742 -29 565 -29 c 0
 337 -29 204 133 204 388 c 0
640 125 m 256
 952 125 1054 511 1054 703 c 0
 1054 879 975 993 809 993 c 256
 509 993 397 627 397 413 c 0
 397 244 469 125 640 125 c 256
EndSplineSet
EndChar
StartChar: e
Encoding: 71 101 73
Width: 1260
Flags: W
HStem: -29 156<536.968 996.195> 516 144<439 1095> 991 156<662.19 1010.15>
VStem: 205 194<255.838 511.466> 1103 181<663.398 899.431>
Fore
205 405 m 0
 205 707 406 1147 885 1147 c 0
 1144 1147 1284 997 1284 754 c 0
 1284 708 1279 658 1269 606 c 2
 1251 516 l 1
 405 516 l 1
 401 487 399 460 399 434 c 0
 399 238 507 127 730 127 c 0
 892 127 1034 174 1153 231 c 1
 1119 57 l 1
 1005 12 854 -29 688 -29 c 0
 377 -29 205 137 205 405 c 0
1095 660 m 1
 1100 690 1103 718 1103 744 c 0
 1103 898 1012 991 857 991 c 0
 645 991 497 865 439 660 c 1
 1095 660 l 1
EndSplineSet
EndChar
StartChar: f
Encoding: 72 102 74
Width: 721
Flags: W
HStem: 0 21G<223 411.889> 977 143<265 413 626 901> 1403 153<711.483 1033>
VStem: 223 839<0 1556 0 275>
Fore
456 1198 m 2
 504 1445 635 1556 888 1556 c 2
 1062 1556 l 1
 1033 1403 l 1
 857 1403 l 2
 727 1403 672 1357 645 1219 c 2
 626 1120 l 1
 929 1120 l 1
 901 977 l 1
 598 977 l 1
 408 0 l 1
 223 0 l 1
 413 977 l 1
 237 977 l 1
 265 1120 l 1
 441 1120 l 1
 456 1198 l 2
EndSplineSet
EndChar
StartChar: g
Encoding: 73 103 75
Width: 1300
Flags: W
HStem: -426 152<293.19 726.421> 0 154<495.932 782.126> 993 154<640.553 962.287>
VStem: 207 193<253.259 679.036>
Fore
809 993 m 0
 481 993 400 597 400 434 c 0
 400 267 474 154 646 154 c 0
 974 154 1056 550 1056 715 c 0
 1056 881 982 993 809 993 c 0
207 407 m 0
 207 732 410 1147 794 1147 c 0
 972 1147 1068 1072 1115 950 c 1
 1148 1120 l 1
 1332 1120 l 1
 1141 139 l 2
 1070 -228 876 -426 515 -426 c 0
 375 -426 268 -403 177 -367 c 1
 211 -188 l 1
 288 -234 388 -274 516 -274 c 0
 762 -274 902 -144 951 106 c 2
 968 197 l 1
 875 75 747 0 571 0 c 0
 342 0 207 154 207 407 c 0
EndSplineSet
EndChar
StartChar: h
Encoding: 74 104 76
Width: 1298
Flags: W
HStem: 0 21G<186 374.886 940 1127.88> 987 160<753.714 1025.76> 1536 20G<484.118 673>
VStem: 1082 190<717.265 928.431>
Fore
956 1147 m 0
 1085 1147 1272 1107 1272 834 c 0
 1272 788 1267 736 1255 676 c 2
 1124 0 l 1
 940 0 l 1
 1070 670 l 2
 1078 713 1082 751 1082 784 c 0
 1082 931 1005 987 884 987 c 0
 681 987 536 849 494 633 c 2
 371 0 l 1
 186 0 l 1
 488 1556 l 1
 673 1556 l 1
 555 946 l 1
 651 1059 777 1147 956 1147 c 0
EndSplineSet
EndChar
StartChar: i
Encoding: 75 105 77
Width: 569
Flags: W
HStem: 0 21G<193 380.893> 1100 20G<407.107 595> 1323 233<495 634>
VStem: 193 486<0 1556 241.866 444.017>
Fore
411 1120 m 1
 595 1120 l 1
 377 0 l 1
 193 0 l 1
 411 1120 l 1
495 1556 m 1
 679 1556 l 1
 634 1323 l 1
 450 1323 l 1
 495 1556 l 1
EndSplineSet
EndChar
StartChar: j
Encoding: 76 106 78
Width: 569
Flags: W
HStem: -426 156<-89 99.4885> 1100 20G<407.105 595> 1323 233<495 634>
VStem: -120 799<-426 1556 -426 735.415>
Fore
-40 -270 m 2
 102 -270 151 -215 189 -20 c 2
 411 1120 l 1
 595 1120 l 1
 373 -20 l 2
 322 -283 208 -426 -50 -426 c 2
 -120 -426 l 1
 -89 -270 l 1
 -40 -270 l 2
495 1556 m 1
 679 1556 l 1
 634 1323 l 1
 450 1323 l 1
 495 1556 l 1
EndSplineSet
EndChar
StartChar: k
Encoding: 77 107 79
Width: 1186
Flags: W
HStem: 0 21G<186 374.876 923.071 1180> 1100 20G<1111.37 1373> 1536 20G<484.118 673>
Fore
488 1556 m 1
 673 1556 l 1
 495 637 l 1
 1138 1120 l 1
 1373 1120 l 1
 677 596 l 1
 1180 0 l 1
 940 0 l 1
 477 547 l 1
 371 0 l 1
 186 0 l 1
 488 1556 l 1
EndSplineSet
EndChar
StartChar: l
Encoding: 78 108 80
Width: 569
Flags: W
HStem: 0 21G<193 380.882> 1536 20G<491.118 679>
VStem: 193 486<0 1556 1.53064e-18 1.53064e-18>
Fore
495 1556 m 1
 679 1556 l 1
 377 0 l 1
 193 0 l 1
 495 1556 l 1
EndSplineSet
EndChar
StartChar: m
Encoding: 79 109 81
Width: 1995
Flags: W
HStem: 0 21G<186 374.886 911 1099.89 1636 1824.88> 987 160<748.232 1001.51 1473.46 1726.79>
VStem: 1779 190<719.851 934.951>
Fore
954 1147 m 0
 1154 1147 1223 1021 1241 905 c 1
 1342 1040 1477 1147 1679 1147 c 0
 1881 1147 1969 1023 1969 833 c 0
 1969 785 1963 732 1952 676 c 2
 1821 0 l 1
 1636 0 l 1
 1766 670 l 2
 1775 714 1779 756 1779 793 c 0
 1779 911 1730 987 1597 987 c 0
 1399 987 1260 846 1219 633 c 2
 1096 0 l 1
 911 0 l 1
 1041 670 l 2
 1050 717 1055 758 1055 794 c 0
 1055 937 982 987 870 987 c 0
 675 987 535 844 494 633 c 2
 371 0 l 1
 186 0 l 1
 404 1120 l 1
 589 1120 l 1
 555 946 l 1
 649 1063 771 1147 954 1147 c 0
EndSplineSet
EndChar
StartChar: n
Encoding: 80 110 82
Width: 1298
Flags: W
HStem: 0 21G<186 374.886 940 1127.88> 987 160<753.714 1025.76>
VStem: 1082 190<717.265 928.431>
Fore
956 1147 m 0
 1085 1147 1272 1107 1272 834 c 0
 1272 788 1267 736 1255 676 c 2
 1124 0 l 1
 940 0 l 1
 1070 670 l 2
 1078 713 1082 751 1082 784 c 0
 1082 931 1005 987 884 987 c 0
 681 987 536 849 494 633 c 2
 371 0 l 1
 186 0 l 1
 404 1120 l 1
 589 1120 l 1
 555 946 l 1
 651 1059 777 1147 956 1147 c 0
EndSplineSet
EndChar
StartChar: o
Encoding: 81 111 83
Width: 1253
Flags: W
HStem: -29 156<501.298 808.926> 991 156<653.341 968.359>
VStem: 204 197<233.959 655.916> 1069 198<453.767 883.909>
Fore
652 127 m 0
 933 127 1069 455 1069 697 c 0
 1069 874 987 991 820 991 c 0
 503 991 401 607 401 418 c 0
 401 247 478 127 652 127 c 0
204 388 m 0
 204 625 333 1147 850 1147 c 0
 1126 1147 1267 987 1267 728 c 0
 1267 425 1091 -29 621 -29 c 0
 345 -29 204 131 204 388 c 0
EndSplineSet
EndChar
StartChar: p
Encoding: 82 112 84
Width: 1300
Flags: W
HStem: -426 21G<103 291.906> -29 154<561.776 872.384> 993 154<740.399 1023.97>
VStem: 1121 193<457.432 891.958>
Fore
1314 728 m 0
 1314 382 1095 -29 723 -29 c 0
 547 -29 451 45 404 168 c 1
 288 -426 l 1
 103 -426 l 1
 404 1120 l 1
 589 1120 l 1
 556 950 l 1
 651 1073 776 1147 952 1147 c 0
 1180 1147 1314 985 1314 728 c 0
877 993 m 256
 577 993 465 627 465 413 c 0
 465 244 537 125 708 125 c 256
 1023 125 1121 518 1121 704 c 0
 1121 873 1048 993 877 993 c 256
EndSplineSet
EndChar
StartChar: q
Encoding: 83 113 85
Width: 1300
Flags: W
HStem: -426 21G<847 1034.89> -29 154<493.196 773.5> 993 154<647.132 954.928>
VStem: 204 193<225.297 666.643>
Fore
640 125 m 256
 952 125 1054 511 1054 703 c 0
 1054 879 975 993 809 993 c 256
 509 993 397 627 397 413 c 0
 397 244 469 125 640 125 c 256
204 388 m 0
 204 729 419 1147 794 1147 c 0
 971 1147 1068 1073 1115 950 c 1
 1148 1120 l 1
 1332 1120 l 1
 1031 -426 l 1
 847 -426 l 1
 963 168 l 1
 867 45 742 -29 565 -29 c 0
 337 -29 204 133 204 388 c 0
EndSplineSet
EndChar
StartChar: r
Encoding: 84 114 86
Width: 842
Flags: W
HStem: 0 21G<186 374.898> 983 164<750.729 998.071>
VStem: 186 876<0 1137 -141.812 0>
Fore
555 946 m 1
 653 1074 783 1147 971 1147 c 0
 990 1147 1018 1145 1062 1137 c 1
 1025 948 l 1
 981 977 929 983 885 983 c 0
 664 983 532 828 486 590 c 2
 371 0 l 1
 186 0 l 1
 404 1120 l 1
 589 1120 l 1
 555 946 l 1
EndSplineSet
EndChar
StartChar: s
Encoding: 85 115 87
Width: 1067
Flags: W
HStem: -29 154<337.045 739.412> 993 154<550.266 938.008>
VStem: 271 183<718.683 909.811> 839 196<217.429 416.902>
Fore
271 746 m 0
 271 906 376 1147 772 1147 c 0
 910 1147 1026 1126 1118 1087 c 1
 1084 913 l 1
 977 974 865 993 764 993 c 0
 497 993 454 867 454 797 c 0
 454 718 533 687 670 655 c 2
 731 641 l 2
 925 598 1035 529 1035 382 c 0
 1035 152 841 -29 498 -29 c 0
 419 -29 295 -20 119 41 c 1
 156 231 l 1
 288 155 413 125 532 125 c 0
 784 125 839 250 839 334 c 0
 839 413 775 448 601 487 c 2
 540 502 l 2
 370 539 271 606 271 746 c 0
EndSplineSet
EndChar
StartChar: t
Encoding: 86 116 88
Width: 803
Flags: W
HStem: 0 154<451.639 754> 977 143<273 380 593 944>
VStem: 246 189<173.312 328.928>
Fore
435 263 m 0
 435 198 448 154 595 154 c 2
 784 154 l 1
 754 0 l 1
 565 0 l 2
 339 0 246 60 246 226 c 0
 246 267 251 314 262 369 c 2
 380 977 l 1
 245 977 l 1
 273 1120 l 1
 408 1120 l 1
 470 1438 l 1
 655 1438 l 1
 593 1120 l 1
 972 1120 l 1
 944 977 l 1
 565 977 l 1
 447 369 l 2
 439 327 435 291 435 263 c 0
EndSplineSet
EndChar
StartChar: u
Encoding: 87 117 89
Width: 1298
Flags: W
HStem: -29 160<490.162 765.426> 1100 20G<388.106 576 1142.09 1330>
VStem: 243 190<190.239 401.607>
Fore
561 -29 m 0
 432 -29 243 11 243 286 c 0
 243 331 248 383 260 442 c 2
 392 1120 l 1
 576 1120 l 1
 445 449 l 2
 437 406 433 368 433 334 c 0
 433 187 510 131 631 131 c 0
 834 131 980 269 1022 485 c 2
 1146 1120 l 1
 1330 1120 l 1
 1112 0 l 1
 928 0 l 1
 961 172 l 1
 864 58 741 -29 561 -29 c 0
EndSplineSet
EndChar
StartChar: v
Encoding: 88 118 90
Width: 1212
Flags: W
HStem: 0 21G<477.393 742.393> 1100 20G<279 477.553 1162.66 1369>
Fore
279 1120 m 1
 474 1120 l 1
 641 180 l 1
 1174 1120 l 1
 1369 1120 l 1
 731 0 l 1
 481 0 l 1
 279 1120 l 1
EndSplineSet
EndChar
StartChar: w
Encoding: 89 119 91
Width: 1675
Flags: W
HStem: 0 21G<377.661 605.15 1077.63 1305.12> 1100 20G<304 489.373 937.87 1165.37 1613.87 1807>
Fore
304 1120 m 1
 488 1120 l 1
 548 246 l 1
 947 1120 l 1
 1164 1120 l 1
 1224 246 l 1
 1623 1120 l 1
 1807 1120 l 1
 1296 0 l 1
 1079 0 l 1
 1016 918 l 1
 596 0 l 1
 379 0 l 1
 304 1120 l 1
EndSplineSet
EndChar
StartChar: x
Encoding: 90 120 92
Width: 1212
Flags: W
HStem: 0 21G<59 294.727 917.091 1145> 1100 20G<314 541.977 1106.2 1342>
Fore
1342 1120 m 1
 831 575 l 1
 1145 0 l 1
 928 0 l 1
 688 440 l 1
 276 0 l 1
 59 0 l 1
 608 586 l 1
 314 1120 l 1
 531 1120 l 1
 750 721 l 1
 1125 1120 l 1
 1342 1120 l 1
EndSplineSet
EndChar
StartChar: y
Encoding: 91 121 93
Width: 1212
Flags: W
HStem: -426 154<109 349.497> 1100 20G<279 478.087 1162.1 1369>
Fore
639 -104 m 2
 507 -331 415 -426 226 -426 c 2
 79 -426 l 1
 109 -272 l 1
 217 -272 l 2
 333 -272 380 -218 468 -66 c 2
 517 18 l 1
 279 1120 l 1
 474 1120 l 1
 653 244 l 1
 1174 1120 l 1
 1369 1120 l 1
 639 -104 l 2
EndSplineSet
EndChar
StartChar: z
Encoding: 92 122 94
Width: 1075
Flags: W
HStem: 0 147<324 987> 973 147<331 969>
Fore
331 1120 m 1
 1205 1120 l 1
 1172 952 l 1
 324 147 l 1
 1016 147 l 1
 987 0 l 1
 88 0 l 1
 121 168 l 1
 969 973 l 1
 302 973 l 1
 331 1120 l 1
EndSplineSet
EndChar
StartChar: braceleft
Encoding: 93 123 95
Width: 1303
Flags: W
HStem: -334 144<777.3 982> 541 143<389 591.914> 1413 143<1065.32 1322>
VStem: 557 190<-164.769 -7.92142> 632 191<317.574 500.001>
Fore
920 -334 m 2xf0
 597 -334 557 -245 557 -112 c 0xf0
 557 -70 563 -21 574 35 c 2
 620 274 l 2
 628 316 632 351 632 382 c 0
 632 498 571 541 422 541 c 2
 361 541 l 1
 389 684 l 1
 450 684 l 2
 634 684 712 747 751 948 c 2
 798 1188 l 2
 826 1335 874 1434 940 1482 c 0
 1006 1532 1121 1556 1287 1556 c 2
 1349 1556 l 1
 1322 1413 l 1
 1254 1413 l 2
 1059 1413 1015 1358 982 1184 c 2
 934 936 l 2
 891 714 811 643 670 612 c 1
 769 587 823 539 823 418 c 0xe8
 823 382 818 338 808 287 c 2
 760 39 l 2
 751 -3 747 -39 747 -68 c 0
 747 -147 774 -190 942 -190 c 2
 1010 -190 l 1
 982 -334 l 1
 920 -334 l 2xf0
EndSplineSet
EndChar
StartChar: bar
Encoding: 94 124 96
Width: 690
Flags: W
VStem: 166 568<-483 1565 -483 -483>
Fore
734 1565 m 1
 336 -483 l 1
 166 -483 l 1
 564 1565 l 1
 734 1565 l 1
EndSplineSet
EndChar
StartChar: braceright
Encoding: 95 125 97
Width: 1303
Flags: W
HStem: -334 144<219 476.079> 541 143<947.516 1152> 1413 143<558 771.191>
VStem: 718 189<724.996 905.131> 793 189<1226.98 1388.26>
Fore
793 1290 m 0xe8
 793 1367 774 1413 601 1413 c 2
 531 1413 l 1
 558 1556 l 1
 621 1556 l 2
 787 1556 894 1532 940 1482 c 0
 968 1452 982 1404 982 1336 c 0xe8
 982 1294 977 1245 966 1188 c 2
 919 948 l 2
 911 908 907 873 907 843 c 0
 907 726 969 684 1118 684 c 2
 1180 684 l 1
 1152 541 l 1
 1090 541 l 2
 906 541 828 477 788 274 c 2
 742 35 l 2
 713 -112 666 -211 601 -260 c 0
 536 -309 420 -334 254 -334 c 2
 191 -334 l 1
 219 -190 l 1
 289 -190 l 2
 479 -190 523 -142 559 39 c 2
 607 287 l 2
 650 509 729 579 871 612 c 1
 771 636 718 682 718 803 c 0xf0
 718 840 723 884 733 936 c 2
 781 1184 l 2
 789 1226 793 1261 793 1290 c 0xe8
EndSplineSet
EndChar
StartChar: asciitilde
Encoding: 96 126 98
Width: 1716
Flags: W
HStem: 492 165<1089.57 1433.27> 627 166<536.437 888.654>
Fore
1269 657 m 0x80
 1412 657 1547 739 1658 817 c 1
 1623 639 l 1
 1497 556 1366 492 1214 492 c 0x80
 1016 492 873 627 697 627 c 0
 554 627 422 550 308 467 c 1
 342 645 l 1
 470 728 600 793 752 793 c 0x40
 968 793 1100 657 1269 657 c 0x80
EndSplineSet
EndChar
StartChar: exclamdown
Encoding: 98 161 100
Width: 821
Flags: W
HStem: 0 21G<309 515.878> 1239 254<599 753>
VStem: 309 493<0 1493 38.4524 258.683>
Fore
753 1239 m 1
 550 1239 l 1
 599 1493 l 1
 802 1493 l 1
 753 1239 l 1
512 0 m 1
 309 0 l 1
 436 655 l 1
 527 1012 l 1
 689 1012 l 1
 639 655 l 1
 512 0 l 1
EndSplineSet
EndChar
StartChar: cent
Encoding: 99 162 101
Width: 1303
Flags: W
HStem: -25 156<560.04 686.159> 987 158<734.867 870 1003 1156.35>
VStem: 265 198<250.001 666.663>
Fore
870 987 m 1
 570 951 463 636 463 430 c 0
 463 261 543 150 703 131 c 1
 870 987 l 1
265 402 m 0
 265 570 344 1095 901 1145 c 1
 956 1432 l 1
 1058 1432 l 1
 1003 1145 l 1
 1113 1139 1198 1112 1268 1077 c 1
 1235 905 l 1
 1170 945 1083 986 973 991 c 1
 805 127 l 1
 916 135 1014 171 1100 213 c 1
 1067 43 l 1
 983 7 889 -19 774 -29 c 1
 719 -313 l 1
 617 -313 l 1
 673 -25 l 1
 411 -3 265 148 265 402 c 0
EndSplineSet
EndChar
StartChar: sterling
Encoding: 100 163 102
Width: 1303
Flags: W
HStem: 0 170<162 398 598 1122> 635 143<317 488 716 1079> 1360 160<916.6 1178.79>
Fore
1106 1520 m 0
 1164 1520 1264 1508 1386 1460 c 1
 1350 1278 l 1
 1219 1358 1127 1360 1093 1360 c 0
 888 1360 810 1258 758 993 c 2
 716 778 l 1
 1107 778 l 1
 1079 635 l 1
 688 635 l 1
 598 170 l 1
 1155 170 l 1
 1122 0 l 1
 129 0 l 1
 162 170 l 1
 398 170 l 1
 488 635 l 1
 289 635 l 1
 317 778 l 1
 516 778 l 1
 562 1016 l 2
 626 1345 782 1520 1106 1520 c 0
EndSplineSet
EndChar
StartChar: currency
Encoding: 101 164 103
Width: 1303
Flags: W
HStem: 215 158<585.245 880.712> 909 158<671.642 972.046> 1182 20G<1308.27 1347.83>
VStem: 345 157<478.12 741.786> 1052 159<541.865 806.759>
Fore
345 567 m 0
 345 705 417 812 473 877 c 1
 307 1083 l 1
 444 1198 l 1
 611 991 l 1
 679 1034 760 1067 860 1067 c 0
 958 1067 1032 1030 1084 993 c 1
 1332 1202 l 1
 1423 1087 l 1
 1177 881 l 1
 1203 819 1211 764 1211 719 c 0
 1211 594 1155 490 1080 406 c 1
 1249 199 l 1
 1113 86 l 1
 946 293 l 1
 872 249 789 215 695 215 c 0
 599 215 525 251 470 289 c 1
 223 82 l 1
 132 197 l 1
 379 403 l 1
 361 447 345 503 345 567 c 0
830 909 m 0
 660 909 502 761 502 588 c 0
 502 459 597 373 726 373 c 256
 903 373 1052 531 1052 697 c 0
 1052 819 966 909 830 909 c 0
EndSplineSet
EndChar
StartChar: yen
Encoding: 102 165 104
Width: 1303
Flags: W
HStem: 0 21G<551 755.868> 455 123<247 639 862 1253> 784 123<311 575 1077 1317> 1473 20G<372 568.943 1303.34 1509>
Fore
1253 455 m 1
 840 455 l 1
 752 0 l 1
 551 0 l 1
 639 455 l 1
 223 455 l 1
 247 578 l 1
 663 578 l 1
 673 629 l 1
 619 784 l 1
 287 784 l 1
 311 907 l 1
 575 907 l 1
 372 1493 l 1
 562 1493 l 1
 805 793 l 1
 1318 1493 l 1
 1509 1493 l 1
 1077 907 l 1
 1341 907 l 1
 1317 784 l 1
 986 784 l 1
 872 629 l 1
 862 578 l 1
 1277 578 l 1
 1253 455 l 1
EndSplineSet
EndChar
StartChar: brokenbar
Encoding: 103 166 105
Width: 690
Flags: W
VStem: 192 516<-350 1432 725.522 1465.28>
Fore
509 408 m 1
 362 -350 l 1
 192 -350 l 1
 339 408 l 1
 509 408 l 1
708 1432 m 1
 561 674 l 1
 391 674 l 1
 538 1432 l 1
 708 1432 l 1
EndSplineSet
EndChar
StartChar: section
Encoding: 104 167 106
Width: 1024
Flags: W
HStem: -195 144<254.941 622.053> 1376 144<650.244 1010.91>
VStem: 227 171<615.086 827.607> 391 187<1117.66 1308.8> 703 188<23.6867 225.271> 887 170<518.936 728.354>
Fore
561 936 m 1xe4
 448 864 398 798 398 721 c 0
 398 620 500 545 723 410 c 1
 823 472 887 541 887 628 c 0
 887 705 824 777 561 936 c 1xe4
391 1175 m 0xd0
 391 1313 507 1520 819 1520 c 0
 933 1520 1034 1493 1113 1462 c 1
 1081 1298 l 1
 1046 1317 927 1376 814 1376 c 0
 626 1376 578 1261 578 1209 c 0
 578 1153 635 1090 746 1020 c 2
 782 997 l 2
 973 876 1057 796 1057 680 c 0xd4
 1057 565 992 432 811 340 c 1
 851 300 891 245 891 166 c 0
 891 21 770 -195 449 -195 c 0
 331 -195 226 -165 145 -137 c 1
 177 27 l 1
 215 9 338 -51 455 -51 c 0
 639 -51 703 56 703 128 c 0
 703 191 643 259 524 334 c 2
 502 348 l 2
 310 468 227 546 227 664 c 0xe8
 227 779 291 918 472 1006 c 1
 426 1045 391 1098 391 1175 c 0xd0
EndSplineSet
EndChar
StartChar: dieresis
Encoding: 105 168 107
Width: 1024
Flags: W
HStem: 1350 202<517 680 908 1071 477 1111 517 517>
Fore
908 1552 m 1
 1111 1552 l 1
 1071 1350 l 1
 868 1350 l 1
 908 1552 l 1
517 1552 m 1
 720 1552 l 1
 680 1350 l 1
 477 1350 l 1
 517 1552 l 1
EndSplineSet
EndChar
StartChar: copyright
Encoding: 106 169 108
Width: 2048
Flags: W
HStem: 0 102<817.398 1275.98> 289 119<974.266 1222.15> 1073 119<1084.08 1428.86> 1382 103<1061.77 1519.29>
VStem: 413 101<399.416 849.804> 715 165<501.728 850.948> 1820 103<633.721 1083.78>
Fore
413 598 m 0
 413 1057 848 1485 1313 1485 c 256
 1674 1485 1923 1226 1923 885 c 0
 1923 427 1492 0 1024 0 c 256
 663 0 413 257 413 598 c 0
1044 102 m 0
 1463 102 1820 473 1820 870 c 0
 1820 1166 1609 1382 1293 1382 c 0
 876 1382 514 1011 514 613 c 0
 514 317 728 102 1044 102 c 0
715 630 m 0
 715 881 883 1192 1281 1192 c 0
 1363 1192 1451 1179 1544 1137 c 1
 1519 1008 l 1
 1455 1043 1375 1073 1270 1073 c 0
 958 1073 880 790 880 650 c 0
 880 494 975 408 1150 408 c 0
 1207 408 1291 415 1415 473 c 1
 1390 346 l 1
 1281 302 1187 289 1105 289 c 0
 855 289 715 418 715 630 c 0
EndSplineSet
EndChar
StartChar: ordfeminine
Encoding: 107 170 109
Width: 965
Flags: W
HStem: 469 123<254 918> 698 119<471.344 722.451> 1104 115<516.61 891> 1405 115<493.845 877.03>
VStem: 230 833<469 1272 165.078 210.307> 294 151<847.137 1037.83> 918 145<1219.63 1362.51>
Fore
254 592 m 1xf8
 942 592 l 1
 918 469 l 1xf2
 230 469 l 1
 254 592 l 1xf8
913 1219 m 1
 915 1228 918 1248 918 1267 c 0xf6
 918 1366 839 1405 715 1405 c 0
 614 1405 514 1372 436 1337 c 1
 461 1464 l 1
 545 1494 651 1520 758 1520 c 0
 924 1520 1063 1468 1063 1272 c 0xf8
 1063 1240 1059 1205 1051 1165 c 2
 964 717 l 1
 815 717 l 1
 837 829 l 1
 795 782 700 698 531 698 c 0
 385 698 294 769 294 892 c 0xf4
 294 1002 354 1219 731 1219 c 2
 913 1219 l 1
764 1104 m 2
 584 1104 445 1075 445 931 c 0
 445 861 501 817 601 817 c 0
 741 817 855 923 885 1075 c 2
 891 1104 l 1
 764 1104 l 2
EndSplineSet
EndChar
StartChar: guillemotleft
Encoding: 108 171 110
Width: 1253
Flags: W
HStem: 141 918<1088 1267 1267 1267>
VStem: 267 1000<559 1059 559 559>
Fore
1267 1059 m 1
 1230 868 l 1
 877 600 l 1
 1126 332 l 1
 1088 141 l 1
 701 559 l 1
 717 641 l 1
 1267 1059 l 1
833 1059 m 1
 796 868 l 1
 443 600 l 1
 692 332 l 1
 654 141 l 1
 267 559 l 1
 283 641 l 1
 833 1059 l 1
EndSplineSet
EndChar
StartChar: logicalnot
Encoding: 109 172 111
Width: 1716
Flags: W
HStem: 692 170<385 1466>
Fore
385 862 m 1
 1667 862 l 1
 1555 287 l 1
 1387 287 l 1
 1466 692 l 1
 352 692 l 1
 385 862 l 1
EndSplineSet
EndChar
StartChar: uni00AD
Encoding: 110 173 112
Width: 739
Flags: W
HStem: 479 164<225 732 225 732 225 225>
Fore
225 643 m 1
 764 643 l 1
 732 479 l 1
 193 479 l 1
 225 643 l 1
EndSplineSet
EndChar
StartChar: registered
Encoding: 111 174 113
Width: 2048
Flags: W
HStem: 0 102<818.99 1279.5> 694 101<1029 1177.32> 1071 103<1082 1360.13> 1382 103<1056.5 1510.38>
VStem: 413 102<410.63 852.081> 1379 163<888.411 1048.34> 1819 104<638.663 1079.83>
Fore
1044 102 m 0
 1435 102 1819 464 1819 862 c 0
 1819 1155 1602 1382 1293 1382 c 0
 895 1382 515 1011 515 622 c 0
 515 328 735 102 1044 102 c 0
413 598 m 0
 413 1057 848 1485 1313 1485 c 256
 1674 1485 1923 1226 1923 885 c 0
 1923 427 1492 0 1024 0 c 256
 663 0 413 257 413 598 c 0
1152 795 m 2
 1246 795 1379 808 1379 971 c 0
 1379 1050 1316 1071 1205 1071 c 2
 1082 1071 l 1
 1029 795 l 1
 1152 795 l 2
1542 988 m 0
 1542 937 1521 757 1293 719 c 1
 1325 708 1360 651 1399 561 c 2
 1493 338 l 1
 1321 338 l 1
 1232 547 l 2
 1188 653 1160 694 1075 694 c 2
 1009 694 l 1
 940 338 l 1
 785 338 l 1
 947 1174 l 1
 1232 1174 l 2
 1457 1174 1542 1102 1542 988 c 0
EndSplineSet
EndChar
StartChar: macron
Encoding: 112 175 114
Width: 1024
Flags: W
HStem: 1378 148<510 1079 510 1079 510 510>
Fore
510 1526 m 1
 1108 1526 l 1
 1079 1378 l 1
 481 1378 l 1
 510 1526 l 1
EndSplineSet
EndChar
StartChar: degree
Encoding: 113 176 115
Width: 1024
Flags: W
HStem: 885 127<592.89 841.976> 1391 129<651.727 895.902>
VStem: 421 130<1055.76 1288.5> 939 130<1113.86 1347.44>
Fore
709 1012 m 256
 838 1012 939 1125 939 1238 c 0
 939 1327 874 1391 782 1391 c 0
 653 1391 551 1275 551 1163 c 0
 551 1077 612 1012 709 1012 c 256
421 1133 m 0
 421 1337 601 1520 807 1520 c 0
 951 1520 1069 1421 1069 1266 c 0
 1069 1070 895 885 682 885 c 0
 522 885 421 988 421 1133 c 0
EndSplineSet
EndChar
StartChar: plusminus
Encoding: 114 177 116
Width: 1716
Flags: W
HStem: 0 170<250 1499> 727 170<391 915 1116 1640>
Fore
1192 1284 m 1
 1116 897 l 1
 1673 897 l 1
 1640 727 l 1
 1083 727 l 1
 1008 340 l 1
 840 340 l 1
 915 727 l 1
 358 727 l 1
 391 897 l 1
 948 897 l 1
 1024 1284 l 1
 1192 1284 l 1
250 170 m 1
 1532 170 l 1
 1499 0 l 1
 217 0 l 1
 250 170 l 1
EndSplineSet
EndChar
StartChar: uni00B2
Encoding: 115 178 117
Width: 821
Flags: W
HStem: 668 114<420 822> 1411 109<422.245 752.702>
VStem: 784 155<1197.08 1377.84>
Fore
662 1520 m 0
 837 1520 939 1443 939 1325 c 0
 939 1231 878 1119 522 857 c 2
 420 782 l 1
 844 782 l 1
 822 668 l 1
 224 668 l 1
 245 778 l 1
 359 865 l 2
 737 1150 784 1231 784 1292 c 0
 784 1364 723 1411 620 1411 c 0
 522 1411 410 1363 361 1341 c 1
 385 1464 l 1
 439 1482 555 1520 662 1520 c 0
EndSplineSet
EndChar
StartChar: uni00B3
Encoding: 116 179 118
Width: 821
Flags: W
HStem: 653 109<328.065 665.076> 1061 108<487 714.855> 1411 109<559.252 778.482>
VStem: 745 154<833.809 1027.62> 798 155<1218.98 1384.4>
Fore
953 1340 m 0xe8
 953 1252 894 1152 742 1120 c 1
 833 1101 899 1049 899 956 c 0
 899 835 810 653 477 653 c 0
 427 653 348 659 233 694 c 1
 256 815 l 1
 315 781 389 762 484 762 c 0
 693 762 745 870 745 943 c 0xf0
 745 1015 689 1061 552 1061 c 2
 466 1061 l 1
 487 1169 l 1
 581 1169 l 2
 759 1169 798 1257 798 1315 c 0
 798 1388 718 1411 624 1411 c 0
 579 1411 520 1404 393 1370 c 1
 416 1485 l 1
 546 1514 627 1520 678 1520 c 0
 880 1520 953 1433 953 1340 c 0xe8
EndSplineSet
EndChar
StartChar: acute
Encoding: 117 180 119
Width: 1024
Flags: W
HStem: 1262 376<769 969 969 969>
Fore
969 1638 m 1
 1168 1638 l 1
 769 1262 l 1
 616 1262 l 1
 969 1638 l 1
EndSplineSet
EndChar
StartChar: mu
Encoding: 118 181 120
Width: 1303
Flags: W
HStem: -426 21G<91 278.906> -29 160<497.976 824.789 1079.02 1254.54> 1100 20G<388.106 576 1142.11 1330>
Fore
639 -29 m 0
 467 -29 408 55 383 127 c 1
 275 -426 l 1
 91 -426 l 1
 392 1120 l 1
 576 1120 l 1
 440 424 l 2
 434 392 431 362 431 335 c 0
 431 203 504 131 656 131 c 0
 834 131 971 222 1019 467 c 2
 1146 1120 l 1
 1330 1120 l 1
 1162 258 l 2
 1159 239 1156 222 1156 206 c 0
 1156 167 1170 141 1211 141 c 0
 1225 141 1256 153 1285 164 c 1
 1256 16 l 1
 1212 -6 1158 -29 1098 -29 c 0
 998 -29 962 32 963 129 c 1
 886 36 784 -29 639 -29 c 0
EndSplineSet
EndChar
StartChar: paragraph
Encoding: 119 182 121
Width: 1303
Flags: W
HStem: 1370 123<1016 1206>
VStem: 356 1015<977 1493 977 1493 977 977>
Fore
356 977 m 0
 356 1220 545 1493 923 1493 c 2
 1371 1493 l 1
 1043 -197 l 1
 902 -197 l 1
 1206 1370 l 1
 1016 1370 l 1
 712 -197 l 1
 570 -197 l 1
 734 649 l 1
 495 668 356 782 356 977 c 0
EndSplineSet
EndChar
StartChar: periodcentered
Encoding: 120 183 122
Width: 651
Flags: W
HStem: 584 254<382 544 333 593 382 382>
Fore
382 838 m 1
 593 838 l 1
 544 584 l 1
 333 584 l 1
 382 838 l 1
EndSplineSet
EndChar
StartChar: cedilla
Encoding: 121 184 123
Width: 1024
Flags: W
HStem: -395 123<305.577 506.389> -20 20G<477 617.5>
VStem: 532 134<-245.513 -75.8032>
Fore
393 -272 m 0
 507 -272 532 -202 532 -157 c 0
 532 -122 518 -75 477 0 c 1
 596 0 l 1
 639 -61 666 -121 666 -180 c 0
 666 -251 628 -395 390 -395 c 0
 324 -395 270 -386 219 -371 c 1
 244 -240 l 1
 294 -267 346 -272 393 -272 c 0
EndSplineSet
EndChar
StartChar: uni0E01
Encoding: 224 3585 124
Width: 1340
Flags: W
HStem: 0 21G<200 387.871 964 1149.89> 1072 160<632.293 1036.62>
VStem: 1108 185<719.136 740 756 776.265 776.265 835.426 805.846 989.339>
Back
104.5 1046.5 m 13
 105 843.5 l 5
 342.5 751 l 5
 288.061 723.613 245.584 681.353 215.068 624.22 c 132
 184.527 567.041 169.269 510.968 169.294 456 c 6
 169.5 0 l 5
 354.5 0 l 5
 354.294 456 l 6
 354.27 508.919 368.377 554.728 396.614 593.427 c 132
 424.827 632.084 463.456 660.609 512.5 679 c 5
 512 826.5 l 5
 260.608 940.811 l 5
 309.117 977.608 365.992 1007.49 431.233 1030.45 c 132
 496.474 1053.41 563.563 1064.26 632.5 1063 c 4
 733.784 1061.2 809.272 1033.41 858.963 979.636 c 132
 908.654 925.863 933.5 842.985 933.5 731 c 6
 933.5 0 l 5
 1116.5 0 l 5
 1116.5 747 l 6
 1116.5 905.919 1071.32 1025.04 980.974 1104.37 c 132
 890.623 1183.69 774.465 1223.23 632.5 1223 c 4
 533.315 1222.84 439.217 1208.91 350.205 1181.2 c 132
 261.193 1153.49 179.291 1108.59 104.5 1046.5 c 13
EndSplineSet
Fore
339 1056 m 17
 397 1097 586 1232 905 1232 c 0
 1085 1232 1306 1158 1306 881 c 0
 1306 843 1302 802 1293 756 c 2
 1146 0 l 1
 964 0 l 1
 1108 740 l 2
 1115 777 1120 814 1120 847 c 0
 1120 977 1057 1072 859 1072 c 0
 715 1072 573 1015 476 950 c 1
 705 836 l 1
 676 688 l 1
 581 654 497 579 474 465 c 2
 384 0 l 1
 200 0 l 1
 292 472 l 2
 305 542 377 694 520 760 c 1
 302 862 l 1
 339 1056 l 17
EndSplineSet
EndChar
StartChar: uni0E02
Encoding: 225 3586 125
Width: 1220
Flags: W
HStem: 0 154<560 868.422> 761 106<369.913 508.276> 1085 135<593.678 673.468>
VStem: 252.867 114.806<871.007 969.831> 523.103 115.476<881.942 1013.12> 706.973 184.324<859.871 1053.57>
Back
1315 927 m 132
 1315 953.667 1324.33 976.333 1343 995 c 132
 1361.67 1013.67 1384.33 1023 1411 1023 c 132
 1437.67 1023 1460.33 1013.67 1479 995 c 132
 1497.67 976.333 1507 953.667 1507 927 c 132
 1507 900.333 1497.67 877.667 1479 859 c 132
 1460.33 840.333 1437.67 831 1411 831 c 132
 1384.33 831 1361.67 840.333 1343 859 c 132
 1324.33 877.667 1315 900.333 1315 927 c 132
1303.5 1118.5 m 132
 1243.83 1062.83 1215.67 999 1219 927 c 4
 1221.67 871.667 1241.17 825.833 1277.5 789.5 c 132
 1313.83 753.167 1358.33 735 1411 735 c 132
 1463.67 735 1508.83 753.833 1546.5 791.5 c 132
 1584.17 829.167 1603 874.333 1603 927 c 260
 1603 987 1584.33 1032 1547 1062 c 5
 1595 1058.67 1631.5 1039.17 1656.5 1003.5 c 132
 1681.39 967.833 1693.55 934.333 1693 903 c 4
 1691.91 856.779 1684.07 820.752 1669.46 794.919 c 132
 1654.86 769.086 1631.47 735.808 1599.28 695.085 c 132
 1567.09 654.362 1542.33 610 1525 562 c 132
 1507.67 514 1499 468.333 1499 425 c 6
 1499 0 l 5
 1917 0 l 6
 2014.33 0 2084 19.5 2126 58.5 c 132
 2168.05 97.564 2189.05 142.731 2189 194 c 6
 2188 1202 l 5
 1998 1202 l 5
 1998 261 l 6
 1998 227.667 1989.83 202.5 1973.5 185.5 c 132
 1957.17 168.5 1932.33 160 1899 160 c 6
 1691 160 l 5
 1691 425 l 6
 1691 464.403 1696.51 500.743 1707.54 534.021 c 132
 1718.57 567.299 1741.07 605.615 1775.04 648.97 c 132
 1809.01 692.323 1832.17 731 1844.5 765 c 132
 1856.83 799 1863 839 1863 885 c 4
 1861.67 981.667 1827 1059 1759 1117 c 132
 1691 1175 1613 1203.67 1525 1203 c 132
 1437 1202.33 1363.17 1174.17 1303.5 1118.5 c 132
564 875 m 0
 564 926.333 549.167 970.333 519.5 1007 c 128
 489.833 1043.67 446.333 1064 389 1068 c 1
 412.333 1056 430.833 1037.33 444.5 1012 c 128
 458.167 986.667 465 956.333 465 921 c 0
 465 874.333 447.5 832.833 412.5 796.5 c 128
 377.5 760.167 334 742.667 282 744 c 0
 225.333 745.333 179 763.5 143 798.5 c 128
 107 833.5 88.6667 877.667 88 931 c 0
 86.6667 1005.67 115.333 1069.67 174 1123 c 128
 232.667 1176.33 306.667 1203 396 1203 c 128
 485.333 1203 563.665 1174.12 630.995 1116.36 c 128
 698.325 1058.61 732.66 981.487 734 885 c 0
 734.667 837 729.5 796.167 718.5 762.5 c 128
 707.5 728.833 683.167 689 645.5 643 c 128
 607.833 597 583.5 557.667 572.5 525 c 128
 561.5 492.333 556 459 556 425 c 2
 556 154 l 9
 761 154 l 2
 794.333 154 819.167 162.5 835.5 179.5 c 128
 851.833 196.5 860 221.667 860 255 c 2
 860 1202 l 1
 1039 1202 l 1
 1040 194 l 2
 1040.05 142.649 1019.05 97.482 977 58.5 c 128
 935 19.5 865.333 0 768 0 c 2
 367 0 l 1
 366 425 l 18
 365.841 492.331 374.135 545.331 390.881 584 c 128
 407.627 622.667 435.381 664.314 474.143 708.943 c 128
 512.905 753.571 537.465 785.898 547.823 805.925 c 128
 558.182 825.952 563.574 848.977 564 875 c 0
281.5 999.5 m 152
 260.5 999.833 242.167 993 226.5 979 c 128
 210.833 965 202.667 947.5 202 926.5 c 128
 201.333 905.5 208.333 887.667 223 873 c 128
 237.667 858.333 255.5 850.833 276.5 850.5 c 128
 297.5 850.167 315.5 857 330.5 871 c 128
 345.5 885 353.333 902.333 354 923 c 128
 354.667 943.667 348 961.5 334 976.5 c 128
 320 991.5 302.5 999.167 281.5 999.5 c 152
EndSplineSet
Fore
252.867 911.043 m 0
 252.867 1055.16 405.127 1220 613 1220 c 0
 809.748 1220 891.297 1088.89 891.297 965.873 c 0
 891.297 911.793 878.201 836.767 785 716 c 2
 715 623 l 2
 682 579 625 490 608 402 c 2
 560 154 l 1
 775 154 l 2
 842 154 883 190 896 258 c 2
 1080 1202 l 25
 1262 1202 l 9
 1066 196 l 2
 1041 65 932 0 740 0 c 2
 341 0 l 1
 429 452 l 2
 445 535 488 607 532 658 c 2
 601 735 l 2
 630.69 767.659 706.973 852.638 706.973 950.002 c 0
 706.973 1031.14 654.222 1082.4 585 1085 c 1
 618.871 1058.66 638.579 1040.81 638.579 994.361 c 0
 638.579 841.479 494.708 761 419 761 c 0
 328.913 761 252.867 811.703 252.867 911.043 c 0
523.103 957.4 m 0
 523.103 991.228 497.544 1016 460 1016 c 0
 414 1016 376 975 369 940 c 0
 368.105 935.415 367.673 930.943 367.673 926.615 c 0
 367.673 892.243 394.92 867 434 867 c 0
 480.941 867 523.103 912.07 523.103 957.4 c 0
EndSplineSet
EndChar
StartChar: uni0E03
Encoding: 226 3587 126
Width: 1310
Flags: MW
HStem: 0 154<664 971.422> 637 108<371.945 509.354> 894 107<431.733 522.003> 1088 138<511 554>
VStem: 240 129<762.876 876.587> 523 114<757.66 879.492> 826 177<858.63 1079.62>
Fore
465 894 m 0
 410 894 369 845 369 805 c 0
 369 780 384 745 435 745 c 0
 487 745 523 792 523 837 c 0
 523 867 506 894 465 894 c 0
637 855 m 0
 637 729 506 637 406 637 c 0
 358 637 240 658 240 822 c 0
 240 1015 375 1180 554 1226 c 1
 659 1159 l 1
 791 1221 l 1
 928 1195 1003 1082 1003 960 c 0
 1003 910 993 828 894 711 c 2
 821 623 l 2
 783 574 730 494 713 408 c 2
 664 154 l 1
 873 154 l 2
 944 154 986 189 999 258 c 2
 1183 1202 l 1
 1365 1202 l 1
 1169 196 l 18
 1144 65 1035 0 843 0 c 2
 444 0 l 1
 533 458 l 2
 549 538 591 608 640 659 c 2
 710 730 l 2
 768 788 826 873 826 969 c 0
 826 1023 805 1066 773 1086 c 1
 629 1026 l 1
 511 1088 l 1
 459 1065 427 1032 413 987 c 1
 413 987 484 1001 489 1001 c 0
 597 1001 637 927 637 855 c 0
EndSplineSet
EndChar
StartChar: uni0E04
Encoding: 227 3588 127
Width: 1340
Flags: MW
HStem: 0 21G<205 405.678 973 1160.89> 461 132<698.346 830.292> 737 132<709.25 842.196> 1072 160<658.491 1043.36>
VStem: 281 186<686 745> 844 134<606.232 735.173> 1129 186<780.396 990.968>
Back
378 0 m 1
 195 0 l 1
 118 757.885 l 2
 114.361 793.704 119.893 837.177 134.597 888.306 c 128
 149.301 939.435 170.495 984.893 198.178 1024.68 c 128
 225.861 1064.47 259.635 1099.06 299.502 1128.46 c 128
 339.369 1157.85 388.133 1181.11 445.794 1198.22 c 128
 503.455 1215.33 566.857 1223.89 636 1223.89 c 0
 702.043 1223.89 762.777 1215.34 818.203 1198.25 c 128
 873.629 1181.15 920.64 1157.9 959.237 1128.5 c 128
 997.832 1099.09 1030.61 1064.57 1057.56 1024.92 c 128
 1084.51 985.266 1104.53 942.348 1117.6 896.166 c 128
 1130.67 849.984 1137.14 778.262 1137 681 c 2
 1136 0 l 1
 953 0 l 1
 953 742.886 l 2
 953 790.849 947.445 833.726 936.336 871.518 c 128
 925.227 909.31 907.743 942.916 883.882 972.335 c 128
 860.022 1001.75 827.528 1024.37 786.399 1040.18 c 128
 745.27 1055.99 696.47 1063.89 640 1063.89 c 0
 581.045 1063.89 528.983 1055.49 483.814 1038.7 c 128
 438.645 1021.91 402.527 998.627 375.46 968.862 c 128
 348.393 939.099 328.636 904.599 316.191 865.363 c 128
 303.746 826.126 299.015 783.301 302 736.886 c 2
 322 425.886 l 1
 328.235 443.701 335.915 472.139 345.039 511.202 c 128
 354.162 550.264 364.249 586.669 375.3 620.417 c 128
 386.351 654.166 399.917 683.322 416 707.886 c 0
 437.563 740.819 457.847 767.295 476.853 787.314 c 128
 495.858 807.333 519.962 824.225 549.164 837.99 c 128
 578.366 851.755 611.332 858.868 648.062 859.329 c 0
 699.763 859.978 743.276 842.361 778.6 806.479 c 128
 813.925 770.597 832.225 727.399 833.5 676.886 c 0
 834.801 625.394 816.578 582.521 778.832 548.267 c 0
 742.602 515.388 700.325 498.261 652 496.886 c 0
 623.076 496.063 598.964 498.883 579.663 505.346 c 128
 560.363 511.809 546.042 519.594 536.699 528.7 c 128
 527.356 537.805 516.79 551.201 505 568.886 c 1
 442.333 437.629 400 248 378 0 c 1
649 600.886 m 24
 669.922 600.886 687.952 607.934 703.089 622.031 c 128
 718.226 636.128 725.863 653.413 726 673.886 c 0
 726.14 694.812 718.756 712.71 703.848 727.581 c 128
 688.94 742.451 670.991 749.886 650 749.886 c 128
 629.074 749.886 611.211 742.467 596.411 727.629 c 128
 581.611 712.791 574.141 694.877 574 673.886 c 0
 573.865 653.631 581.188 636.4 595.971 622.194 c 128
 610.754 607.989 628.43 600.886 649 600.886 c 24
EndSplineSet
Fore
978 705 m 0
 978 576 860 461 731 461 c 0
 675 461 630 481 598 521 c 9
 398 0 l 17
 205 0 l 1
 281 686 l 2
 298 867 404 1232 895 1232 c 0
 1220 1232 1315 1022 1315 882 c 0
 1315 836 1307 772 1291 689 c 2
 1157 0 l 1
 973 0 l 1
 1119 751 l 2
 1125 783 1129 815 1129 846 c 0
 1129 970 1069 1072 868 1072 c 0
 519 1072 477 796 467 745 c 2
 356 168 l 1
 403 317 540 713 634 800 c 0
 683 846 743 869 810 869 c 0
 910 869 978 799 978 705 c 0
756 593 m 0
 804 593 844 636 844 680 c 0
 844 715 817 737 784 737 c 0
 737 737 697 695 697 651 c 0
 697 616 722 593 756 593 c 0
EndSplineSet
EndChar
StartChar: uni0E05
Encoding: 228 3589 128
Width: 1340
Flags: MW
HStem: 0 21G<225 437.5 981 1167.9> 450 132<707.102 836.871> 726 132<718.474 849.589> 958 134<876 876 876 886 819 876>
VStem: 302 179<779 800> 851 135<594.785 724.14> 1134 186<764.195 785 801 818.806 818.806 832.551 825.678 1036.1>
Fore
764 582 m 0
 812 582 851 625 851 668 c 0
 851 703 826 726 792 726 c 0
 745 726 705 684 705 640 c 0
 705 605 730 582 764 582 c 0
986 694 m 0
 986 563 864 450 738 450 c 256
 682 450 638 470 606 510 c 1
 533 393 467 223 408 0 c 1
 225 0 l 1
 302 800 l 2
 317 982 474 1171 715 1243 c 1
 876 1092 l 1
 1089 1243 l 1
 1228 1195 1330 1079 1330 901 c 0
 1330 870 1327 836 1320 801 c 2
 1164 0 l 1
 981 0 l 1
 1134 785 l 2
 1141 823 1145 858 1145 890 c 0
 1145 979 1115 1040 1056 1072 c 1
 886 958 l 1
 819 958 l 1
 689 1072 l 1
 519 989 486 827 481 779 c 2
 441 447 l 1
 452 506 597 858 818 858 c 0
 918 858 986 788 986 694 c 0
EndSplineSet
EndChar
StartChar: uni0E06
Encoding: 229 3590 129
Width: 1360
Flags: MW
HStem: -10 142<319.731 452.897> 276 143<333.024 463.237> 637 108<351.71 489.354> 894 107<411.733 502.003> 1088 138<491 534>
VStem: 183 135<135.205 262.142> 219 130<763.932 874.611> 503 114<757.66 879.492> 806 177<858.63 1079.62>
Fore
183 156 m 0
 183 293 303 419 437 419 c 0
 454 419 478 419 504 414 c 9
 513 458 l 2
 529 538 571 608 620 659 c 2
 690 730 l 2
 748 788 806 873 806 969 c 0
 806 1023 785 1066 753 1086 c 1
 609 1026 l 1
 491 1088 l 1
 439 1065 407 1032 393 987 c 1
 393 987 464 1001 469 1001 c 0
 577 1001 617 927 617 855 c 0
 617 729 486 637 386 637 c 0
 328 637 219 672 219 817 c 0
 219 1014 352 1180 534 1226 c 1
 639 1159 l 1
 771 1221 l 1
 908 1195 983 1082 983 960 c 0
 983 910 973 828 874 711 c 2
 804 626 l 2
 767 579 710 495 693 408 c 10
 688 379 l 17
 816 341 932 286 1030 215 c 1
 1222 1202 l 1
 1404 1202 l 1
 1170 0 l 1
 980 0 l 1
 888 99 781 173 658 224 c 1
 639 130 554 -10 350 -10 c 0
 257 -10 183 51 183 156 c 0
445 894 m 0
 390 894 349 845 349 805 c 0
 349 780 364 745 415 745 c 0
 467 745 503 792 503 837 c 0
 503 867 486 894 445 894 c 0
378 132 m 0
 425 132 465 174 465 218 c 0
 465 253 440 276 406 276 c 0
 358 276 318 233 318 189 c 0
 318 154 345 132 378 132 c 0
EndSplineSet
EndChar
StartChar: uni0E07
Encoding: 230 3591 130
Width: 1050
Flags: W
HStem: 0 21G<563 833.884> 804 132<714.411 800.39> 1080 132<727.129 857.433>
VStem: 578 135<937.86 1067.22> 859 164<961.474 1076.98>
Back
586 922.902 m 24
 606.922 922.902 624.952 929.95 640.089 944.047 c 128
 655.226 958.143 662.863 975.427 663 995.9 c 0
 663.14 1016.83 655.756 1034.73 640.849 1049.6 c 128
 625.941 1064.47 607.991 1071.9 587 1071.9 c 128
 566.073 1071.9 548.21 1064.48 533.411 1049.64 c 128
 518.611 1034.81 511.141 1016.89 511 995.9 c 0
 510.864 975.647 518.188 958.417 532.971 944.211 c 128
 547.754 930.005 565.431 922.902 586 922.902 c 24
643.821 800.898 m 9
 644 300 l 1
 533.615 462.551 369.225 616.185 150.83 760.902 c 1
 91.8301 640.902 l 1
 161.415 591.613 249.587 500.398 356.346 367.257 c 128
 463.105 234.117 548.989 111.698 614 0 c 1
 830 0 l 1
 829.83 952.902 l 18
 829.816 1031.37 807.581 1092.59 763.126 1136.57 c 128
 718.671 1180.55 666.629 1202.66 607 1202.9 c 0
 539.959 1203.17 484.759 1184.44 441.401 1146.7 c 128
 398.044 1108.96 376.91 1056.03 378 987.9 c 0
 378.944 928.91 400.033 881.907 441.267 846.892 c 128
 482.501 811.877 529.412 794.214 582 793.902 c 0
 608.445 793.745 629.052 796.077 643.821 800.898 c 9
EndSplineSet
Fore
772 936 m 0
 820 936 859 979 859 1022 c 0
 859 1057 834 1080 800 1080 c 0
 752 1080 713 1037 713 994 c 0
 713 959 738 936 772 936 c 0
578 968 m 0
 578 1099 700 1212 826 1212 c 0
 966 1212 1023 1122 1023 1020 c 0
 1023 1001 1021 982 1017 963 c 10
 830 0 l 1
 604 0 l 1
 522 204 400 476 217 641 c 1
 299 761 l 1
 462 633 611 479 702 300 c 1
 801 807 l 17
 799 805 781 804 746 804 c 0
 646 804 578 874 578 968 c 0
EndSplineSet
EndChar
StartChar: uni0E08
Encoding: 231 3592 131
Width: 1140
Flags: W
HStem: 0 21G<680 872.534> 449 126<443.469 582.405> 724 126<457.176 592.794> 1076 156<431.935 861.533>
VStem: 308 133<577.923 710.155> 692 122<239.633 521.916> 949 188<819.907 996.646>
Back
946 723 m 10
 946 0 l 1
 760 0 l 1
 733.333 128 702.43 240.5 667.289 337.5 c 128
 632.148 434.5 596.219 497.333 559.5 526 c 1
 551.876 509.725 535.543 492.841 510.502 475.348 c 128
 485.461 457.855 448.96 449.093 401 449.06 c 8
 341.135 449.019 292.545 467.128 255.23 503.388 c 128
 217.915 539.648 198.505 585.872 197 642.06 c 0
 195.275 706.452 215.318 757.164 257.129 794.196 c 128
 298.94 831.229 353.23 849.517 420 849.06 c 0
 469.687 849.043 512.608 836.528 548.765 811.517 c 128
 584.922 786.506 614.345 759.895 637.036 731.685 c 128
 659.726 703.475 684.061 665.912 710.041 618.996 c 128
 736.021 572.081 753.341 529.749 762 492 c 1
 762 810 l 2
 762 894.667 734.167 960.167 678.5 1006.5 c 128
 622.833 1052.83 544.667 1076 444 1076 c 0
 380 1076 317.667 1068.33 257 1053 c 128
 196.333 1037.67 138 1014.67 82 984 c 1
 82 1154 l 1
 149.333 1180 214.667 1199.5 278 1212.5 c 128
 341.333 1225.5 403 1232 463 1232 c 0
 625 1232 746 1190 826 1106 c 128
 906 1022 946 894.333 946 723 c 10
401 575.06 m 24
 421.922 575.06 439.952 582.108 455.089 596.205 c 128
 470.226 610.302 477.863 627.587 478 648.06 c 0
 478.14 668.986 470.756 686.884 455.848 701.755 c 128
 440.94 716.625 422.991 724.06 402 724.06 c 128
 381.074 724.06 363.211 716.641 348.411 701.803 c 128
 333.611 686.965 326.141 669.051 326 648.06 c 0
 325.865 627.804 333.188 610.573 347.971 596.368 c 128
 362.754 582.163 380.43 575.06 401 575.06 c 24
EndSplineSet
Fore
308 603 m 0
 308 740 421 850 566 850 c 0
 657 850 746 804 780 707 c 0
 800 650 816 537 816 406 c 0
 816 380 815 353 814 326 c 1
 939 810 l 2
 945 829 949 856 949 878 c 0
 949 1007 836 1076 673 1076 c 0
 564 1076 434 1053 293 984 c 1
 326 1154 l 1
 422 1188 570 1232 722 1232 c 0
 1021 1232 1137 1064 1137 894 c 0
 1137 841 1127 795 1112 753 c 10
 866 0 l 1
 680 0 l 1
 688 79 692 152 692 220 c 0
 692 330 680 429 652 526 c 1
 620 477 549 449 481 449 c 0
 393 449 308 496 308 603 c 0
533 724 m 0
 478 724 441 674 441 634 c 0
 441 601 464 575 503 575 c 8
 552 575 596 616 596 664 c 0
 596 701 569 724 533 724 c 0
EndSplineSet
EndChar
StartChar: uni0E09
Encoding: 232 3593 132
Width: 1300
Flags: W
HStem: 0 132<970.804 1101.69> 424 132<338.411 424.412> 700 132<351.129 481.433> 1076 156<623.085 972.402>
VStem: 202 135<557.86 687.215> 483 164<581.474 696.976> 835 134<133.827 203.346> 1061 179<796.663 998.401> 1116 135<144.215 274.345>
AnchorPoint: "AboveBase" 1369 1340 basechar 0
Fore
202 588 m 0xfe80
 202 719 324 832 450 832 c 0
 590 832 647 742 647 640 c 0
 647 621 645 602 641 583 c 2
 568 207 l 1
 696 308 831 369 974 391 c 9
 1055 810 l 2
 1059 829 1061 850 1061 872 c 0
 1061 969 1009 1076 779 1076 c 0
 622 1076 494 1032 365 964 c 1
 398 1134 l 1
 614 1226 725 1232 828 1232 c 0
 1057 1232 1240 1158 1240 883 c 0xff
 1240 836 1235 783 1223 723 c 10
 1157 388 l 17
 1204 373 1251 321 1251 243 c 0
 1251 124 1139 0 1003 0 c 0
 903 0 835 70 835 164 c 0
 835 177 836 190 839 204 c 1
 705 155 600 87 524 0 c 1
 342 0 l 1
 425 427 l 1
 424 425 405 424 370 424 c 0
 270 424 202 494 202 588 c 0xfe80
1029 132 m 0
 1076 132 1116 174 1116 218 c 0xfe80
 1116 253 1091 276 1057 276 c 0
 1009 276 969 233 969 189 c 0
 969 154 996 132 1029 132 c 0
396 556 m 0
 444 556 483 599 483 642 c 0
 483 677 458 700 424 700 c 0
 376 700 337 657 337 614 c 0
 337 579 362 556 396 556 c 0
EndSplineSet
EndChar
StartChar: uni0E0A
Encoding: 233 3594 133
Width: 1260
Flags: W
HStem: 0 154<570 878.422> 761 106<380.827 516.433> 1085 135<603.403 683.523>
VStem: 263 115<870.513 1000.14> 533 116<881.725 1013.81> 717 184<860.306 1057.8> 1000 184<712.134 888.819> 1239 180<1142.23 1392>
Fore
263 912 m 0
 263 1053 412 1220 623 1220 c 0
 820 1220 901 1089 901 966 c 0
 901 912 888 837 795 716 c 2
 725 623 l 2
 688 574 635 490 618 402 c 2
 570 154 l 1
 785 154 l 2
 852 154 893 190 906 258 c 2
 994 709 l 2
 998 731 1000 752 1000 771 c 0
 1000 828 982 870 945 898 c 1
 969 1024 l 1
 1137 1061 1207 1227 1239 1392 c 1
 1419 1392 l 1
 1392 1253 1350 1151 1293 1084 c 0
 1237 1018 1180 970 1123 940 c 1
 1166 905 1184 853 1184 790 c 0
 1184 764 1181 737 1176 709 c 2
 1076 196 l 2
 1051 65 942 0 750 0 c 2
 351 0 l 1
 439 452 l 2
 455 535 498 607 542 658 c 2
 611 735 l 2
 657 785 717 864 717 950 c 0
 717 1024 672 1085 595 1085 c 1
 628 1071 649 1044 649 994 c 0
 649 875 555 761 424 761 c 0
 329 761 263 819 263 912 c 0
444 867 m 0
 491 867 533 912 533 957 c 0
 533 991 508 1016 470 1016 c 0
 418 1016 378 966 378 927 c 0
 378 892 405 867 444 867 c 0
EndSplineSet
EndChar
StartChar: uni0E0B
Encoding: 234 3595 134
Width: 1370
Flags: W
HStem: 0 154<674 990.422> 637 108<381.945 519.554> 894 107<441.733 532.06> 1206 20G<474.5 595.343 758.419 869.5>
VStem: 250 129<762.876 876.703> 534 113<760.885 892.137> 836 177<858.63 1079.62> 1109 185<701.988 873.878> 1347 180<1282.92 1382>
Fore
647 855 m 0
 647 729 516 637 416 637 c 0
 368 637 250 658 250 822 c 0
 250 1016 385 1180 564 1226 c 1
 669 1159 l 1
 801 1221 l 1
 938 1195 1013 1082 1013 960 c 0
 1013 910 1003 828 904 711 c 2
 831 623 l 2
 793 574 740 494 723 408 c 2
 674 154 l 1
 892 154 l 2
 963 154 1005 189 1018 258 c 2
 1104 699 l 2
 1107 715 1109 731 1109 747 c 0
 1109 799 1090 846 1054 888 c 1
 1078 1014 l 1
 1246 1052 1314 1213 1347 1382 c 1
 1527 1382 l 1
 1515 1320 1485 1173 1403 1074 c 0
 1346 1008 1290 960 1233 930 c 1
 1273 897 1294 845 1294 777 c 0
 1294 753 1292 727 1286 699 c 2
 1188 196 l 2
 1163 65 1054 0 862 0 c 10
 454 0 l 17
 543 458 l 2
 559 538 601 608 650 659 c 2
 720 730 l 2
 778 788 836 873 836 969 c 0
 836 1023 815 1066 783 1086 c 1
 639 1026 l 1
 521 1088 l 1
 469 1065 437 1032 423 987 c 1
 423 987 494 1001 499 1001 c 0
 607 1001 647 927 647 855 c 0
445 745 m 0
 491 745 534 789 534 835 c 0
 534 865 512 894 475 894 c 0
 420 894 379 845 379 805 c 0
 379 780 394 745 445 745 c 0
EndSplineSet
EndChar
StartChar: uni0E0C
Encoding: 235 3596 135
Width: 1800
Flags: W
HStem: -10 132<398.888 529.016 913.041 1051.75> 261 133<452.022 539.106 927.851 1031> 1072 160<621.835 1026.36>
VStem: 230 165<125.445 232.495> 542 133<136.395 264.14> 772 139<114.797 246.254> 1066 131<128.259 245.451 240.185 250.717> 1109 188<777.025 990.97>
Fore
772 138 m 0xfe
 772 260 879 394 1021 394 c 2
 1031 394 l 1
 1098 740 l 2
 1105 777 1109 813 1109 847 c 0
 1109 975 1048 1072 850 1072 c 0
 706 1072 564 1015 466 950 c 1
 694 836 l 1
 665 688 l 1
 596 663 490 599 464 464 c 2
 451 395 l 1
 452 397 471 398 506 398 c 0
 606 398 675 328 675 234 c 0
 675 111 561 -10 427 -10 c 0
 286 -10 230 81 230 183 c 0
 230 202 231 220 235 239 c 2
 279 465 l 2
 299 566 382 702 511 760 c 1
 293 862 l 1
 330 1056 l 17
 385 1095 575 1232 892 1232 c 0
 1076 1232 1297 1158 1297 881 c 0xfd
 1297 843 1293 802 1284 756 c 2
 1211 383 l 1
 1313 362 1400 306 1472 216 c 1
 1664 1203 l 1
 1846 1203 l 1
 1612 0 l 17
 1431 0 l 1
 1362 138 1283 222 1196 251 c 1
 1196 246 1197 241 1197 237 c 0
 1197 110 1099 -11 940 -11 c 0
 822 -11 772 57 772 138 c 0xfe
483 266 m 0
 435 266 395 223 395 179 c 0
 395 144 422 122 455 122 c 0
 502 122 542 164 542 208 c 0
 542 243 517 266 483 266 c 0
974 112 m 8
 1015 112 1066 155 1066 201 c 0xfe
 1066 234 1043 261 1004 261 c 8
 959 261 911 224 911 171 c 0
 911 135 937 112 974 112 c 8
EndSplineSet
EndChar
StartChar: uni0E0D
Encoding: 236 3597 136
Width: 1800
Flags: W
HStem: -396 100<1157 1315.35> -138 88<1012.19 1126.91> -10 132<397.888 528.016> 0 156<1136 1463> 266 132<451.022 538.106> 1072 160<623.27 1011.61>
VStem: 229 165<125.445 232.495> 541 133<136.395 264.14> 912 93<-249.205 -163.504> 1067 186<719.241 740 756 779.689 779.689 841.651 810.67 1003.96> 1128 94<-231.301 -148.743>
Fore
674 234 m 0xdfc0
 674 111 560 -10 426 -10 c 0xefc0
 285 -10 229 81 229 183 c 0
 229 202 230 220 234 239 c 2
 278 465 l 2
 298 566 381 702 510 760 c 1
 292 862 l 1
 329 1056 l 17
 372 1087 570 1232 881 1232 c 0
 1065 1232 1267 1160 1267 889 c 0
 1267 849 1263 805 1253 756 c 2
 1136 156 l 1
 1463 156 l 1
 1667 1204 l 1
 1852 1204 l 1
 1618 0 l 1
 923 0 l 1
 1067 740 l 2
 1075 783 1080 824 1080 862 c 0
 1080 985 1026 1072 850 1072 c 0
 711 1072 561 1014 465 950 c 1
 694 836 l 1
 665 688 l 1
 596 663 489 597 463 464 c 2
 450 395 l 1
 451 397 470 398 505 398 c 0
 605 398 674 328 674 234 c 0xdfc0
482 266 m 0
 434 266 394 223 394 179 c 0
 394 144 421 122 454 122 c 0
 501 122 541 164 541 208 c 0
 541 243 516 266 482 266 c 0
1056 -251 m 0
 1103 -251 1128 -215 1128 -184 c 0xcfa0
 1128 -160 1112 -138 1080 -138 c 0
 1024 -138 1005 -185 1005 -208 c 0
 1005 -236 1028 -251 1056 -251 c 0
912 -235 m 0
 912 -124 1007 -50 1096 -50 c 0
 1170 -50 1222 -96 1222 -167 c 0
 1222 -205 1208 -265 1157 -296 c 1
 1164 -296 l 2
 1297 -296 1466 -166 1542 -86 c 1
 1546 -235 l 1
 1453 -310 1295 -396 1148 -396 c 0
 947 -396 912 -301 912 -235 c 0
EndSplineSet
Substitution2: "Thai Descender Removal Single Substitution" uni0E0D.descless
EndChar
StartChar: uni0E0E
Encoding: 237 3598 137
Width: 1440
Flags: W
HStem: -410 148<504.106 617.18> -116 139<528.818 688.807> -10 132<238.804 369.922> 266 132<250.708 382.511> 1072 160<727.977 1135.15>
VStem: 103 134<123.827 252.768> 344 160<-261.326 -142.686> 1218 188<780.756 996.686>
AnchorPoint: "BelowBase" 1156 -478 basechar 0
Fore
633 -116 m 0xdf
 561 -116 504 -164 504 -215 c 0
 504 -245 523 -262 550 -262 c 0
 579 -262 650 -253 701 -133 c 1
 679 -121 656 -116 633 -116 c 0xdf
344 -253 m 0
 344 -125 472 23 657 23 c 0xdf
 699 23 734 18 763 9 c 1
 798 99 l 1
 947 42 l 1
 907 -52 l 1
 945 -81 985 -125 1026 -186 c 1
 1206 740 l 2
 1213 778 1218 814 1218 849 c 0
 1218 977 1156 1072 959 1072 c 0
 816 1072 673 1016 575 950 c 1
 804 836 l 1
 775 688 l 1
 708 661 633 615 611 506 c 2
 559 239 l 2
 534 110 431 -10 271 -10 c 0xbf
 171 -10 103 60 103 154 c 0
 103 283 221 398 350 398 c 0
 384 398 402 397 403 394 c 1
 424 506 l 2
 439 579 489 722 620 760 c 1
 402 862 l 1
 439 1056 l 17
 494 1095 684 1232 1001 1232 c 0
 1185 1232 1406 1158 1406 881 c 0
 1406 843 1402 802 1393 756 c 2
 1166 -410 l 1
 981 -410 l 1
 935 -315 886 -246 837 -201 c 1
 756 -362 635 -410 521 -410 c 0
 398 -410 344 -335 344 -253 c 0
297 122 m 0xbf
 344 122 384 164 384 208 c 0
 384 243 359 266 325 266 c 0
 277 266 237 223 237 179 c 0
 237 144 264 122 297 122 c 0xbf
EndSplineSet
EndChar
StartChar: uni0E0F
Encoding: 238 3599 138
Width: 1440
Flags: W
HStem: -410 128<429.687 551.986> -132 120<439.215 582.657> -10 132<238.804 369.922> 266 132<250.708 382.511> 1072 160<730.835 1134.94>
VStem: 103 134<123.827 252.768> 276 141<-279.773 -155.28> 1218 188<780.756 996.686>
AnchorPoint: "BelowBase" 1156 -478 basechar 0
Fore
297 122 m 0
 344 122 384 164 384 208 c 0
 384 243 359 266 325 266 c 0
 277 266 237 223 237 179 c 0
 237 144 264 122 297 122 c 0
276 -267 m 0
 276 -175 364 -12 559 -12 c 0
 596 -12 625 -19 649 -32 c 1
 678 49 l 1
 800 33 l 1
 751 -87 l 1
 789 -113 814 -159 826 -224 c 1
 908 -104 l 1
 982 -104 l 1
 1017 -229 l 1
 1206 740 l 2
 1213 778 1218 814 1218 849 c 0
 1218 977 1156 1072 959 1072 c 0
 815 1072 673 1015 575 950 c 1
 804 836 l 1
 775 688 l 1
 708 661 633 615 611 506 c 2
 559 239 l 2
 534 110 431 -10 271 -10 c 0
 171 -10 103 60 103 154 c 0
 103 283 221 398 350 398 c 0
 384 398 402 397 403 394 c 1
 424 506 l 2
 439 579 489 722 620 760 c 1
 402 862 l 1
 439 1056 l 17
 494 1095 684 1232 1001 1232 c 0
 1184 1232 1406 1158 1406 881 c 0
 1406 843 1402 802 1393 756 c 10
 1166 -410 l 17
 960 -410 l 1
 916 -271 l 1
 824 -410 l 1
 730 -410 l 1
 731 -395 732 -381 732 -367 c 0
 732 -310 720 -261 697 -221 c 1
 642 -358 534 -410 454 -410 c 0
 330 -410 276 -346 276 -267 c 0
527 -132 m 0
 462 -132 417 -189 417 -236 c 0
 417 -273 445 -282 472 -282 c 0
 536 -282 575 -214 599 -155 c 1
 574 -139 549 -132 527 -132 c 0
EndSplineSet
EndChar
StartChar: uni0E10
Encoding: 239 3600 139
Width: 1170
Flags: W
HStem: -542 100<168.066 315.337> -320 105<178.273 324.854> -290 69<678.928 742.28> -119 75<681.956 773.723> 0 21G<683 876.401> 270 125<409.185 547.06> 544 125<422.008 557.233> 1064 158<638.172 1031.59>
VStem: 48 120<-439.855 -350.804> 276 130<397.341 528.225> 561 239<409.307 506.163> 601 77<-211.858 -122.556> 783 135<-217.615 -127.528> 910 202<605.182 743.572>
Back
461 395 m 152
 481.667 395 500.833 402 518.5 416 c 128
 536.167 430 547 447.333 551 468 c 0
 554.333 488.667 549.833 506.5 537.5 521.5 c 128
 525.167 536.5 508.667 544 488 544 c 128
 467.333 544 448.167 536.667 430.5 522 c 128
 412.833 507.333 402.333 489.333 399 468 c 0
 395 448 399.167 430.833 411.5 416.5 c 128
 423.833 402.167 440.333 395 461 395 c 152
1083 608 m 10
 869 0 l 1
 683 0 l 1
 683.667 36 678.5 90 667.5 162 c 128
 656.5 234 640.333 296 619 348 c 1
 611 334 591.333 317.333 560 298 c 128
 528.667 278.667 489 269 441 269 c 8
 381.667 269 336.5 287.167 305.5 323.5 c 128
 274.5 359.833 263 406 271 462 c 0
 281 526.667 310.5 577.667 359.5 615 c 128
 408.5 652.333 465.667 670.333 531 669 c 0
 609.667 667.667 672.5 630.333 719.5 557 c 128
 766.5 483.667 791.333 393.333 794 286 c 1
 890 566 l 2
 919.333 652 879 704 769 722 c 10
 275 802 l 17
 318 1046 l 17
 404.667 1108 494.833 1152.83 588.5 1180.5 c 128
 682.167 1208.17 778.333 1222 877 1222 c 0
 945 1222 1006.67 1212.5 1062 1193.5 c 128
 1117.33 1174.5 1163 1147 1199 1111 c 128
 1235 1075 1259.67 1037.67 1273 999 c 9
 1101 887 l 17
 1099.67 915 1087.33 944.333 1064 975 c 128
 1040.67 1005.67 1010.83 1027.67 974.5 1041 c 128
 938.167 1054.33 896.333 1061.33 849 1062 c 0
 781 1063.33 712.167 1052.5 642.5 1029.5 c 128
 572.833 1006.5 511 976.667 457 940 c 9
 867 878 l 18
 1064.33 848 1136.33 758 1083 608 c 10
727 -403 m 1
 748 -283 l 1
 739.333 -287.667 724 -290 702 -290 c 0
 671.333 -290 646.333 -279.167 627 -257.5 c 128
 607.667 -235.833 600.667 -207.333 606 -172 c 0
 610 -140 626.833 -110.5 656.5 -83.5 c 128
 686.167 -56.5 724 -43.3333 770 -44 c 0
 826.667 -44.6667 867.833 -64.3333 893.5 -103 c 128
 919.167 -141.667 927.333 -186.333 918 -237 c 2
 865 -540 l 1
 685 -540 l 1
 665 -501.333 643.333 -471.667 620 -451 c 1
 590.667 -472.333 560.667 -501.333 530 -538 c 1
 464 -538 l 1
 466.667 -496.667 454.667 -457 428 -419 c 1
 403.333 -457 373 -487 337 -509 c 128
 301 -531 259.667 -542 213 -542 c 0
 165.667 -542 126 -528.333 94 -501 c 128
 62 -473.667 50 -436.667 58 -390 c 0
 66 -346.667 90.1667 -306.333 130.5 -269 c 128
 170.833 -231.667 222.667 -213.667 286 -215 c 0
 338.667 -215.667 378.667 -229 406 -255 c 1
 446 -184 l 1
 526 -252 l 1
 484 -318 l 1
 508 -340.667 522.667 -370 528 -406 c 1
 561.333 -370 600 -341.333 644 -320 c 1
 671.333 -338 699 -365.667 727 -403 c 1
745 -119 m 24
 730.333 -119 716.833 -124 704.5 -134 c 128
 692.167 -144 684.667 -156 682 -170 c 128
 679.333 -184 682.333 -196 691 -206 c 128
 699.667 -216 711 -221 725 -221 c 128
 739 -221 751.833 -215.833 763.5 -205.5 c 128
 775.167 -195.167 782.333 -183 785 -169 c 128
 787.667 -155 785 -143.167 777 -133.5 c 128
 769 -123.833 758.333 -119 745 -119 c 24
176 -394 m 0
 174 -408.667 179.333 -420.333 192 -429 c 128
 204.667 -437.667 218.333 -442 233 -442 c 0
 279 -441.333 319.333 -412.333 354 -355 c 1
 330 -332.333 301.667 -320.667 269 -320 c 0
 239 -319.333 216.333 -326.5 201 -341.5 c 128
 185.667 -356.5 177.333 -374 176 -394 c 0
EndSplineSet
Fore
498 544 m 0x9fe0
 443 544 406 494 406 454 c 0
 406 421 429 395 468 395 c 8
 517 395 561 436 561 484 c 0
 561 521 534 544 498 544 c 0x9fe0
276 422 m 0
 276 565 391 669 538 669 c 0
 727 669 798 459 800 286 c 1
 900 566 l 2
 904 576 910 597 910 618 c 0
 910 673 867 708 782 722 c 10
 290 802 l 17
 337 1046 l 17
 391 1083 583 1222 900 1222 c 0
 1161 1222 1264 1084 1291 999 c 9
 1117 887 l 17
 1114 980 1017 1064 855 1064 c 0
 712 1064 559 997 474 940 c 9
 883 878 l 18
 1036 854 1112 794 1112 698 c 0x9fe4
 1112 664 1104 636 1094 608 c 10
 869 0 l 1
 683 0 l 1
 683 12 l 2
 683 70 671 231 626 348 c 1
 596 300 521 270 448 270 c 0
 358 270 276 314 276 422 c 0
601 -195 m 0xbfd8
 601 -125 658 -44 766 -44 c 0
 875 -44 918 -119 918 -196 c 0
 918 -210 917 -224 914 -237 c 2
 855 -540 l 1
 675 -540 l 1
 656 -501 635 -472 612 -451 c 1
 582 -472 552 -501 520 -538 c 1
 454 -538 l 1
 454 -525 l 2
 454 -488 443 -453 421 -419 c 1
 374 -489 304 -542 204 -542 c 0
 137 -542 48 -507 48 -419 c 0
 48 -343 121 -215 275 -215 c 0
 332 -215 374 -228 401 -255 c 1
 442 -184 l 1
 521 -252 l 1
 478 -318 l 1
 502 -341 516 -370 521 -406 c 1
 555 -370 594 -341 638 -320 c 1xdfd8
 665 -338 693 -366 720 -403 c 1
 743 -283 l 1
 734 -288 719 -290 697 -290 c 0
 633 -290 601 -246 601 -195 c 0xbfd8
721 -221 m 0xbfd8
 751 -221 783 -193 783 -158 c 0
 783 -135 766 -119 743 -119 c 8
 707 -119 678 -149 678 -179 c 0
 678 -202 694 -221 721 -221 c 0xbfd8
259 -320 m 0xdfc0
 189 -320 168 -373 168 -395 c 0
 168 -421 190 -442 224 -442 c 0
 288 -442 329 -385 348 -355 c 1
 326 -334 297 -320 259 -320 c 0xdfc0
EndSplineSet
Substitution2: "Thai Descender Removal Single Substitution" uni0E10.descless
EndChar
StartChar: uni0E11
Encoding: 240 3601 140
Width: 1560
Flags: W
HStem: 0 21G<424 700 1178 1364.89> 637 107<351.87 489.529> 892 109<411.679 502.496> 1060 162<1270.7 1434.45>
VStem: 219 130<746.379 875.085> 504 113<758.246 889.305> 806 177<858.37 1079.62> 1368 187<960.162 980 980 995.569 995.569 1023.52 1009.55 1059.68>
Fore
387 637 m 0
 328 637 219 672 219 817 c 0
 219 1014 352 1180 534 1226 c 1
 639 1159 l 1
 771 1221 l 1
 908 1195 983 1082 983 960 c 0
 983 931 985 843 874 711 c 2
 801 623 l 2
 760 572 710 494 693 408 c 2
 661 243 l 17
 972 521 967 932 1226 1168 c 0
 1266 1204 1321 1222 1390 1222 c 0
 1497 1222 1560 1151 1560 1050 c 0
 1560 1033 1559 1015 1555 997 c 2
 1361 0 l 1
 1178 0 l 1
 1368 980 l 2
 1370 992 1372 1002 1372 1011 c 0
 1372 1044 1357 1060 1328 1060 c 0
 1294 1060 1271 1045 1241 1007 c 0
 1179 931 1104 781 1018 559 c 0
 930 336 793 150 607 0 c 9
 424 0 l 1
 513 458 l 2
 529 538 571 608 620 659 c 2
 690 730 l 2
 748 788 806 873 806 969 c 0
 806 1023 785 1066 753 1086 c 1
 609 1026 l 1
 491 1088 l 1
 439 1065 407 1032 393 987 c 1
 393 987 464 1001 469 1001 c 0
 577 1001 617 927 617 855 c 0
 617 729 486 637 387 637 c 0
441 892 m 0
 388 892 349 850 349 804 c 0
 349 770 374 744 412 744 c 0
 460 744 504 785 504 836 c 0
 504 873 474 892 441 892 c 0
EndSplineSet
EndChar
StartChar: uni0E12
Encoding: 241 3602 141
Width: 1790
Flags: MW
HStem: -10 132<917.991 1049.57> 194 173<1241.73 1403.17> 266 132<928.818 1029> 713 132<688.704 820.208> 939 134<843 843 843 853 786 843> 1053 171<656 681>
VStem: 268 180<757 778> 541 134<570.718 699.056> 782 134<123.951 251.593> 822 135<584.516 710.864> 1100 186<742.085 763 779 796.798 796.798 810.969 803.884 977.105>
Fore
957 680 m 0
 957 408 425 35 378 0 c 1
 195 0 l 1
 268 778 l 2
 278 924 400 1140 681 1224 c 1
 843 1073 l 1
 1055 1224 l 1
 1188 1176 1296 1062 1296 880 c 0
 1296 848 1293 815 1286 779 c 2
 1206 367 l 1
 1307 338 1391 288 1460 216 c 1
 1652 1203 l 1
 1832 1203 l 1
 1598 0 l 1
 1420 0 l 1
 1357 104 1282 169 1194 194 c 1
 1172 81 1064 -10 950 -10 c 0
 851 -10 782 60 782 154 c 0
 782 278 896 398 1029 398 c 1
 1100 763 l 2
 1104 783 1112 824 1112 869 c 0
 1112 936 1095 1014 1023 1053 c 1
 853 939 l 1
 786 939 l 1
 656 1053 l 1
 461 961 450 768 448 757 c 2
 400 220 l 1
 511 270 636 360 710 442 c 1
 603 442 541 510 541 599 c 0
 541 729 660 845 788 845 c 0
 888 845 957 775 957 680 c 0
1004 266 m 0
 959 266 916 227 916 179 c 0
 916 148 939 122 976 122 c 0
 1018 122 1063 160 1063 208 c 0
 1063 240 1042 266 1004 266 c 0
763 713 m 0
 718 713 675 674 675 626 c 0
 675 595 698 569 735 569 c 0
 777 569 822 607 822 655 c 0
 822 687 801 713 763 713 c 0
EndSplineSet
EndChar
StartChar: uni0E13
Encoding: 242 3603 142
Width: 1850
Flags: W
HStem: -10 132<398.888 529.016 1540.73 1671.73> 266 132<452.022 539.106> 1072 160<619.715 1017.18>
VStem: 230 165<125.445 232.495> 542 133<136.395 264.14> 1081 187<785.246 1007.03> 1405 133<125.61 191.661 179.954 203.368> 1685 135<135.502 263.961>
AnchorPoint: "AboveBase" 1911 1340 basechar 0
Fore
1820 236 m 0
 1820 105 1700 -10 1572 -10 c 0
 1479 -10 1405 51 1405 156 c 0
 1405 171 1407 187 1410 204 c 1
 1317 179 1216 111 1105 0 c 1
 924 0 l 1
 1068 740 l 2
 1076 781 1081 821 1081 858 c 0
 1081 980 1030 1072 869 1072 c 0
 738 1072 602 1041 466 950 c 1
 695 836 l 1
 666 688 l 1
 597 663 490 597 464 464 c 2
 451 395 l 1
 452 397 471 398 506 398 c 0
 606 398 675 328 675 234 c 0
 675 111 561 -10 427 -10 c 0
 286 -10 230 81 230 183 c 0
 230 202 231 220 235 239 c 2
 279 465 l 2
 299 566 382 702 511 760 c 1
 293 862 l 1
 330 1056 l 17
 494 1173 675 1232 912 1232 c 0
 1044 1232 1268 1175 1268 889 c 0
 1268 849 1264 805 1254 756 c 2
 1149 216 l 1
 1252 288 1375 345 1518 387 c 1
 1677 1202 l 1
 1858 1202 l 1
 1701 398 l 1
 1743 398 1820 338 1820 236 c 0
483 266 m 0
 435 266 395 223 395 179 c 0
 395 144 422 122 455 122 c 0
 502 122 542 164 542 208 c 0
 542 243 517 266 483 266 c 0
1626 266 m 0
 1578 266 1538 223 1538 179 c 0
 1538 144 1565 122 1598 122 c 0
 1645 122 1685 164 1685 208 c 0
 1685 243 1660 266 1626 266 c 0
EndSplineSet
EndChar
StartChar: uni0E14
Encoding: 243 3604 143
Width: 1330
Flags: MW
HStem: 0 21G<215 488.5 973 1160.89> 721 132<711.629 844.196> 1072 160<664.417 1042.92>
VStem: 281 186<686 745> 564 135<579.241 706.836> 846 134<611.544 719.173> 1129 180<762.235 992.439>
Fore
564 608 m 0
 564 734 681 853 812 853 c 0
 912 853 980 783 980 689 c 0
 980 637 953 529 883 448 c 0
 741 282 579 133 398 0 c 1
 215 0 l 1
 281 686 l 2
 333 1170 725 1232 895 1232 c 0
 1112 1232 1309 1152 1309 858 c 0
 1309 808 1303 752 1291 689 c 2
 1157 0 l 1
 973 0 l 1
 1119 751 l 2
 1125 783 1129 815 1129 846 c 0
 1129 970 1069 1072 868 1072 c 0
 575 1072 479 864 467 745 c 2
 411 177 l 1
 506 243 614 334 733 450 c 1
 731 450 l 2
 625 450 564 520 564 608 c 0
758 577 m 0
 806 577 846 620 846 664 c 0
 846 699 819 721 786 721 c 0
 739 721 699 679 699 635 c 0
 699 600 724 577 758 577 c 0
EndSplineSet
EndChar
StartChar: uni0E15
Encoding: 244 3605 144
Width: 1340
Flags: MW
HStem: 0 21G<225 492.5 981 1167.9> 730 132<724.485 855.589> 958 134<876 876 876 886 819 876>
VStem: 302 179<779 800> 576 135<588.111 716.372> 857 135<620.09 728.14> 1134 186<764.195 785 801 818.806 818.806 832.551 825.678 1036.1>
Fore
576 617 m 0
 576 746 695 862 824 862 c 0
 924 862 992 792 992 698 c 0
 992 644 964 538 895 457 c 0
 740 276 577 124 408 0 c 1
 225 0 l 1
 302 800 l 2
 317 982 474 1171 715 1243 c 1
 876 1092 l 1
 1089 1243 l 1
 1228 1195 1330 1079 1330 901 c 0
 1330 870 1327 836 1320 801 c 2
 1164 0 l 1
 981 0 l 1
 1134 785 l 2
 1141 823 1145 858 1145 890 c 0
 1145 979 1115 1040 1056 1072 c 1
 886 958 l 1
 819 958 l 1
 689 1072 l 1
 512 987 486 827 481 779 c 2
 421 176 l 1
 745 459 l 1
 638 459 576 528 576 617 c 0
770 586 m 0
 818 586 857 629 857 672 c 0
 857 707 832 730 798 730 c 0
 750 730 711 687 711 644 c 0
 711 609 736 586 770 586 c 0
EndSplineSet
EndChar
StartChar: uni0E16
Encoding: 245 3606 145
Width: 1340
Flags: W
HStem: -10 132<407.86 541.016> 266 132<465.034 551.106> 1072 160<634.029 1045.89>
VStem: 243 163<125.445 232.495> 553 135<136.395 264.14> 1112 185<719.136 740 756 772.086 772.086 835.426 803.756 995.999>
Fore
494 266 m 0
 446 266 406 223 406 179 c 0
 406 144 433 122 466 122 c 0
 513 122 553 164 553 208 c 0
 553 243 528 266 494 266 c 0
688 234 m 0
 688 111 574 -10 440 -10 c 0
 299 -10 243 81 243 183 c 0
 243 202 244 220 248 239 c 2
 292 465 l 2
 312 566 395 702 524 760 c 1
 306 862 l 1
 343 1056 l 17
 398 1095 588 1232 905 1232 c 0
 1089 1232 1310 1158 1310 881 c 0
 1310 843 1306 802 1297 756 c 2
 1150 0 l 17
 968 0 l 1
 1112 740 l 2
 1120 779 1123 815 1123 847 c 0
 1123 994 1044 1072 874 1072 c 0
 726 1072 580 1017 479 950 c 1
 708 836 l 1
 679 688 l 1
 610 663 503 597 477 464 c 2
 464 395 l 1
 465 397 484 398 519 398 c 0
 619 398 688 328 688 234 c 0
EndSplineSet
EndChar
StartChar: uni0E17
Encoding: 246 3607 146
Width: 1420
Flags: W
HStem: 0 21G<344 620.5 1040 1226.89> 804 132<414.411 500.39> 1080 132<427.129 557.632 1074.75 1282.08>
VStem: 278 135<937.86 1067.22> 559 164<961.42 1078.35> 1227 188<951.115 961 961 980.592 980.592 1010.02 995.308 1067>
Fore
472 936 m 0
 520 936 559 979 559 1022 c 0
 559 1057 534 1080 500 1080 c 0
 452 1080 413 1037 413 994 c 0
 413 959 438 936 472 936 c 0
278 968 m 0
 278 1099 400 1212 526 1212 c 0
 668 1212 723 1119 723 1019 c 0
 723 1000 721 982 717 963 c 10
 618 454 l 1
 731 701 832 894 920 1033 c 0
 967 1107 1064 1222 1224 1222 c 0
 1339 1222 1419 1140 1419 1032 c 0
 1419 1018 1418 1003 1415 988 c 2
 1223 0 l 1
 1040 0 l 1
 1227 961 l 2
 1230 976 1231 989 1231 1000 c 0
 1231 1047 1209 1070 1164 1070 c 0
 1111 1070 1068 1043 1034 988 c 0
 886 745 716 416 525 0 c 1
 344 0 l 25
 501 807 l 17
 499 805 481 804 446 804 c 0
 346 804 278 874 278 968 c 0
EndSplineSet
EndChar
StartChar: uni0E18
Encoding: 247 3608 147
Width: 1200
Flags: W
HStem: 0 154<437 843.422> 1062 160<629.182 1032.83>
VStem: 927 190<551.028 565.046 565.046 615.907 590.477 670.958>
Fore
900 1222 m 0
 1161 1222 1264 1084 1291 999 c 9
 1117 887 l 17
 1115 933 1076 1062 857 1062 c 0
 713 1062 571 1005 474 940 c 9
 910 858 l 18
 1052 832 1123 762 1123 650 c 0
 1123 631 1121 610 1117 588 c 10
 1041 196 l 2
 1016 65 907 0 715 0 c 10
 228 0 l 17
 359 674 l 1
 538 674 l 1
 437 154 l 1
 745 154 l 2
 816 154 858 189 871 258 c 2
 927 547 l 2
 930 560 931 572 931 583 c 0
 931 647 890 687 809 702 c 10
 290 802 l 17
 337 1046 l 17
 391 1084 583 1222 900 1222 c 0
EndSplineSet
EndChar
StartChar: uni0E19
Encoding: 248 3609 148
Width: 1430
Flags: W
HStem: -20 132<1088.73 1219.73> 804 132<408.411 494.39> 1080 132<421.129 551.334>
VStem: 272 135<937.86 1067.22> 553 164<961.474 1076.98> 953 133<115.61 181.661 169.954 193.368> 1233 135<125.089 253.35>
AnchorPoint: "AboveBase" 1451 1340 basechar 0
Fore
466 936 m 0
 514 936 553 979 553 1022 c 0
 553 1057 528 1080 494 1080 c 0
 446 1080 407 1037 407 994 c 0
 407 959 432 936 466 936 c 0
1368 225 m 0
 1368 94 1248 -20 1120 -20 c 0
 1027 -20 953 41 953 146 c 0
 953 161 955 177 958 194 c 1
 850 174 704 109 521 0 c 1
 338 0 l 1
 495 807 l 1
 493 805 475 804 440 804 c 0
 340 804 272 874 272 968 c 0
 272 1099 394 1212 520 1212 c 0
 659 1212 717 1122 717 1020 c 0
 717 1001 715 982 711 963 c 2
 557 171 l 1
 692 263 858 331 1056 374 c 1
 1217 1202 l 1
 1398 1202 l 1
 1238 379 l 1
 1289 378 1368 327 1368 225 c 0
1146 112 m 0
 1193 112 1233 154 1233 198 c 0
 1233 233 1208 256 1174 256 c 0
 1126 256 1086 213 1086 169 c 0
 1086 134 1113 112 1146 112 c 0
EndSplineSet
EndChar
StartChar: uni0E1A
Encoding: 249 3610 149
Width: 1400
Flags: MW
HStem: 0 154<554 1062> 804 132<408.411 494.39> 1080 132<421.129 551.433>
VStem: 272 135<937.86 1067.22> 338 216<0 154> 553 164<961.474 1076.98>
Fore
466 936 m 0
 514 936 553 979 553 1022 c 0
 553 1057 528 1080 494 1080 c 0
 446 1080 407 1037 407 994 c 0
 407 959 432 936 466 936 c 0
272 968 m 0
 272 1099 394 1212 520 1212 c 0
 660 1212 717 1122 717 1020 c 0
 717 1001 715 982 711 963 c 2
 554 154 l 1
 1062 154 l 1
 1266 1202 l 1
 1448 1202 l 1
 1214 0 l 1
 338 0 l 1
 495 807 l 1
 493 805 475 804 440 804 c 0
 340 804 272 874 272 968 c 0
EndSplineSet
EndChar
StartChar: uni0E1B
Encoding: 250 3611 150
Width: 1400
Flags: MW
HStem: 0 154<554 1062> 804 132<408.411 494.39> 1080 132<421.129 551.433>
VStem: 272 135<937.86 1067.22> 338 216<0 154> 553 164<961.474 1076.98>
AnchorPoint: "AboveBase" 1202 1340 basechar 0
Fore
466 936 m 0
 514 936 553 979 553 1022 c 0
 553 1057 528 1080 494 1080 c 0
 446 1080 407 1037 407 994 c 0
 407 959 432 936 466 936 c 0
272 968 m 0
 272 1099 394 1212 520 1212 c 0
 660 1212 717 1122 717 1020 c 0
 717 1001 715 982 711 963 c 2
 554 154 l 1
 1062 154 l 1
 1350 1638 l 1
 1532 1638 l 1
 1214 0 l 1
 338 0 l 1
 495 807 l 1
 493 805 475 804 440 804 c 0
 340 804 272 874 272 968 c 0
EndSplineSet
EndChar
StartChar: uni0E1C
Encoding: 251 3612 151
Width: 1350
Flags: W
HStem: 0 21G<176 381.76 949.026 1163.89> 804 132<540.522 670.871> 1080 132<552.386 683.589>
VStem: 685 135<948.785 1078.14>
Fore
626 1080 m 0
 578 1080 539 1037 539 994 c 0
 539 959 564 936 598 936 c 0
 646 936 685 979 685 1022 c 0
 685 1057 660 1080 626 1080 c 0
820 1048 m 0
 820 917 698 804 572 804 c 0
 538 804 520 805 520 807 c 1
 421 299 l 1
 718 704 l 1
 892 704 l 1
 1036 303 l 1
 1211 1202 l 1
 1394 1202 l 1
 1160 0 l 1
 956 0 l 1
 767 542 l 1
 367 0 l 1
 176 0 l 1
 363 963 l 2
 387 1086 487 1212 652 1212 c 0
 752 1212 820 1142 820 1048 c 0
EndSplineSet
EndChar
StartChar: uni0E1D
Encoding: 252 3613 152
Width: 1350
Flags: W
HStem: 0 21G<176 381.76 949.026 1163.88> 804 132<540.522 670.871> 1080 132<552.386 683.589>
VStem: 685 135<948.785 1078.14>
AnchorPoint: "AboveBase" 1160 1340 basechar 0
Fore
626 1080 m 0
 578 1080 539 1037 539 994 c 0
 539 959 564 936 598 936 c 0
 646 936 685 979 685 1022 c 0
 685 1057 660 1080 626 1080 c 0
820 1048 m 0
 820 917 698 804 572 804 c 0
 538 804 520 805 520 807 c 1
 421 299 l 1
 718 704 l 1
 892 704 l 1
 1036 303 l 1
 1295 1638 l 1
 1478 1638 l 1
 1160 0 l 1
 956 0 l 1
 767 542 l 1
 367 0 l 1
 176 0 l 1
 363 963 l 2
 387 1086 487 1212 652 1212 c 0
 752 1212 820 1142 820 1048 c 0
EndSplineSet
EndChar
StartChar: uni0E1E
Encoding: 253 3614 153
Width: 1460
Flags: W
HStem: 0 21G<328 530.719 1053.19 1263.89> 804 132<398.411 484.39> 1080 132<411.129 541.234>
VStem: 262 135<937.86 1067.22> 543 164<961.474 1077.16>
Fore
456 936 m 0
 504 936 543 979 543 1022 c 0
 543 1057 518 1080 484 1080 c 0
 436 1080 397 1037 397 994 c 0
 397 959 422 936 456 936 c 0
262 968 m 0
 262 1099 384 1212 510 1212 c 0
 648 1212 707 1123 707 1020 c 0
 707 1001 705 982 701 963 c 2
 586 372 l 1
 923 1108 l 1
 1099 1108 l 1
 1150 376 l 1
 1311 1202 l 1
 1494 1202 l 1
 1260 0 l 1
 1055 0 l 1
 971 926 l 1
 521 0 l 1
 328 0 l 1
 485 807 l 1
 483 805 465 804 430 804 c 0
 330 804 262 874 262 968 c 0
EndSplineSet
EndChar
StartChar: uni0E1F
Encoding: 254 3615 154
Width: 1460
Flags: W
HStem: 0 21G<328 530.719 1053.19 1263.88> 804 132<398.411 484.39> 1080 132<411.129 541.234>
VStem: 262 135<937.86 1067.22> 543 164<961.474 1077.16>
AnchorPoint: "AboveBase" 1276 1340 basechar 0
Fore
456 936 m 0
 504 936 543 979 543 1022 c 0
 543 1057 518 1080 484 1080 c 0
 436 1080 397 1037 397 994 c 0
 397 959 422 936 456 936 c 0
262 968 m 0
 262 1099 384 1212 510 1212 c 0
 648 1212 707 1123 707 1020 c 0
 707 1001 705 982 701 963 c 2
 586 372 l 1
 923 1108 l 1
 1099 1108 l 1
 1150 376 l 1
 1395 1638 l 1
 1578 1638 l 1
 1260 0 l 1
 1055 0 l 1
 971 926 l 1
 521 0 l 1
 328 0 l 1
 485 807 l 1
 483 805 465 804 430 804 c 0
 330 804 262 874 262 968 c 0
EndSplineSet
EndChar
StartChar: uni0E20
Encoding: 255 3616 155
Width: 1440
Flags: W
HStem: -10 132<238.804 370.835> 266 132<250.708 382.224> 1072 161<730.59 1136.17>
VStem: 103 134<123.827 252.768> 1205 188<719.136 740 756 774.767 774.767 835.426 805.096 997.334>
Fore
297 122 m 0
 344 122 384 164 384 208 c 0
 384 243 359 266 325 266 c 0
 277 266 237 223 237 179 c 0
 237 144 264 122 297 122 c 0
103 154 m 0
 103 283 221 398 350 398 c 0
 385 398 402 397 403 394 c 1
 424 506 l 2
 439 579 489 721 620 760 c 1
 402 862 l 1
 439 1056 l 17
 596 1168 803 1233 986 1233 c 0
 1182 1233 1406 1159 1406 881 c 0
 1406 843 1402 802 1393 756 c 2
 1246 0 l 1
 1061 0 l 1
 1205 740 l 2
 1213 780 1217 817 1217 850 c 0
 1217 998 1137 1072 960 1072 c 0
 816 1072 673 1015 575 950 c 1
 804 836 l 1
 775 688 l 1
 709 661 633 615 611 506 c 2
 559 239 l 2
 536 116 435 -10 271 -10 c 0
 171 -10 103 60 103 154 c 0
EndSplineSet
EndChar
StartChar: uni0E21
Encoding: 256 3617 156
Width: 1370
Flags: W
HStem: -20 152<274.269 406.852> 212 177<642.125 885.879> 276 142<286.784 418.178> 804 132<449.411 535.39> 1080 132<462.129 592.433>
VStem: 137 136<135.621 261.251> 313 135<937.86 1067.22> 594 164<961.474 1076.98>
Fore
313 968 m 0xbf
 313 1099 435 1212 561 1212 c 0
 701 1212 758 1122 758 1020 c 0
 758 1001 756 982 752 963 c 2
 641 389 l 1
 783 360 919 300 1049 209 c 1
 1242 1202 l 1
 1426 1202 l 1
 1192 0 l 1
 1002 0 l 1
 890 103 758 173 606 212 c 1xdf
 587 111 508 -20 303 -20 c 0
 214 -20 137 36 137 148 c 0
 137 326 293 418 388 418 c 8
 436 418 460 418 460 417 c 1
 536 807 l 1
 534 805 516 804 481 804 c 0
 381 804 313 874 313 968 c 0xbf
333 132 m 0
 380 132 420 174 420 218 c 0
 420 253 395 276 361 276 c 0xbf
 313 276 273 233 273 189 c 0
 273 154 300 132 333 132 c 0
507 936 m 0
 555 936 594 979 594 1022 c 0
 594 1057 569 1080 535 1080 c 0
 487 1080 448 1037 448 994 c 0
 448 959 473 936 507 936 c 0
EndSplineSet
EndChar
StartChar: uni0E22
Encoding: 257 3618 157
Width: 1290
Flags: W
HStem: 0 154<390 954> 509 185<558.015 752> 804 132<558.414 688.871> 1080 132<569.178 701.589>
VStem: 317 164<762.103 848> 703 135<948.785 1078.14>
Fore
644 1080 m 0
 596 1080 557 1037 557 994 c 0
 557 959 582 936 616 936 c 0
 664 936 703 979 703 1022 c 0
 703 1057 678 1080 644 1080 c 0
838 1048 m 0
 838 917 716 804 590 804 c 0
 552 804 516 819 481 848 c 1
 482 805 510 694 788 694 c 9
 752 509 l 17
 542 509 443 427 419 302 c 2
 390 154 l 1
 954 154 l 1
 1158 1202 l 1
 1342 1202 l 1
 1108 0 l 1
 162 0 l 1
 221 304 l 2
 246 433 318 553 502 606 c 1
 418 635 317 708 317 852 c 0
 317 1038 462 1212 670 1212 c 0
 770 1212 838 1142 838 1048 c 0
EndSplineSet
EndChar
StartChar: uni0E23
Encoding: 258 3619 158
Width: 1150
Flags: W
HStem: -20 132<619.804 751.384> 256 132<631.708 763.382> 1063 159<617.102 1022.16>
VStem: 484 134<113.827 242.768> 819 197<567.726 668.301>
Back
603.731 184.059 m 128
 603.731 164.059 610.731 147.059 624.731 133.059 c 128
 638.731 119.059 655.731 112.059 675.731 112.059 c 128
 695.731 112.059 712.731 119.059 726.731 133.059 c 128
 740.731 147.059 747.731 164.059 747.731 184.059 c 128
 747.731 204.059 740.731 221.059 726.731 235.059 c 128
 712.731 249.059 695.731 256.059 675.731 256.059 c 128
 655.731 256.059 638.731 249.059 624.731 235.059 c 128
 610.731 221.059 603.731 204.059 603.731 184.059 c 128
916 229 m 2
 916 160.596 894.74 102.005 852.219 53.2266 c 128
 809.698 4.44793 750.869 -19.9414 675.731 -19.9414 c 0
 619.731 -19.9414 571.731 0.0585995 531.731 40.0586 c 128
 491.731 80.0589 471.731 128.059 471.731 184.059 c 128
 471.731 240.059 491.731 288.059 531.731 328.059 c 128
 571.731 368.059 619.731 388.059 675.731 388.059 c 0
 710.278 388.059 728.367 387.039 730 385 c 1
 730 585.917 l 2
 730 696.639 644 752 472 752 c 10
 146 752 l 17
 146 890.821 188.024 1003.86 272.072 1091.12 c 128
 356.12 1178.37 475.763 1222 631 1222 c 0
 724.333 1222 802.667 1215.5 866 1202.5 c 128
 929.333 1189.5 994.667 1170 1062 1144 c 1
 1062 974 l 1
 1006 1004.67 947.667 1027.67 887 1043 c 128
 826.333 1058.33 747.333 1066 650 1066 c 0
 572.944 1066 505.946 1046.67 449.007 1008 c 128
 392.068 969.333 359.066 932.667 350 898 c 9
 542 898 l 18
 791.333 898 916 808 916 628 c 2
 916 229 l 2
EndSplineSet
Fore
678 112 m 0
 725 112 765 154 765 198 c 0
 765 233 740 256 706 256 c 0
 658 256 618 213 618 169 c 0
 618 134 645 112 678 112 c 0
484 144 m 0
 484 273 602 388 731 388 c 0
 766 388 784 387 785 385 c 1
 816 546 l 2
 818 558 819 569 819 579 c 0
 819 641 779 682 698 702 c 10
 280 802 l 17
 327 1046 l 17
 381 1083 573 1222 890 1222 c 0
 1151 1222 1254 1084 1281 999 c 9
 1107 887 l 17
 1102 995 991 1063 839 1063 c 0
 727 1063 592 1025 464 940 c 9
 799 858 l 18
 944 823 1016 751 1016 643 c 0
 1016 626 1014 607 1010 588 c 2
 941 229 l 2
 916 104 814 -20 652 -20 c 0
 552 -20 484 50 484 144 c 0
EndSplineSet
EndChar
StartChar: uni0E24
Encoding: 259 3620 159
Width: 1340
Flags: W
HStem: -10 132<407.86 541.016> 266 132<465.034 551.106> 1072 160<634.029 1046.15>
VStem: 243 163<125.445 232.495> 553 135<136.395 264.14> 1111 186<719.181 740 756 776.344 776.344 835.426 805.885 995.873>
Fore
494 266 m 0
 446 266 406 223 406 179 c 0
 406 144 433 122 466 122 c 0
 513 122 553 164 553 208 c 0
 553 243 528 266 494 266 c 0
688 234 m 0
 688 111 574 -10 440 -10 c 0
 299 -10 243 81 243 183 c 0
 243 202 244 220 248 239 c 2
 292 465 l 2
 312 566 395 702 524 760 c 1
 306 862 l 1
 343 1056 l 17
 398 1095 588 1232 905 1232 c 0
 1089 1232 1310 1158 1310 881 c 0
 1310 843 1306 802 1297 756 c 2
 1070 -410 l 17
 887 -410 l 1
 1111 740 l 2
 1118 777 1123 814 1123 849 c 0
 1123 973 1066 1072 874 1072 c 0
 726 1072 580 1017 479 950 c 1
 708 836 l 1
 679 688 l 1
 608 663 503 597 477 464 c 2
 464 395 l 1
 465 397 484 398 519 398 c 0
 619 398 688 328 688 234 c 0
EndSplineSet
EndChar
StartChar: uni0E25
Encoding: 260 3621 160
Width: 1290
Flags: W
HStem: -10 128<390.754 525.056> 267 129<449.384 538.795> 705 163<541.647 750.929> 1072 160<505.95 983.853>
VStem: 226 160<122.629 239.946> 541 137<133.427 264.686> 1082 191<768.621 970.485>
Fore
678 243 m 0
 678 91 551 -10 413 -10 c 0
 270 -10 226 74 226 183 c 0
 226 217 230 253 237 290 c 2
 275 486 l 2
 304 632 445 868 686 868 c 0
 780 868 869 828 915 742 c 0
 960 659 991 547 1009 406 c 1
 1074 740 l 2
 1080 769 1082 796 1082 822 c 0
 1082 978 983 1072 818 1072 c 0
 635 1072 472 1025 341 972 c 9
 374 1142 l 17
 418 1161 574 1232 849 1232 c 0
 1055 1232 1273 1159 1273 883 c 0
 1273 844 1269 802 1260 756 c 2
 1113 0 l 1
 909 1 l 17
 866 488 808 705 650 705 c 0
 564 705 492 645 460 477 c 2
 442 384 l 1
 459 392 482 396 506 396 c 0
 569 396 678 364 678 243 c 0
449 118 m 0
 502 118 541 168 541 207 c 0
 541 240 517 267 479 267 c 8
 435 267 386 231 386 179 c 0
 386 143 414 118 449 118 c 0
EndSplineSet
EndChar
StartChar: uni0E26
Encoding: 261 3622 161
Width: 1420
Flags: W
HStem: -10 132<238.804 370.579> 266 132<250.708 382.224> 1072 161<730.59 1136.17>
VStem: 103 134<123.827 252.768> 1205 188<719.213 740 756 774.767 774.767 835.426 805.096 997.334>
Fore
297 122 m 0
 344 122 384 164 384 208 c 0
 384 243 359 266 325 266 c 0
 277 266 237 223 237 179 c 0
 237 144 264 122 297 122 c 0
103 154 m 0
 103 283 221 398 350 398 c 0
 385 398 402 397 403 394 c 1
 424 506 l 2
 439 579 489 721 620 760 c 1
 402 862 l 1
 439 1056 l 17
 596 1168 803 1233 986 1233 c 0
 1182 1233 1406 1159 1406 881 c 0
 1406 843 1402 802 1393 756 c 2
 1166 -409 l 1
 981 -409 l 1
 1205 740 l 2
 1213 780 1217 817 1217 850 c 0
 1217 998 1137 1072 960 1072 c 0
 816 1072 673 1015 575 950 c 1
 804 836 l 1
 775 688 l 1
 709 661 633 615 611 506 c 2
 559 239 l 2
 535 115 434 -10 271 -10 c 0
 171 -10 103 60 103 154 c 0
EndSplineSet
EndChar
StartChar: uni0E27
Encoding: 262 3623 162
Width: 1140
Flags: W
HStem: -20 132<667.804 799.84> 256 132<679.708 811.54> 1066 156<408.051 838.58>
VStem: 532 134<113.827 242.768> 920 180<797.804 989.435>
Fore
726 112 m 0
 773 112 813 154 813 198 c 0
 813 233 788 256 754 256 c 0
 706 256 666 213 666 169 c 0
 666 134 693 112 726 112 c 0
532 144 m 0
 532 273 650 388 779 388 c 0
 813 388 831 387 833 385 c 1
 913 796 l 2
 917 819 920 841 920 861 c 0
 920 1000 817 1066 649 1066 c 0
 540 1066 410 1043 269 974 c 1
 302 1144 l 1
 398 1178 547 1222 699 1222 c 0
 1005 1222 1100 1071 1100 875 c 0
 1100 824 1094 769 1083 714 c 2
 989 229 l 2
 965 106 864 -20 700 -20 c 0
 600 -20 532 50 532 144 c 0
EndSplineSet
EndChar
StartChar: uni0E28
Encoding: 263 3624 163
Width: 1350
Flags: W
HStem: 0 21G<195 402 953 1140.88> 451 132<676.395 808.292> 727 132<687.926 820.196> 1064 160<638.731 997.839>
VStem: 822 134<596.232 725.173> 1107 182<757.875 889.601>
Fore
956 695 m 0
 956 566 838 451 709 451 c 0
 653 451 609 471 576 511 c 1
 492 386 426 215 378 0 c 1
 195 0 l 1
 260 678 l 2
 263 709 266 738 272 766 c 0
 349 1164 723 1224 874 1224 c 0
 966 1224 1094 1205 1178 1128 c 1
 1237 1177 1296 1240 1358 1315 c 9
 1436 1150 l 17
 1382 1094 1325 1044 1267 1001 c 1
 1281 963 1289 917 1289 861 c 0
 1289 809 1283 749 1269 681 c 2
 1137 0 l 1
 953 0 l 1
 1097 743 l 2
 1104 777 1107 808 1107 838 c 0
 1107 856 1106 874 1103 891 c 1
 1067 868 1022 843 969 818 c 9
 914 922 l 17
 957 949 998 979 1038 1012 c 1
 994 1047 930 1064 847 1064 c 0
 525 1064 454 823 445 737 c 2
 407 428 l 1
 418 484 523 709 622 790 c 0
 677 836 732 859 788 859 c 0
 888 859 956 789 956 695 c 0
734 583 m 0
 782 583 822 626 822 670 c 0
 822 705 795 727 762 727 c 0
 715 727 675 685 675 641 c 0
 675 606 700 583 734 583 c 0
EndSplineSet
EndChar
StartChar: uni0E29
Encoding: 264 3625 164
Width: 1420
Flags: MW
HStem: 0 154<556 1064> 416 136<815.435 947.317> 696 114<826.041 958.672> 804 132<410.411 496.39> 1080 132<423.129 553.433>
VStem: 274 135<937.86 1067.22> 340 216<0 154> 555 164<961.474 1076.98> 686 127<554.084 682.918> 960 125<589.845 694.189>
AnchorPoint: "AboveBase" 1503 1340 basechar 0
Back
678 634 m 128
 678 614 685 597 699 583 c 128
 713 569 730 562 750 562 c 128
 770 562 787 569 801 583 c 128
 815 597 822 614 822 634 c 128
 822 654 815 671 801 685 c 128
 787 699 770 706 750 706 c 128
 730 706 713 699 699 685 c 128
 685 671 678 654 678 634 c 128
214 1008 m 128
 214 988 221 971 235 957 c 128
 249 943 266 936 286 936 c 128
 306 936 323 943 337 957 c 128
 351 971 358 988 358 1008 c 128
 358 1028 351 1045 337 1059 c 128
 323 1073 306 1080 286 1080 c 128
 266 1080 249 1073 235 1059 c 128
 221 1045 214 1028 214 1008 c 128
932.973 567.945 m 1
 1019 607 l 9
 1019 1202 l 1
 1201 1202 l 1
 1201 703 l 25
 1297 778 l 17
 1324 616 l 1
 1201 545 l 9
 1201 0 l 1
 340 0 l 1
 340 807 l 1
 338.667 805 320.667 804 286 804 c 0
 230 804 182 824 142 864 c 128
 102 904 82 952 82 1008 c 128
 82 1064 102 1112 142 1152 c 128
 182 1192 230 1212 286 1212 c 0
 361.333 1212 420.167 1187.67 462.5 1139 c 128
 504.833 1090.33 526 1031.67 526 963 c 2
 526 154 l 1
 1019 154 l 1
 1019 477 l 17
 907.027 443 824.694 426 772 426 c 0
 705.297 426 652.498 445.182 613.603 483.547 c 128
 574.708 521.912 555.619 571.158 556.334 631.283 c 0
 556.993 686.621 577.122 732.313 616.722 768.359 c 128
 656.322 804.406 705.931 821.522 765.548 819.707 c 0
 802.119 818.594 840.739 803.835 881.408 775.431 c 128
 922.078 747.027 942.8 701.193 943.573 637.928 c 0
 944.191 609.976 940.658 586.648 932.973 567.945 c 1
EndSplineSet
Fore
468 936 m 0xdd40
 516 936 555 979 555 1022 c 0
 555 1057 530 1080 496 1080 c 0
 448 1080 409 1037 409 994 c 0
 409 959 434 936 468 936 c 0xdd40
686 574 m 0xdcc0
 686 683 778 810 929 810 c 0xecc0
 978 810 1085 782 1085 669 c 0
 1085 647 1079 595 1056 558 c 1
 1150 597 l 9
 1268 1202 l 1
 1450 1202 l 1
 1351 693 l 25
 1461 768 l 17
 1457 606 l 1
 1320 535 l 9
 1216 0 l 1
 340 0 l 1
 497 807 l 1
 495 805 477 804 442 804 c 0
 342 804 274 874 274 968 c 0
 274 1099 396 1212 522 1212 c 0
 662 1212 719 1122 719 1020 c 0xdd40
 719 1001 717 982 713 963 c 2
 556 154 l 1
 1064 154 l 1
 1125 467 l 17
 1006 433 920 416 865 416 c 0
 740 416 686 490 686 574 c 0xdcc0
872 552 m 0
 920 552 960 595 960 639 c 0
 960 674 933 696 900 696 c 0
 853 696 813 654 813 610 c 0
 813 575 838 552 872 552 c 0
EndSplineSet
EndChar
StartChar: uni0E2A
Encoding: 265 3626 165
Width: 1290
Flags: W
HStem: -10 128<390.754 525.056> 267 129<449.391 539.095> 705 163<542.697 752.672> 1072 160<505.95 982.118>
VStem: 226 160<120.549 239.946> 541 137<133.427 264.686> 1083 190<770.335 886.179>
Back
372.5 1602.5 m 17
 499.167 1695.83 621.667 1826.67 740 1995 c 9
 850 1830 l 17
 759.601 1708.33 625.434 1597.5 447.5 1497.5 c 9
 372.5 1602.5 l 17
702.5 1532.5 m 17
 829.167 1625.83 951.667 1756.67 1070 1925 c 9
 1135 1735 l 17
 1036.78 1613.33 917.615 1510.83 777.5 1427.5 c 9
 702.5 1532.5 l 17
108.735 1077.92 m 1
 129.735 1094.26 l 2
 201.872 1141.02 271.331 1174.32 338.114 1194.16 c 128
 404.897 1214 488.193 1223.92 588 1223.92 c 0
 712.479 1223.92 815.057 1195.61 895.735 1139 c 1
 987.735 1285.92 l 1
 1129.74 1179.92 l 1
 1005.82 1019.92 l 1
 1050.08 945.255 1072.14 854.588 1072 747.918 c 2
 1072.26 0 l 1
 869.266 -0.000976562 l 1
 845.434 77.9342 845.434 77.9342 826.993 134.967 c 128
 814.699 172.989 799.388 217.391 781.059 268.174 c 128
 762.73 318.957 745.559 362.436 729.544 398.613 c 128
 713.529 434.79 695.007 472.048 673.977 510.386 c 128
 652.947 548.723 632.357 579.754 612.208 603.478 c 128
 592.059 627.202 569.913 646.706 545.768 661.991 c 128
 521.623 677.276 497.278 684.918 472.735 684.918 c 0
 447.726 684.918 425.355 677.792 405.621 663.539 c 128
 385.887 649.286 370.354 630.68 359.023 607.719 c 128
 347.692 584.758 339.124 560.396 333.318 534.633 c 128
 327.513 508.87 324.583 482.965 324.529 456.918 c 2
 323 372 l 1
 341 380.667 364 384.667 392 384 c 0
 446.667 382 493.667 364 533 330 c 128
 572.333 296 592.333 249.333 593 190 c 0
 594.333 122 573.667 69.6667 531 33 c 128
 488.333 -3.66667 432.333 -22.3333 363 -23 c 0
 295.677 -23.5064 241.304 1.94313 199.881 53.3486 c 128
 158.457 104.754 138.006 179.62 138.529 277.947 c 2
 138.735 495.918 l 2
 138.677 521.337 142.366 548.899 149.803 578.604 c 128
 157.239 608.309 169.61 639.183 186.915 671.224 c 128
 204.22 703.266 225.154 732.2 249.717 758.026 c 128
 274.28 783.852 305.632 805.124 343.775 821.842 c 128
 381.918 838.559 423.572 846.918 468.735 846.918 c 0
 509.551 846.918 548.72 838.768 586.242 822.469 c 128
 623.764 806.17 656.2 785.185 683.549 759.515 c 128
 710.898 733.846 736.364 705.118 759.949 673.333 c 128
 783.534 641.548 803.038 610.279 818.459 579.524 c 128
 833.88 548.769 847.102 520.042 858.125 493.342 c 128
 869.147 466.641 877.093 445.657 881.962 430.388 c 128
 886.831 415.119 889.265 406.97 889.265 405.939 c 1
 889 731.918 l 2
 889 793.815 881.789 846.481 867.367 889.918 c 1
 700.735 786.918 l 1
 650.735 879.311 l 1
 788.234 1005.92 l 1
 742.019 1041.16 675.275 1060.49 588 1063.92 c 0
 522.757 1066.48 456.591 1055.95 389.503 1032.34 c 128
 322.415 1008.73 264.616 978.528 216.107 941.729 c 2
 147.735 882.918 l 1
 108.735 1077.92 l 1
385 255 m 152
 364.333 255 346.333 248 331 234 c 128
 315.667 220 308 202.667 308 182 c 128
 308 161.333 315.5 143.5 330.5 128.5 c 128
 345.5 113.5 363.333 106 384 106 c 128
 404.667 106 422.5 113.5 437.5 128.5 c 128
 452.5 143.5 460 161.333 460 182 c 0
 460 202 452.667 219.167 438 233.5 c 128
 423.333 247.833 405.667 255 385 255 c 152
EndSplineSet
Fore
678 243 m 0
 678 91 551 -10 413 -10 c 0
 270 -10 226 75 226 183 c 0
 226 217 230 253 237 290 c 2
 275 486 l 2
 306 641 450 868 685 868 c 0
 780 868 868 828 915 742 c 0
 960 659 991 547 1009 406 c 1
 1074 740 l 2
 1080 769 1083 796 1083 822 c 0
 1083 845 1080 867 1076 887 c 1
 949 818 l 9
 894 922 l 17
 933 947 973 975 1011 1005 c 1
 966 1049 901 1072 818 1072 c 0
 635 1072 472 1025 341 972 c 9
 374 1142 l 17
 418 1162 574 1232 849 1232 c 0
 988 1232 1094 1201 1167 1139 c 1
 1222 1192 1278 1251 1338 1315 c 9
 1416 1150 l 17
 1369 1100 1315 1052 1256 1006 c 1
 1267 969 1273 928 1273 882 c 0
 1273 843 1269 801 1260 756 c 2
 1113 0 l 1
 909 0 l 17
 865 492 808 705 650 705 c 0
 564 705 493 646 460 477 c 2
 442 384 l 1
 459 392 482 396 507 396 c 0
 569 396 678 364 678 243 c 0
449 118 m 0
 502 118 541 168 541 207 c 0
 541 240 517 267 479 267 c 8
 435 267 386 231 386 179 c 0
 386 143 414 118 449 118 c 0
EndSplineSet
EndChar
StartChar: uni0E2B
Encoding: 266 3627 166
Width: 1410
Flags: W
HStem: 0 21G<344 577.5 1042 1228.89> 804 132<414.411 500.39> 1080 132<427.129 557.632 1150.41 1282.59>
VStem: 278 135<937.86 1067.22> 559 164<961.42 1078.35> 1003 135<938.157 1067.96> 1165 188<621.152 631 631 649.546 649.546 683.046 666.296 734.829> 1284 135<971.429 1078.14>
Fore
1197 936 m 0xfd
 1245 936 1284 979 1284 1022 c 0
 1284 1057 1259 1080 1225 1080 c 0
 1177 1080 1138 1037 1138 994 c 0
 1138 959 1163 936 1197 936 c 0xfd
472 936 m 0
 520 936 559 979 559 1022 c 0
 559 1057 534 1080 500 1080 c 0
 452 1080 413 1037 413 994 c 0
 413 959 438 936 472 936 c 0
1003 967 m 0
 1003 1091 1117 1212 1251 1212 c 0
 1351 1212 1419 1142 1419 1048 c 0xfd
 1419 998 1400 908 1286 839 c 1
 1334 810 1358 766 1358 708 c 0
 1358 692 1356 676 1353 658 c 2
 1225 0 l 1
 1042 0 l 1
 1165 631 l 2xfe
 1168 644 1169 657 1169 668 c 0
 1169 716 1143 740 1092 740 c 0
 1056 740 1013 713 962 658 c 0
 762 442 629 240 526 0 c 1
 344 0 l 25
 501 807 l 17
 499 805 481 804 446 804 c 0
 346 804 278 874 278 968 c 0
 278 1099 400 1212 526 1212 c 0
 668 1212 723 1119 723 1019 c 0
 723 1000 721 982 717 963 c 10
 618 454 l 1
 711 567 926 797 1039 864 c 1
 1015 894 1003 928 1003 967 c 0
EndSplineSet
EndChar
StartChar: uni0E2C
Encoding: 267 3628 167
Width: 1480
Flags: W
HStem: 0 21G<328 531.436 1052.51 1263.89> 804 132<398.411 484.39> 998 132<1216.8 1291 1260 1271> 1080 132<411.129 541.433> 1274 132<1228.71 1359.17>
VStem: 262 135<937.86 1067.22> 543 164<961.474 1076.98> 1081 134<1131.83 1260.77>
AnchorPoint: "AboveBase" 986 1262 basechar 0
Fore
262 968 m 0xef
 262 1099 384 1212 510 1212 c 0xdf
 650 1212 707 1122 707 1020 c 0
 707 1001 705 982 701 963 c 2
 586 372 l 1
 900 988 l 1
 1076 988 l 1
 1150 376 l 1
 1271 1000 l 17
 1264 999 1256 998 1249 998 c 0
 1149 998 1081 1068 1081 1162 c 0
 1081 1291 1199 1406 1328 1406 c 0
 1439 1406 1495 1323 1497 1249 c 9
 1615 1300 l 1
 1656 1156 l 1
 1469 1074 l 25
 1260 0 l 1
 1055 0 l 1
 952 826 l 1
 521 0 l 1
 328 0 l 1
 485 807 l 1
 483 805 465 804 430 804 c 0
 330 804 262 874 262 968 c 0xef
1275 1130 m 0xef
 1322 1130 1362 1172 1362 1216 c 0
 1362 1251 1337 1274 1303 1274 c 0
 1255 1274 1215 1231 1215 1187 c 0
 1215 1152 1242 1130 1275 1130 c 0xef
456 936 m 0
 504 936 543 979 543 1022 c 0
 543 1057 518 1080 484 1080 c 0xdf
 436 1080 397 1037 397 994 c 0
 397 959 422 936 456 936 c 0
EndSplineSet
EndChar
StartChar: uni0E2D
Encoding: 268 3629 168
Width: 1220
Flags: W
HStem: 0 154<399 891> 449 132<477.522 607.871> 725 132<489.386 620.589> 1066 156<511.051 941.58>
VStem: 622 135<593.785 723.14> 1023 180<784.594 989.435>
Fore
563 725 m 0
 515 725 476 682 476 639 c 0
 476 604 501 581 535 581 c 0
 583 581 622 624 622 667 c 0
 622 702 597 725 563 725 c 0
757 693 m 0
 757 562 635 449 509 449 c 0
 475 449 457 450 457 452 c 1
 399 154 l 1
 891 154 l 1
 1016 795 l 2
 1020 818 1023 840 1023 861 c 0
 1023 1000 920 1066 752 1066 c 0
 643 1066 513 1043 372 974 c 1
 405 1144 l 1
 501 1178 650 1222 802 1222 c 0
 1108 1222 1203 1071 1203 875 c 0
 1203 824 1197 769 1186 714 c 2
 1047 0 l 1
 182 0 l 1
 300 608 l 2
 324 731 424 857 589 857 c 0
 689 857 757 787 757 693 c 0
EndSplineSet
EndChar
StartChar: uni0E2E
Encoding: 269 3630 169
Width: 1220
Flags: W
HStem: 0 154<366 868> 319 132<418.412 552.016> 595 132<430.584 562.106> 781 147<531.446 887.832> 1092 141<580.259 899.488>
VStem: 336 174<957.317 1060.62> 564 135<465.395 593.14> 991 186<770.326 893.219>
Fore
336 987 m 0
 336 1135 539 1233 767 1233 c 0
 897 1233 1029 1198 1105 1105 c 9
 1258 1240 l 17
 1290 1067 l 1
 1167 972 l 1
 1174 943 1177 911 1177 878 c 0
 1177 840 1173 799 1164 756 c 2
 1017 0 l 1
 149 0 l 1
 242 478 l 2
 266 600 365 727 530 727 c 0
 630 727 699 657 699 563 c 0
 699 440 585 319 451 319 c 0
 417 319 399 320 399 322 c 9
 366 154 l 17
 868 154 l 1
 982 740 l 2
 988 773 991 806 991 840 c 0
 991 852 991 864 990 876 c 1
 885 810 762 781 652 781 c 0
 431 781 336 887 336 987 c 0
705 1092 m 0
 638 1092 510 1069 510 1013 c 0
 510 966 583 928 691 928 c 0
 788 928 918 963 953 1002 c 1
 893 1072 805 1092 705 1092 c 0
505 595 m 0
 457 595 417 552 417 508 c 0
 417 473 444 451 477 451 c 0
 524 451 564 493 564 537 c 0
 564 572 539 595 505 595 c 0
EndSplineSet
EndChar
StartChar: uni0E2F
Encoding: 270 3631 170
Width: 1200
Flags: W
HStem: 0 21G<810 996.879> 736 190<427.853 671.578> 1070 132<440.559 570.589>
VStem: 291 135<929.461 1057.27> 572 135<938.589 1068.14>
Fore
291 955 m 0
 291 1092 415 1202 539 1202 c 0
 639 1202 707 1132 707 1038 c 0
 707 978 682 926 650 889 c 1
 824 924 953 1055 1050 1202 c 1
 1192 1026 l 1
 993 0 l 1
 810 0 l 1
 987 909 l 17
 873 803 727 736 539 736 c 0
 354 736 291 855 291 955 c 0
485 926 m 0
 533 926 572 969 572 1012 c 0
 572 1047 547 1070 513 1070 c 0
 465 1070 426 1027 426 984 c 0
 426 949 451 926 485 926 c 0
EndSplineSet
EndChar
StartChar: uni0E30
Encoding: 271 3632 171
Width: 1040
Flags: W
HStem: 12 197<281.924 507.992> 352 113<262.67 400.457> 679 197<412.785 639.967> 1019 113<393.44 530.346>
VStem: 128 120<219.388 338.314> 258 121<878.31 1005.05> 403 121<221.016 348.639> 533 122<887.821 1017.09>
Fore
443 876 m 0
 501 876 533 922 533 961 c 0
 533 991 514 1019 471 1019 c 0
 416 1019 379 971 379 932 c 0
 379 895 409 876 443 876 c 0
655 978 m 0
 655 899 603 842 562 817 c 1
 679 827 903 936 1043 1098 c 1
 1062 894 l 1
 1006 842 765 679 535 679 c 0
 446 679 382 696 345 728 c 0
 295 771 258 811 258 889 c 0
 258 1073 434 1132 500 1132 c 0
 592 1132 655 1065 655 978 c 0
313 209 m 0
 371 209 403 255 403 293 c 0
 403 324 383 352 339 352 c 0
 289 352 248 308 248 264 c 0
 248 228 279 209 313 209 c 0
128 223 m 0
 128 407 293 465 368 465 c 0
 454 465 524 402 524 311 c 0
 524 228 468 173 431 150 c 1
 627 180 785 288 913 431 c 1
 931 227 l 1
 854 156 615 12 405 12 c 0
 315 12 251 28 214 62 c 0
 173 97 128 135 128 223 c 0
EndSplineSet
EndChar
StartChar: uni0E31
Encoding: 272 3633 172
Width: 0
Flags: W
HStem: 1362 130<-212 -119.038> 1678 104<-381.85 -247.46>
VStem: -503 111<1546.67 1666.88> -246 110<1555.59 1675.22>
AnchorPoint: "AboveMark" 59 1958 basemark 0
AnchorPoint: "AboveBase" 8 1340 mark 0
Fore
-304 1678 m 0
 -357 1678 -392 1636 -392 1599 c 0
 -392 1568 -369 1544 -334 1544 c 8
 -293 1544 -246 1574 -246 1622 c 0
 -246 1655 -271 1678 -304 1678 c 0
-136 1644 m 0
 -136 1587 -159 1524 -212 1492 c 1
 -81 1492 115 1539 361 1794 c 1
 375 1592 l 1
 89 1365 -151 1362 -227 1362 c 0
 -386 1362 -503 1424 -503 1554 c 0
 -503 1700 -383 1782 -278 1782 c 0
 -194 1782 -136 1727 -136 1644 c 0
EndSplineSet
EndChar
StartChar: uni0E32
Encoding: 273 3634 173
Width: 1130
Flags: W
HStem: 0 21G<758 947.894> 1066 156<407.362 837.75>
VStem: 269 831<974 1010.93 874 974 974 974> 920 180<785.983 986.588>
Fore
649 1066 m 0xd0
 505 1066 377 1027 269 974 c 1
 302 1144 l 1
 417 1185 556 1222 699 1222 c 0
 971 1222 1100 1103 1100 874 c 0xe0
 1100 826 1094 772 1083 714 c 2
 944 0 l 25
 758 0 l 1
 913 796 l 2
 917 819 920 841 920 861 c 0
 920 1000 817 1066 649 1066 c 0xd0
EndSplineSet
EndChar
StartChar: uni0E34
Encoding: 275 3636 175
Width: 0
Flags: W
HStem: 1441 131<-639 -522.669 -522.669 -273.536> 1707 126<-528.781 -204.294>
VStem: -844 970<1432 1542 1505.07 1586.51>
AnchorPoint: "AboveMark" 106 1958 basemark 0
AnchorPoint: "AboveBase" 83 1340 mark 0
Fore
-40 1509 m 1
 -78 1588 -218 1707 -370 1707 c 0
 -484 1707 -578 1643 -639 1572 c 1
 -369 1572 l 2
 -312 1572 -249 1563 -201 1552 c 2
 -130 1534 l 2
 -61 1518 -44 1509 -40 1509 c 1
-812 1593 m 1
 -705 1740 -496 1833 -337 1833 c 0
 -106 1833 47 1681 126 1542 c 1
 51 1344 l 1
 -62 1370 -199 1440 -404 1440 c 0
 -497 1440 -576 1441 -640 1441 c 0
 -737 1441 -803 1439 -844 1432 c 1
 -812 1593 l 1
EndSplineSet
EndChar
StartChar: uni0E35
Encoding: 276 3637 176
Width: 0
Flags: W
HStem: 1434 423<-858 130 32.07 112.577> 1434 132<-649.148 -286.966> 1434 69<-417 -53> 1701 126<-541.876 -216.437>
AnchorPoint: "AboveBase" 71 1340 mark 0
AnchorPoint: "AboveMark" 65 1958 basemark 0
Fore
-53 1503 m 1x20
 -91 1582 -231 1701 -383 1701 c 0
 -497 1701 -591 1637 -653 1566 c 1
 -383 1566 l 2x50
 -326 1566 -262 1557 -214 1546 c 2
 -143 1528 l 2
 -74 1512 -57 1503 -53 1503 c 1x20
-826 1587 m 1
 -718 1734 -509 1827 -350 1827 c 0x10
 -250 1827 -155 1796 -65 1733 c 1
 -41 1857 l 1
 130 1857 l 1
 78 1590 l 1
 91 1572 102 1554 113 1536 c 1
 38 1338 l 1
 -75 1364 -212 1434 -417 1434 c 2
 -609 1434 l 2x80
 -720 1434 -799 1433 -858 1422 c 1
 -826 1587 l 1
EndSplineSet
EndChar
StartChar: uni0E36
Encoding: 277 3638 177
Width: 0
Flags: W
HStem: 1429 131<-654 -536.669 -536.669 -288.536> 1695 126<-543.115 -217.897> 1790 113<1.29372 133.97>
VStem: 136 115<1663.37 1788.2>
AnchorPoint: "AboveBase" 71 1340 mark 0
AnchorPoint: "AboveMark" 109 1958 basemark 0
Fore
-54 1497 m 1xd0
 -93 1576 -233 1695 -385 1695 c 0
 -499 1695 -592 1631 -654 1560 c 1
 -384 1560 l 2
 -327 1560 -264 1551 -216 1540 c 2
 -144 1522 l 2
 -75 1506 -58 1497 -54 1497 c 1xd0
251 1762 m 0
 251 1673 192 1582 100 1552 c 1
 99 1551 104 1544 111 1530 c 1
 37 1332 l 1
 -76 1358 -213 1428 -418 1428 c 0
 -511 1428 -590 1429 -654 1429 c 0
 -751 1429 -818 1427 -858 1420 c 1
 -827 1581 l 1
 -719 1728 -510 1821 -351 1821 c 0xd0
 -267 1821 -184 1797 -103 1750 c 1
 -92 1780 -39 1903 98 1903 c 0xb0
 197 1903 251 1843 251 1762 c 0
50 1651 m 0
 95 1651 136 1690 136 1734 c 0
 136 1766 113 1790 77 1790 c 8xb0
 26 1790 -11 1745 -11 1707 c 0
 -11 1675 13 1651 50 1651 c 0
EndSplineSet
EndChar
StartChar: uni0E37
Encoding: 278 3639 178
Width: 0
Flags: W
HStem: 1426 461<-858 132 49.07 129.577> 1427 129<-655 -537.669 -537.669 -288.966> 1693 126<-543.508 -270.717>
AnchorPoint: "AboveBase" 71 1340 mark 0
AnchorPoint: "AboveMark" -44 1958 basemark 0
Fore
-55 1493 m 1x60
 -94 1574 -233 1693 -385 1693 c 0
 -499 1693 -593 1628 -655 1556 c 1
 -385 1556 l 2
 -328 1556 -264 1547 -216 1536 c 2
 -145 1518 l 2
 -76 1502 -59 1493 -55 1493 c 1x60
-827 1579 m 1
 -720 1726 -510 1819 -351 1819 c 0x60
 -326 1819 -297 1816 -263 1809 c 1
 -248 1888 l 1
 -92 1888 l 1
 -117 1759 l 17
 -108 1754 -59 1718 -57 1717 c 1
 -24 1887 l 1
 132 1887 l 1
 73 1585 l 1
 92 1558 104 1539 111 1528 c 1
 37 1330 l 1
 -76 1356 -214 1426 -419 1426 c 0x80
 -512 1426 -591 1427 -655 1427 c 0
 -752 1427 -818 1425 -858 1418 c 1
 -827 1579 l 1
EndSplineSet
EndChar
StartChar: uni0E38
Encoding: 279 3640 179
Width: 0
Flags: W
HStem: -424 92<-503.974 -428.11> -226 106<-501.115 -391.23>
VStem: -595 90<-330.565 -231.407> -391 144<-317.938 -237.193>
AnchorPoint: "BelowBase" -214 -120 mark 0
Fore
-595 -304 m 0
 -595 -213 -509 -120 -409 -120 c 0
 -335 -120 -247 -150 -247 -264 c 0
 -247 -281 -249 -299 -253 -319 c 2
 -293 -523 l 1
 -448 -523 l 1
 -427 -416 l 1
 -437 -421 -453 -424 -476 -424 c 0
 -542 -424 -595 -374 -595 -304 c 0
-457 -332 m 0
 -418 -332 -391 -296 -391 -269 c 0
 -391 -245 -408 -226 -436 -226 c 8
 -479 -226 -505 -261 -505 -288 c 0
 -505 -313 -486 -332 -457 -332 c 0
EndSplineSet
Substitution2: "Thai Sara U Mai Ek Reordering" uni0E48.low
Substitution2: "Thai Sara U Mai Tho Reordering" uni0E49.low
Substitution2: "Thai Sara U Mai Tri Reordering" uni0E4A.low
Substitution2: "Thai Sara U Mai Chattawa Reordering" uni0E4B.low
Substitution2: "Thai Sara U Thanthakhat Reordering" uni0E4C.low
Substitution2: "Thai Sara U Nikhahit Reordering" uni0E4D
EndChar
StartChar: uni0E39
Encoding: 280 3641 180
Width: 0
Flags: W
HStem: -524 102<-598 -457> -424 92<-828.474 -752.228> -226 106<-825.47 -715.731>
VStem: -920 91<-330.599 -231.671> -715 143<-317.797 -227.776>
AnchorPoint: "BelowBase" -214 -120 mark 0
Fore
-920 -304 m 0x78
 -920 -213 -833 -120 -734 -120 c 0
 -660 -120 -572 -150 -572 -264 c 0
 -572 -281 -574 -299 -578 -319 c 2
 -598 -422 l 1
 -457 -422 l 1
 -399 -126 l 1
 -244 -126 l 1
 -322 -524 l 1
 -772 -524 l 1xb8
 -751 -416 l 1
 -761 -421 -778 -424 -801 -424 c 0
 -867 -424 -920 -374 -920 -304 c 0x78
-782 -332 m 0x78
 -745 -332 -715 -299 -715 -269 c 0
 -715 -245 -733 -226 -761 -226 c 8
 -793 -226 -829 -251 -829 -289 c 0
 -829 -313 -811 -332 -782 -332 c 0x78
EndSplineSet
Substitution2: "Thai Sara UU Mai Ek Reordering" uni0E48.low
Substitution2: "Thai Sara UU Mai Tho Reordering" uni0E49.low
Substitution2: "Thai Sara UU Mai Tri Reordering" uni0E4A.low
Substitution2: "Thai Sara UU Mai Chattawa Reordering" uni0E4B.low
Substitution2: "Thai Sara UU Thanthakhat Reordering" uni0E4C.low
Substitution2: "Thai Sara UU Nikhahit Reordering" uni0E4D
EndChar
StartChar: uni0E3A
Encoding: 281 3642 181
Width: 0
Flags: W
HStem: -382 270<-431.753 -269.927>
VStem: -486 274<-325.097 -168.234>
AnchorPoint: "BelowBase" -214 -120 mark 0
Fore
-486 -270 m 0
 -486 -194 -412 -112 -324 -112 c 0
 -256 -112 -212 -165 -212 -223 c 0
 -212 -306 -296 -382 -376 -382 c 0
 -439 -382 -486 -333 -486 -270 c 0
EndSplineSet
Substitution2: "Thai Phinthu Maitaikhu Reordering" uni0E47
Substitution2: "Thai Phinthu Mai Ek Reordering" uni0E48.low
Substitution2: "Thai Phinthu Mai Tho Reordering" uni0E49.low
Substitution2: "Thai Phinthu Mai Tri Reordering" uni0E4A.low
Substitution2: "Thai Phinthu Mai Chattawa Reordering" uni0E4B.low
Substitution2: "Thai Phinthu Thanthakhat Reordering" uni0E4C.low
Substitution2: "Thai Phinthu Nikhahit Reordering" uni0E4D
EndChar
StartChar: uni0E3F
Encoding: 283 3647 182
Width: 1250
Flags: W
HStem: 0 170<381 541 687 861.376> 719 166<520 681 825 886.5> 1321 168<605 798 942 1068.03>
VStem: 1051 208<352.537 649.678> 1109 214<1047.86 1276.12>
Fore
1259 546 m 0xf0
 1259 260 998 0 653 0 c 1
 627 -133 l 1
 515 -133 l 1
 541 0 l 1
 152 0 l 1
 441 1489 l 1
 830 1489 l 1
 851 1595 l 1
 963 1595 l 1
 942 1489 l 1
 1140 1489 1323 1434 1323 1228 c 0xe8
 1323 1049 1202 918 1108 865 c 2
 1044 827 l 1
 1205 779 1259 665 1259 546 c 0xf0
713 885 m 1
 798 1321 l 1
 605 1321 l 1
 520 885 l 1
 713 885 l 1
825 887 m 1
 882 887 939 905 997 941 c 0
 1082 996 1109 1113 1109 1176 c 0
 1109 1289 1016 1319 909 1319 c 1
 825 887 l 1
574 170 m 1
 681 719 l 1
 488 719 l 1
 381 170 l 1
 574 170 l 1
687 174 m 1
 890 174 1051 310 1051 539 c 0xf0
 1051 672 927 717 792 717 c 1
 687 174 l 1
EndSplineSet
EndChar
StartChar: uni0E40
Encoding: 284 3648 183
Width: 740
Flags: W
HStem: -10 132<386.991 520.249> 266 131<478 487.977 457.988 530.208> 1182 20G<447.111 635>
VStem: 251 134<123.951 223.369> 532 135<136.503 263.864>
Fore
667 233 m 0
 667 112 554 -10 419 -10 c 0
 320 -10 251 60 251 154 c 0
 251 167 252 180 255 194 c 2
 451 1202 l 1
 635 1202 l 1
 478 397 l 17
 484 398 491 398 498 398 c 0
 598 398 667 328 667 233 c 0
473 266 m 0
 428 266 385 227 385 179 c 0
 385 148 408 122 445 122 c 0
 487 122 532 160 532 208 c 0
 532 240 511 266 473 266 c 0
EndSplineSet
EndChar
StartChar: uni0E41
Encoding: 285 3649 184
Width: 1290
Flags: W
HStem: -10 132<376.991 510.249 936.991 1070.25> 266 131<468 477.977 447.988 520.208 1028 1037.98 1007.99 1080.21> 1182 20G<437.111 625 997.111 1185>
VStem: 241 134<123.951 223.369> 522 135<136.503 263.864> 801 134<123.951 223.369> 1082 135<136.503 263.864>
Fore
1217 233 m 0
 1217 112 1104 -10 969 -10 c 0
 870 -10 801 60 801 154 c 0
 801 167 802 180 805 194 c 2
 1001 1202 l 1
 1185 1202 l 1
 1028 397 l 17
 1034 398 1041 398 1048 398 c 0
 1148 398 1217 328 1217 233 c 0
1023 266 m 0
 978 266 935 227 935 179 c 0
 935 148 958 122 995 122 c 0
 1037 122 1082 160 1082 208 c 0
 1082 240 1061 266 1023 266 c 0
657 233 m 0
 657 112 544 -10 409 -10 c 0
 310 -10 241 60 241 154 c 0
 241 167 242 180 245 194 c 2
 441 1202 l 1
 625 1202 l 1
 468 397 l 17
 474 398 481 398 488 398 c 0
 588 398 657 328 657 233 c 0
463 266 m 0
 418 266 375 227 375 179 c 0
 375 148 398 122 435 122 c 0
 477 122 522 160 522 208 c 0
 522 240 501 266 463 266 c 0
EndSplineSet
EndChar
StartChar: uni0E42
Encoding: 286 3650 185
Width: 930
Flags: W
HStem: -10 132<583.304 713.764> 266 131<677 686.023 653.512 726.606> 1780 160<582.786 985.367>
VStem: 448 133<123.827 223.47> 663 195<1285.56 1380.08> 728 136<136.395 264.14>
Fore
864 234 m 0xf4
 864 111 750 -10 616 -10 c 0
 516 -10 448 60 448 154 c 0
 448 167 449 180 452 194 c 2
 660 1264 l 2
 662 1274 663 1283 663 1292 c 0
 663 1350 623 1393 542 1420 c 10
 243 1520 l 17
 291 1764 l 17
 344 1801 536 1940 853 1940 c 0
 1114 1940 1217 1802 1245 1717 c 9
 1071 1605 l 17
 1070 1616 1060 1780 811 1780 c 0
 668 1780 525 1723 427 1658 c 9
 642 1576 l 18
 786 1521 858 1445 858 1348 c 0xf8
 858 1334 857 1320 854 1306 c 2
 677 397 l 17
 684 398 689 398 695 398 c 0
 795 398 864 328 864 234 c 0xf4
641 122 m 0
 688 122 728 164 728 208 c 0xf4
 728 243 703 266 669 266 c 0
 621 266 581 223 581 179 c 0
 581 144 608 122 641 122 c 0
EndSplineSet
EndChar
StartChar: uni0E43
Encoding: 287 3651 186
Width: 830
Flags: MW
HStem: -10 132<472.304 602.764> 266 131<565 575 542 613.419> 1362 144<403.001 564.383> 1776 134<683.724 768.965>
VStem: 241 155<1513.12 1670.19> 338 131<123.827 223.47> 526 174<1092 1142> 592 147<1535.09 1690.72> 616 138<136.395 264.14> 798 184<1587.4 1747.01>
Back
204 1706.5 m 24
 182.413 1706.5 163.683 1699.51 147.81 1685.52 c 128
 131.937 1671.53 124 1654.19 124 1633.5 c 0
 124 1612.5 131.333 1594.33 146 1579 c 128
 160.667 1563.67 178.333 1556 199 1556 c 128
 219.667 1556 237.667 1563.33 253 1578 c 128
 268.333 1592.67 276 1610.17 276 1630.5 c 0
 276 1651.17 269.041 1669.01 255.123 1684 c 128
 241.206 1699 224.165 1706.5 204 1706.5 c 24
284.5 1142.5 m 18
 284.5 1182.73 290.663 1220.68 302.988 1256.35 c 128
 315.314 1292.02 330.272 1322.96 347.863 1349.16 c 128
 374.25 1388.45 374.25 1388.45 400.637 1425.43 c 128
 418.228 1450.08 433.186 1476.89 445.512 1505.87 c 128
 457.837 1534.84 464 1564.55 464 1595 c 0
 464 1623.29 458.792 1650.71 448.375 1677.25 c 128
 437.958 1703.79 420.7 1726.8 396.599 1746.28 c 128
 372.498 1765.76 343.965 1775.5 311 1775.5 c 1
 325.271 1766.25 335.689 1758.94 342.255 1753.56 c 128
 348.821 1748.17 356.297 1739.95 364.682 1728.89 c 128
 373.067 1717.82 378.883 1704.23 382.13 1688.12 c 128
 385.377 1672.01 387 1652.14 387 1628.5 c 0
 387 1585.92 367.85 1545.7 329.55 1507.84 c 128
 291.25 1469.99 249.379 1451.06 203.938 1451.06 c 0
 147.796 1451.06 101.354 1468.75 64.6124 1504.12 c 128
 27.8708 1539.49 9.5 1584.29 9.5 1638.5 c 0
 9.5 1714.05 38.1494 1778.18 95.4482 1830.91 c 128
 152.747 1883.64 223.097 1910 306.5 1910 c 0
 360.764 1910 410.127 1900.7 454.589 1882.09 c 128
 499.052 1863.49 534.865 1839.13 562.028 1809.02 c 128
 589.191 1778.91 610.061 1746 624.636 1710.29 c 128
 639.212 1674.59 646.5 1638.49 646.5 1602 c 0
 646.5 1569.48 640.372 1536.18 628.115 1502.1 c 128
 615.858 1468.03 600.983 1435.83 583.49 1405.51 c 128
 557.25 1360.03 557.25 1360.03 531.01 1313.02 c 128
 513.517 1281.69 498.642 1246.78 486.385 1208.31 c 128
 474.128 1169.84 468 1131.13 468 1092.18 c 2
 468 398 l 1
 484 406 507.333 410 538 410 c 0
 592 410 639 392.5 679 357.5 c 128
 719 322.5 739 275.333 739 216 c 0
 739 147.333 717.667 94.1667 675 56.5 c 128
 632.333 18.8333 577 -1.90735e-06 509 0 c 0
 442.029 0 387.874 26.0335 346.536 78.1004 c 128
 305.198 130.167 284.529 205.45 284.529 303.947 c 2
 284.5 1142.5 l 18
531 281 m 152
 510.333 281 492.333 274 477 260 c 128
 461.667 246 454 228.667 454 208 c 128
 454 187.333 461.5 169.5 476.5 154.5 c 128
 491.5 139.5 509.333 132 530 132 c 128
 550.667 132 568.5 139.5 583.5 154.5 c 128
 598.5 169.5 606 187.333 606 208 c 0
 606 228 598.667 245.167 584 259.5 c 128
 569.333 273.833 551.667 281 531 281 c 152
EndSplineSet
Fore
241 1566 m 0xf940
 241 1719 412 1910 697 1910 c 0
 905 1910 982 1774 982 1654 c 0
 982 1604 971 1527 876 1406 c 2
 806 1313 l 2
 770 1264 717 1180 700 1092 c 2
 565 397 l 17
 572 398 578 398 585 398 c 0
 685 398 754 328 754 234 c 0
 754 111 640 -10 506 -10 c 0
 406 -10 338 60 338 154 c 0xf4c0
 338 167 339 180 342 194 c 2
 526 1142 l 2
 542 1225 589 1302 630 1349 c 2
 698 1425 l 2
 790 1526 798 1598 798 1638 c 0
 798 1717 753 1776 676 1776 c 1
 720 1744 739 1697 739 1647 c 0
 739 1520 615 1362 448 1362 c 0
 323 1362 241 1462 241 1566 c 0xf940
529 122 m 0
 576 122 616 164 616 208 c 0
 616 243 591 266 557 266 c 0
 509 266 469 223 469 179 c 0
 469 144 496 122 529 122 c 0
476 1506 m 0
 538 1506 592 1561 592 1622 c 0
 592 1667 559 1698 513 1698 c 0
 448 1698 396 1638 396 1584 c 0xf940
 396 1537 430 1506 476 1506 c 0
EndSplineSet
EndChar
StartChar: uni0E44
Encoding: 288 3652 187
Width: 910
Flags: W
HStem: -10 132<564.304 694.764> 266 131<656 666 634 707.606>
VStem: 429 133<123.827 223.47> 709 136<136.395 264.14>
Fore
845 234 m 0
 845 111 731 -10 597 -10 c 0
 497 -10 429 60 429 154 c 0
 429 167 430 180 433 194 c 2
 717 1654 l 17
 680 1650 627 1623 510 1356 c 1
 402 1356 l 1
 400 1508 318 1761 240 1854 c 1
 314 1996 l 1
 390 1912 489 1742 504 1606 c 1
 582 1760 698 1905 790 1905 c 2
 949 1905 l 9
 656 397 l 17
 663 398 669 398 676 398 c 0
 776 398 845 328 845 234 c 0
622 122 m 0
 669 122 709 164 709 208 c 0
 709 243 684 266 650 266 c 0
 602 266 562 223 562 179 c 0
 562 144 589 122 622 122 c 0
EndSplineSet
EndChar
StartChar: uni0E45
Encoding: 289 3653 188
Width: 970
Flags: W
HStem: 1066 156<237.362 667.75>
VStem: 99 831<974 1010.93 874 974 974 974> 750 180<785.983 986.588>
Fore
479 1066 m 0xa0
 335 1066 207 1027 99 974 c 1
 132 1144 l 1
 247 1185 386 1222 529 1222 c 0
 801 1222 930 1103 930 874 c 0xc0
 930 826 924 772 913 714 c 2
 694 -410 l 25
 508 -410 l 1
 743 796 l 2
 747 819 750 841 750 861 c 0
 750 1000 647 1066 479 1066 c 0xa0
EndSplineSet
EndChar
StartChar: uni0E46
Encoding: 290 3654 189
Width: 1200
Flags: W
HStem: 586 121<393.911 539.109> 860 114<465.81 552.057> 1204 20G<491.5 613.5 893.037 958>
VStem: 258 132<710.372 829.934> 555 125<724.524 855.795> 937 186<826.115 847 863 878.553 878.553 897.448 888.001 1039.54>
Fore
680 832 m 0
 680 697 571 586 437 586 c 0
 334 586 258 650 258 766 c 0
 258 785 260 804 264 825 c 0
 293 971 369 1123 614 1224 c 1
 613 1221 658 1185 748 1116 c 1
 926 1224 l 1
 990 1213 1044 1179 1089 1123 c 0
 1119 1086 1134 1034 1134 969 c 0
 1134 937 1130 902 1123 863 c 2
 876 -408 l 1
 693 -408 l 1
 937 847 l 2
 944 884 947 914 947 940 c 0
 947 1007 924 1036 891 1044 c 1
 714 946 l 1
 568 1057 l 1
 500 1030 481 997 465 968 c 1
 473 972 486 974 511 974 c 0
 645 974 680 901 680 832 c 0
490 860 m 0
 431 860 390 811 390 769 c 0
 390 731 420 707 456 707 c 8
 502 707 555 742 555 797 c 0
 555 834 527 860 490 860 c 0
EndSplineSet
EndChar
StartChar: uni0E47
Encoding: 291 3655 190
Width: 0
Flags: W
HStem: 1369 133<-268.361 -105.741> 1469 136<-481.421 -362.487> 1614 73<-196.088 -87.4857> 1742 111<-367.925 -162.023>
VStem: -720 124<1487.77 1631.57> -284 82<1506.79 1608.22> -87 79<1508.56 1613>
AnchorPoint: "AboveBase" 37 1352 mark 0
Fore
-156 1502 m 0xbe
 -122 1502 -87 1530 -87 1569 c 0
 -87 1597 -107 1614 -134 1614 c 0
 -171 1614 -202 1580 -202 1547 c 0
 -202 1519 -183 1502 -156 1502 c 0xbe
-8 1585 m 0
 -8 1519 -81 1369 -241 1369 c 0xbe
 -322 1369 -397 1469 -436 1469 c 0
 -484 1469 -492 1380 -502 1370 c 1
 -632 1370 -665 1404 -684 1430 c 0
 -709 1463 -720 1492 -720 1534 c 0
 -720 1556 -717 1581 -711 1612 c 0
 -675 1800 -420 1840 -370 1846 c 0
 -326 1851 -265 1853 -202 1853 c 0
 -66 1853 77 1894 140 1988 c 1
 150 1875 l 1
 40 1748 -192 1743 -299 1742 c 0
 -480 1740 -596 1669 -596 1559 c 0
 -596 1524 -580 1501 -549 1486 c 1
 -541 1515 l 2
 -535 1532 -501 1605 -413 1605 c 0x7e
 -365 1605 -324 1514 -279 1495 c 1
 -282 1509 -284 1522 -284 1534 c 0
 -284 1626 -207 1687 -115 1687 c 0
 -55 1687 -8 1646 -8 1585 c 0
EndSplineSet
Substitution2: "Thai Mark High Variant" uni0E47.high
Substitution2: "Thai Phinthu Maitaikhu Reordering" uni0E3A
EndChar
StartChar: uni0E48
Encoding: 292 3656 191
Width: 0
Flags: W
HStem: 2043 368<125 205 125 205 125 125>
AnchorPoint: "AboveMark" 113 1958 mark 0
Fore
125 2411 m 25
 277 2411 l 1
 205 2043 l 1
 53 2043 l 1
 125 2411 l 25
EndSplineSet
MultipleSubs2: "Thai Tone Nikhahit Attachment" uni0E4D uni0E48
Substitution2: "Thai Tone Low Variant" uni0E48.low
Substitution2: "Thai Sara U Mai Ek Reordering" uni0E38
Substitution2: "Thai Sara UU Mai Ek Reordering" uni0E39
Substitution2: "Thai Phinthu Mai Ek Reordering" uni0E3A
EndChar
StartChar: uni0E49
Encoding: 293 3657 192
Width: 0
Flags: W
HStem: 2014 77<-203 -98.3064> 2169 65<-136.702 -53.585> 2364 72<-129.283 1.83395>
VStem: -213 75<2235.93 2353.21> 3 87<2261.32 2363.15>
AnchorPoint: "AboveMark" 107 1958 mark 0
Fore
-213 2275 m 0
 -213 2372 -124 2436 -43 2436 c 0
 63 2436 90 2378 90 2327 c 0
 90 2289 69 2195 13 2136 c 1
 138 2156 277 2188 470 2430 c 1
 493 2302 l 1
 231 2024 -19 2014 -180 2014 c 2
 -218 2014 l 1
 -203 2091 l 1
 -121 2091 -73 2153 -53 2175 c 1
 -63 2171 -82 2169 -109 2169 c 0
 -170 2169 -213 2212 -213 2275 c 0
-53 2364 m 0
 -105 2364 -138 2324 -138 2288 c 0
 -138 2258 -116 2234 -82 2234 c 8
 -42 2234 3 2267 3 2313 c 0
 3 2345 -21 2364 -53 2364 c 0
EndSplineSet
MultipleSubs2: "Thai Tone Nikhahit Attachment" uni0E4D uni0E49
Substitution2: "Thai Tone Low Variant" uni0E49.low
Substitution2: "Thai Sara U Mai Tho Reordering" uni0E38
Substitution2: "Thai Sara UU Mai Tho Reordering" uni0E39
Substitution2: "Thai Phinthu Mai Tho Reordering" uni0E3A
EndChar
StartChar: uni0E4A
Encoding: 294 3658 193
Width: 0
Flags: W
HStem: 2004 75<-290.774 -143.685> 2191 68<-256.773 -140.631>
VStem: -398 134<2079.92 2239.62> -140 74<2085.49 2189.8> 132 111<2156.63 2327.99>
AnchorPoint: "AboveMark" -77 1958 mark 0
Fore
-189 2191 m 0
 -234 2191 -264 2148 -264 2120 c 0
 -264 2095 -243 2079 -214 2079 c 0
 -178 2079 -140 2102 -140 2144 c 0
 -140 2172 -161 2191 -189 2191 c 0
-66 2160 m 0
 -66 2098 -118 2004 -261 2004 c 0
 -338 2004 -398 2067 -398 2154 c 0
 -398 2245 -342 2372 -156 2435 c 1
 -37 2352 l 1
 104 2442 l 1
 160 2424 243 2377 243 2288 c 0
 243 2187 177 2132 166 2122 c 1
 266 2155 377 2343 425 2461 c 1
 486 2373 l 1
 433 2235 266 2014 71 2014 c 1
 26 2087 l 1
 63 2126 l 2
 102 2168 132 2204 132 2257 c 0
 132 2302 102 2318 79 2336 c 1
 -62 2258 l 1
 -175 2334 l 1
 -234 2312 -291 2259 -304 2192 c 1
 -300 2202 -249 2259 -176 2259 c 0
 -102 2259 -66 2213 -66 2160 c 0
EndSplineSet
MultipleSubs2: "Thai Tone Nikhahit Attachment" uni0E4D uni0E4A
Substitution2: "Thai Tone Low Variant" uni0E4A.low
Substitution2: "Thai Sara U Mai Tri Reordering" uni0E38
Substitution2: "Thai Sara UU Mai Tri Reordering" uni0E39
Substitution2: "Thai Phinthu Mai Tri Reordering" uni0E3A
EndChar
StartChar: uni0E4B
Encoding: 295 3659 194
Width: 0
VWidth: 2104
Flags: W
HStem: 2014 426<21 90> 2151 152<-142 -35 147 254 -172 284 -142 -142>
AnchorPoint: "AboveMark" 4 1958 mark 0
Fore
254 2151 m 1x40
 117 2151 l 1x40
 90 2014 l 1
 -62 2014 l 1x80
 -35 2151 l 1
 -172 2151 l 1
 -142 2303 l 1
 -5 2303 l 1x40
 21 2440 l 1
 173 2440 l 1x80
 147 2303 l 1
 284 2303 l 1
 254 2151 l 1x40
EndSplineSet
MultipleSubs2: "Thai Tone Nikhahit Attachment" uni0E4D uni0E4B
Substitution2: "Thai Tone Low Variant" uni0E4B.low
Substitution2: "Thai Sara U Mai Chattawa Reordering" uni0E38
Substitution2: "Thai Sara UU Mai Chattawa Reordering" uni0E39
Substitution2: "Thai Phinthu Mai Chattawa Reordering" uni0E3A
EndChar
StartChar: uni0E4C
Encoding: 296 3660 195
Width: 0
VWidth: 2104
Flags: W
HStem: 2014 103<-147.845 26.9195> 2315 120<-124.239 50.2814 141.647 454.078> 2338 96<143.123 280.793>
VStem: -269 113<2125.1 2282.54> 54 120<2145.79 2302.12>
AnchorPoint: "AboveMark" -74 1958 mark 0
Fore
-269 2173 m 0xb8
 -269 2292 -147 2435 14 2435 c 0xd8
 38 2435 73 2434 113 2434 c 0
 228 2434 390 2441 478 2490 c 1
 488 2364 l 1
 435 2337 391 2329 349 2329 c 0
 302 2329 257 2338 208 2338 c 0
 187 2338 166 2337 142 2332 c 1
 157 2314 l 2
 169 2300 174 2286 174 2265 c 0
 174 2132 57 2014 -85 2014 c 0
 -232 2014 -269 2102 -269 2173 c 0xb8
-26 2315 m 0
 -118 2315 -156 2238 -156 2192 c 0
 -156 2146 -120 2117 -68 2117 c 0
 -10 2117 54 2156 54 2244 c 0
 54 2292 28 2315 -26 2315 c 0
EndSplineSet
MultipleSubs2: "Thai Tone Nikhahit Attachment" uni0E4D uni0E4C
Substitution2: "Thai Tone Low Variant" uni0E4C.low
Substitution2: "Thai Sara U Thanthakhat Reordering" uni0E38
Substitution2: "Thai Sara UU Thanthakhat Reordering" uni0E39
Substitution2: "Thai Phinthu Thanthakhat Reordering" uni0E3A
EndChar
StartChar: uni0E4D
Encoding: 297 3661 196
Width: 0
Flags: W
HStem: 1316 136<-275.85 -104.86> 1659 137<-254.563 -77.7829>
VStem: -421 135<1463.56 1626.69> -69 136<1488.04 1648.54>
AnchorPoint: "AboveMark" -97 1958 basemark 0
AnchorPoint: "AboveBase" 13 1319 mark 0
Fore
-421 1509 m 0
 -421 1651 -287 1796 -129 1796 c 16
 -14 1796 67 1714 67 1603 c 0
 67 1456 -67 1316 -222 1316 c 0
 -343 1316 -421 1400 -421 1509 c 0
-158 1659 m 0
 -235 1659 -286 1592 -286 1537 c 0
 -286 1491 -251 1452 -198 1452 c 0
 -146 1452 -69 1502 -69 1576 c 0
 -69 1627 -109 1659 -158 1659 c 0
EndSplineSet
Substitution2: "Thai Mark High Variant" uni0E4D.high
Substitution2: "Thai Sara U Nikhahit Reordering" uni0E38
Substitution2: "Thai Sara UU Nikhahit Reordering" uni0E39
Substitution2: "Thai Phinthu Nikhahit Reordering" uni0E3A
EndChar
StartChar: uni0E4E
Encoding: 298 3662 197
Width: 0
Flags: W
HStem: 1296 110<-119.003 120> 1538 112<-57.4545 134> 1777 111<-54.3005 172.19>
VStem: -257 126<1428.39 1518.46> -185 124<1662.01 1762.54>
AnchorPoint: "AboveBase" 99 1227 mark 0
Fore
-185 1696 m 0xe8
 -185 1773 -118 1888 91 1888 c 0
 146 1888 203 1880 264 1865 c 1
 242 1753 l 1
 182 1769 127 1777 78 1777 c 0
 -41 1777 -61 1736 -61 1708 c 0xe8
 -61 1670 -12 1650 86 1650 c 2
 156 1650 l 1
 134 1538 l 1
 69 1538 l 2
 -102 1538 -131 1499 -131 1472 c 0
 -131 1432 -51 1406 63 1406 c 2
 141 1406 l 1
 120 1296 l 1
 36 1296 l 2
 -190 1296 -257 1387 -257 1447 c 0xf0
 -257 1507 -201 1577 -121 1595 c 1
 -163 1619 -185 1653 -185 1696 c 0xe8
EndSplineSet
EndChar
StartChar: uni0E4F
Encoding: 299 3663 198
Width: 1250
Flags: W
HStem: -21 121<456.371 824.901> 258 103<584.802 807.225> 658 105<623.603 848.636> 917 123<606.679 970.692>
VStem: 186 111<262.629 612.653> 456 104<384.454 594.143> 872 102<426.67 632.929> 1136 110<405.927 755.159>
Fore
636 100 m 0
 899 100 1136 336 1136 587 c 0
 1136 776 996 917 795 917 c 0
 532 917 297 682 297 427 c 0
 297 236 440 100 636 100 c 0
745 658 m 0
 626 658 560 559 560 477 c 0
 560 409 608 361 687 361 c 0
 794 361 872 447 872 542 c 0
 872 611 825 658 745 658 c 0
186 404 m 0
 186 734 485 1040 818 1040 c 0
 1069 1040 1246 862 1246 615 c 0
 1246 290 949 -21 612 -21 c 0
 354 -21 186 164 186 404 c 0
974 565 m 0
 974 416 855 258 666 258 c 0
 533 258 456 339 456 455 c 0
 456 606 578 763 764 763 c 0
 896 763 974 681 974 565 c 0
EndSplineSet
EndChar
StartChar: uni0E50
Encoding: 300 3664 199
Width: 1260
Flags: W
HStem: -10 173<506.575 830.48> 751 173<604.612 927.93>
VStem: 229 176<260.101 551.619> 1033 177<363.807 647.824>
Fore
771 751 m 0
 580 751 405 586 405 396 c 0
 405 246 525 163 657 163 c 0
 863 163 1033 337 1033 512 c 0
 1033 657 915 751 771 751 c 0
1210 554 m 0
 1210 259 939 -10 620 -10 c 0
 392 -10 229 141 229 362 c 0
 229 688 524 924 802 924 c 0
 1041 924 1210 780 1210 554 c 0
EndSplineSet
EndChar
StartChar: uni0E51
Encoding: 301 3665 200
Width: 1200
Flags: W
HStem: -100 117<553.458 754.154> 129 198<494.521 678.979> 469 132<592.809 727.658> 758 168<549.79 912.036>
VStem: 200 185<337.374 588.306> 447 133<335.606 454.532> 729 133<339.658 465.532> 1014 175<361.657 663.442>
Back
336.827 1807.14 m 5
 332.836 1817.41 330.894 1827.87 331 1838.5 c 4
 330.409 1893.73 349.704 1942.36 388.884 1984.39 c 132
 428.064 2026.42 483.103 2047.13 554 2046.5 c 4
 654.121 2046.5 732.277 2017.92 788.466 1960.76 c 132
 844.655 1903.6 873.5 1827.18 875 1731.5 c 4
 876.615 1639.39 846.019 1567.2 783.211 1514.92 c 132
 720.404 1462.64 638.667 1436.5 538 1436.5 c 4
 474 1436.5 411.667 1444.17 351 1459.5 c 132
 290.333 1474.83 232 1497.83 176 1528.5 c 5
 176 1358.5 l 5
 243.333 1332.5 308.667 1313 372 1300 c 132
 435.333 1287 497 1280.5 557 1280.5 c 4
 719 1280.5 841.667 1322.5 925 1406.5 c 132
 1008.33 1490.5 1050 1617.83 1050 1788.5 c 20
 1049.84 1877.67 1007.53 1969.1 923.06 2062.78 c 132
 838.594 2156.46 721.907 2204.37 573 2206.5 c 4
 438.674 2208.43 333.695 2169.21 258.062 2088.85 c 132
 182.429 2008.5 144.408 1925.38 144 1839.5 c 4
 143.484 1741.48 176.262 1663.11 242.335 1604.4 c 132
 308.408 1545.69 394.629 1515.72 501 1514.5 c 4
 569.355 1513.7 623.777 1533.5 664.266 1573.9 c 132
 704.755 1614.3 725 1662.5 725 1718.5 c 132
 725 1774.5 705 1822.5 665 1862.5 c 132
 625 1902.5 577 1922.5 521 1922.5 c 132
 465 1922.5 417 1902.5 377 1862.5 c 4
 359.994 1845.49 346.603 1827.04 336.827 1807.14 c 5
449 1718.5 m 132
 449 1738.5 456 1755.5 470 1769.5 c 132
 484 1783.5 501 1790.5 521 1790.5 c 132
 541 1790.5 558 1783.5 572 1769.5 c 132
 586 1755.5 593 1738.5 593 1718.5 c 132
 593 1698.5 586 1681.5 572 1667.5 c 132
 558 1653.5 541 1646.5 521 1646.5 c 132
 501 1646.5 484 1653.5 470 1667.5 c 132
 456 1681.5 449 1698.5 449 1718.5 c 132
180 84 m 1
 195 243 l 1
 269.667 179.667 377.667 147.333 519 146 c 0
 655.381 150.353 748.643 186.941 798.786 255.764 c 128
 848.929 324.588 873.333 389.667 872 451 c 0
 869.333 559 842.667 638 792 688 c 128
 741.333 738 664.333 764 561 766 c 0
 495.667 766 440.667 745.333 396 704 c 128
 351.333 662.667 328.667 608.667 328 542 c 0
 328 447.177 368.333 384.011 449 352.5 c 0
 495.025 334.521 535.025 339.688 569 368 c 1
 526.333 366.667 490.833 379.167 462.5 405.5 c 128
 434.167 431.833 420 466.167 420 508.5 c 128
 420 550.833 434.5 586.333 463.5 615 c 128
 492.5 643.667 534.5 658 589.5 658 c 128
 644.5 658 688.333 638.333 721 599 c 128
 753.667 559.667 769.333 510.667 768 452 c 128
 766.667 393.333 742.167 339.667 694.5 291 c 128
 646.833 242.333 588 218 518 218 c 128
 448 218 386.333 230.167 333 254.5 c 128
 279.667 278.833 235.833 316.833 201.5 368.5 c 128
 167.167 420.167 150 481.833 150 553.5 c 128
 150 625.167 169.667 689.667 209 747 c 128
 248.333 804.333 299.667 848.333 363 879 c 128
 426.333 909.667 487.167 925 545.5 925 c 128
 603.833 925 654.667 920.167 698 910.5 c 128
 741.333 900.833 784.667 884.167 828 860.5 c 128
 871.333 836.833 918.988 796.575 970.965 739.726 c 128
 1022.94 682.876 1047.62 587.634 1045 454 c 0
 1043.67 387.333 1030.5 326.833 1005.5 272.5 c 128
 980.5 218.167 949.333 174 912 140 c 128
 874.667 106 822.867 72.6667 756.6 40 c 128
 690.333 7.33334 603.177 -8.99999 495.131 -9 c 128
 387.085 -9 282.041 22 180 84 c 1
526.5 553 m 128
 514.833 541.667 509 527.667 509 511 c 128
 509 494.333 514.833 480.333 526.5 469 c 128
 538.167 457.667 552.667 452 570 452 c 128
 587.333 452 602.167 457.833 614.5 469.5 c 128
 626.833 481.167 633 495.833 633 513.5 c 128
 633 531.167 627.167 545 615.5 555 c 128
 603.833 565 589 570 571 570 c 128
 553 570 538.167 564.333 526.5 553 c 128
EndSplineSet
Fore
447 356 m 0
 447 482 560 601 696 601 c 0
 795 601 862 532 862 438 c 0
 862 306 725 129 498 129 c 0
 287 129 200 257 200 408 c 0
 200 638 414 926 786 926 c 0
 1027 926 1189 789 1189 575 c 0
 1189 472 1143 288 1020 159 c 0
 894 28 758 -61 581 -100 c 1
 480 17 l 1
 692 66 1014 227 1014 526 c 0
 1014 668 915 758 727 758 c 0
 450 758 385 520 385 447 c 0
 385 384 416 333 450 326 c 1
 448 335 447 345 447 356 c 0
669 469 m 0
 629 469 580 438 580 382 c 0
 580 345 609 327 641 327 c 0
 681 327 729 358 729 413 c 0
 729 450 701 469 669 469 c 0
EndSplineSet
EndChar
StartChar: uni0E52
Encoding: 302 3666 201
Width: 1320
Flags: W
HStem: 0 154<322 961.98> 246 132<627.339 758.292> 522 132<675.593 770.196> 1182 20G<355.026 397.5>
VStem: 287 162<540.561 1064.26> 475 150<382.445 508.173> 772 134<391.232 520.173> 1102 176<464.879 730.723>
Fore
112 0 m 1
 226 411 287 709 287 886 c 0
 287 972 273 1027 243 1050 c 1
 372 1202 l 1
 423 1169 449 1086 449 946 c 0
 449 741 395 459 322 154 c 1
 862 154 l 2
 1054 154 1102 539 1102 632 c 0
 1102 700 1086 744 1057 766 c 1
 892 669 l 1
 755 770 l 1
 711 746 681 703 664 640 c 1
 688 649 713 654 738 654 c 0
 838 654 906 584 906 490 c 0
 906 361 788 246 659 246 c 0
 603 246 475 269 475 444 c 0
 475 573.286 539.156 853.481 803 926 c 1
 929 813 l 1
 1088 926 l 1
 1215 905 1278 814 1278 653 c 0
 1278 603 1272 546 1260 483 c 0
 1197 161 1058 0 841 0 c 2
 112 0 l 1
684 378 m 0
 732 378 772 421 772 465 c 0
 772 500 745 522 712 522 c 0
 665 522 625 480 625 436 c 0
 625 401 650 378 684 378 c 0
EndSplineSet
EndChar
StartChar: uni0E53
Encoding: 303 3667 202
Width: 1400
Flags: W
HStem: -10 132<398.313 530.249> 266 132<429.575 540.208> 737 189<514.599 731.933 985.525 1182.93>
VStem: 176 219<125.024 391.084> 542 135<136.503 263.864> 1213 183<332.048 710.741>
Fore
1013 0 m 1
 1089.51 115.182 1213 322.1 1213 568 c 0
 1213 687 1168 737 1096 737 c 0
 1003 737 946 674 922 551 c 2
 901 440 l 9
 722 440 l 17
 743 551 l 2
 748 575 750 597 750 617 c 0
 750 697 711 737 633 737 c 0
 579 737 426 709 363 392 c 10
 353 338 l 17
 400 378 452 398 508 398 c 0
 608 398 677 328 677 233 c 0
 677 112 564 -10 429 -10 c 0
 272 -10 176 109 176 285 c 0
 176 379 218 646 375 797 c 0
 466 883 559 926 654 926 c 8
 765 926 849 879 876 786 c 1
 939 879 1037 926 1146 926 c 16
 1226 926 1292 888 1346 811 c 0
 1379 763 1396 698 1396 615 c 0
 1396 501 1367 265 1203 0 c 1
 1013 0 l 1
483 266 m 0
 438 266 395 227 395 179 c 0
 395 148 418 122 455 122 c 0
 497 122 542 160 542 208 c 0
 542 240 521 266 483 266 c 0
EndSplineSet
EndChar
StartChar: uni0E54
Encoding: 304 3668 203
Width: 1480
Flags: W
HStem: 0 156<448.802 718.023 971.161 1230> 534 132<767.975 899.106>
VStem: 184 181<245.556 537.005> 617 137<347.289 521.703> 901 135<402.829 532.14>
Fore
1036 502 m 0
 1036 410 971 312 869 273 c 1
 943 208 1075 173 1263 170 c 1
 1230 0 l 1
 1111 11 1010 29 926 56 c 1
 765 5 661 0 597 0 c 0
 330 0 184 128 184 354 c 0
 184 620 342 746 412 797 c 0
 726 1025 1320 833 1649 1058 c 1
 1616 888 l 1
 1168 685 724 852 514 671 c 0
 424 593 365 476 365 375 c 0
 365 256 445 156 646 156 c 0
 674 156 702 157 727 160 c 1
 654 225 617 303 617 392 c 0
 617 583 765 666 867 666 c 0
 967 666 1036 596 1036 502 c 0
814 390 m 0
 861 390 901 432 901 476 c 0
 901 511 876 534 842 534 c 0
 794 534 754 491 754 447 c 0
 754 412 781 390 814 390 c 0
EndSplineSet
EndChar
StartChar: uni0E55
Encoding: 305 3669 204
Width: 1480
Flags: W
HStem: 0 156<458.965 718.023 1017.13 1230> 534 132<767.975 899.106> 1091 132<777.129 907.589>
VStem: 184 181<245.556 534.884> 617 137<347.289 521.703 948.674 1078.23> 901 135<407.876 529.059 981.878 1089.14>
Fore
628 978 m 0
 628 1111 750 1223 876 1223 c 0
 976 1223 1044 1153 1044 1059 c 0
 1044 1019 1032 969 1000 927 c 1
 1359 928 1546 987 1649 1058 c 1
 1616 888 l 1
 1168 685 724 852 514 671 c 0
 424 593 365 476 365 375 c 0
 365 256 445 156 646 156 c 0
 674 156 702 157 727 160 c 1
 654 225 617 303 617 392 c 0
 617 583 765 666 867 666 c 0
 967 666 1036 596 1036 502 c 0
 1036 410 971 312 869 273 c 1
 943 208 1075 173 1263 170 c 1
 1230 0 l 1
 1111 11 1010 29 926 56 c 1
 765 5 661 0 597 0 c 0
 330 0 184 128 184 354 c 0
 184 602 327 825 650 895 c 1
 635 920 628 947 628 978 c 0
822 947 m 0
 870 947 909 990 909 1033 c 0
 909 1068 884 1091 850 1091 c 0
 802 1091 763 1048 763 1005 c 0
 763 970 788 947 822 947 c 0
814 390 m 0
 861 390 901 432 901 476 c 0
 901 511 876 534 842 534 c 0
 794 534 754 491 754 447 c 0
 754 412 781 390 814 390 c 0
EndSplineSet
EndChar
StartChar: uni0E56
Encoding: 306 3670 205
Width: 1220
Flags: W
HStem: -16 178<459.62 725.385> 306 132<470.071 603.196> 760 168<631.788 911.794>
VStem: 324 134<164.023 292.742> 605 134<197.205 304.173> 1032 179<328.808 646.162>
Fore
1211 539 m 0
 1211 270 1004 -16 616 -16 c 0
 502 -16 422 12 378 67 c 16
 342 112 324 157 324 203 c 0
 324 314 437 438 571 438 c 0
 671 438 739 368 739 274 c 0
 739 234 727 186 697 142 c 1
 873 162 1032 293 1032 505 c 0
 1032 660 919 760 721 760 c 0
 608 760 502 741 404 702 c 1
 387 893 334 1017 245 1076 c 1
 312 1256 l 1
 428 1173 495 1050 514 885 c 1
 595 914 674 928 753 928 c 0
 1035 928 1211 776 1211 539 c 0
517 162 m 0
 565 162 605 205 605 249 c 0
 605 284 578 306 545 306 c 0
 498 306 458 264 458 220 c 0
 458 185 483 162 517 162 c 0
EndSplineSet
EndChar
StartChar: uni0E57
Encoding: 307 3671 206
Width: 1540
Flags: W
HStem: -10 132<396.766 530.016> 266 132<429.794 540.106> 737 189<515.036 693.913 945.264 1123.58> 1196 20G<1546.5 1589.54>
VStem: 175 220<124.782 392.072> 542 135<136.395 264.14> 1153 183<330.23 711.021> 1564 143<682.378 1119.42>
Fore
429 -10 m 0
 254 -10 175 140 175 277 c 0
 175 367 209 640 375 797 c 0
 466 883 552 926 634 926 c 8
 739 926 809 879 836 786 c 1
 899 879 990 926 1096 926 c 16
 1169 926 1232 888 1286 811 c 0
 1319 763 1336 698 1336 615 c 0
 1336 475 1289 300 1247 200 c 1
 1445 389 1529 880 1564 1216 c 9
 1707 1104 l 17
 1668 878 1622 648 1522 359 c 0
 1438 120 1312 0 1143 0 c 2
 953 0 l 1
 1028 113 1153 322 1153 564 c 0
 1153 703 1092 737 1045 737 c 0
 969 737 908 686 882 551 c 2
 861 440 l 9
 682 440 l 17
 704 558 l 2
 709 582 711 603 711 622 c 0
 711 698 674 737 603 737 c 0
 571 737 529 711 477 659 c 0
 425 607 388 518 363 392 c 10
 353 338 l 17
 400 378 452 398 508 398 c 0
 608 398 677 328 677 234 c 0
 677 111 563 -10 429 -10 c 0
455 122 m 0
 502 122 542 164 542 208 c 0
 542 243 517 266 483 266 c 0
 435 266 395 223 395 179 c 0
 395 144 422 122 455 122 c 0
EndSplineSet
EndChar
StartChar: uni0E58
Encoding: 308 3672 207
Width: 1500
Flags: W
HStem: 0 158<861.156 943.5 943.5 959> 368 132<1067.17 1197.33>
VStem: 203 183<232.148 488.508> 918 134<226.31 353.643> 1199 133<237.126 365.303>
Fore
1332 334 m 0
 1332 214 1208 0 960 0 c 0
 807 0 707 79 660 236 c 9
 552 0 l 17
 408 0 203 73 203 347 c 0
 203 617 356 742 432 797 c 0
 753 1030 1335 830 1669 1058 c 1
 1636 888 l 1
 1184 683 749 857 534 671 c 0
 395 549 386 413 386 372 c 0
 386 293 417 226 474 195 c 1
 615 497 l 9
 778 470 l 17
 805 284 851 158 928 158 c 0
 939 158 948 154 959 154 c 1
 932 185 918 220 918 259 c 0
 918 377 1030 500 1165 500 c 0
 1267 500 1332 429 1332 334 c 0
1112 224 m 0
 1159 224 1199 266 1199 310 c 0
 1199 345 1174 368 1140 368 c 0
 1092 368 1052 325 1052 281 c 0
 1052 246 1079 224 1112 224 c 0
EndSplineSet
EndChar
StartChar: uni0E59
Encoding: 309 3673 208
Width: 1480
Flags: W
HStem: 0 161<482.78 685.239> 305 132<571.417 704.196> 771 155<510.068 754.252 1069.05 1198.95>
VStem: 180 168<215.808 578.213> 706 134<174.135 303.173> 1026 164<0 203.355>
Fore
180 361 m 0
 180 607 338 926 686 926 c 0
 767 926 842 878 910 786 c 1
 989 888 1066 926 1152 926 c 256
 1292 926 1341 860 1362 807 c 1
 1477 873 1555 982 1604 1072 c 1
 1659 944 l 1
 1565 783 1432 672 1260 608 c 1
 1253 749 1174 765 1132 765 c 0
 1105 765 1058 755 982 667 c 1
 1043 546 1118 346 1190 0 c 9
 1026 0 l 17
 985 188 934 363 872 526 c 0
 788 752 701 771 647 771 c 0
 480 771 348 583 348 388 c 0
 348 303 372 212 432 177 c 1
 417 344 567 437 672 437 c 0
 772 437 840 367 840 273 c 0
 840 127 690 0 502 0 c 0
 275 0 180 170 180 361 c 0
618 161 m 0
 666 161 706 204 706 248 c 0
 706 283 679 305 646 305 c 0
 599 305 559 263 559 219 c 0
 559 184 584 161 618 161 c 0
EndSplineSet
EndChar
StartChar: uni0E5A
Encoding: 310 3674 209
Width: 1400
Flags: W
HStem: 0 21G<810 995.879 1075 1259.89> 736 190<427.853 671.578> 1070 132<440.559 570.589>
VStem: 291 135<929.461 1057.27> 572 135<938.589 1068.14>
Fore
291 955 m 0
 291 1092 415 1202 539 1202 c 0
 639 1202 707 1132 707 1038 c 0
 707 978 682 926 650 889 c 1
 824 924 953 1055 1050 1202 c 1
 1191 1026 l 1
 992 0 l 1
 810 0 l 1
 987 909 l 17
 873 803 727 736 539 736 c 0
 354 736 291 855 291 955 c 0
485 926 m 0
 533 926 572 969 572 1012 c 0
 572 1047 547 1070 513 1070 c 0
 465 1070 426 1027 426 984 c 0
 426 949 451 926 485 926 c 0
1256 0 m 1
 1075 0 l 1
 1284 1076 l 1
 1430 895 l 1
 1256 0 l 1
EndSplineSet
EndChar
StartChar: uni0E5B
Encoding: 311 3675 210
Width: 2370
Flags: W
HStem: 0 176<403.268 736.415> 249 137<2127.94 2343.48 2343.48 2376> 301 131<619.798 749.914> 577 131<630.47 763.113> 789 180<503.794 765.626>
VStem: 145 175<259.781 590.423> 483 135<433.421 565.008> 764 226<506.511 673.768>
Back
1776 340 m 0
 1765.33 340 1751.33 318.333 1734 275 c 0
 1707.33 208.333 1688.33 165.667 1677 147 c 0
 1653.67 111.667 1628 94 1600 94 c 128
 1572 94 1548.67 117.667 1530 165 c 0
 1523.33 183 1515.83 206 1507.5 234 c 128
 1499.17 262 1492.67 283 1488 297 c 0
 1484 309.667 1478 321.833 1470 333.5 c 128
 1462 345.167 1455.33 351 1450 351 c 0
 1440 351 1429 332.333 1417 295 c 0
 1404 258 1404 258 1390.5 218.5 c 128
 1381.5 192.167 1376 176.333 1374 171 c 0
 1354 115.667 1326.67 88 1292 88 c 0
 1268 88 1249 94.5 1235 107.5 c 128
 1221 120.5 1208 141.333 1196 170 c 0
 1192.67 178 1180 226.333 1158 315 c 0
 1157.33 317 1155.67 327.5 1153 346.5 c 128
 1150.33 365.5 1147.67 375 1145 375 c 0
 1139 375 1134 371.667 1130 365 c 128
 1126 358.333 1119.67 344 1111 322 c 0
 1093.67 278.667 1077.5 244.5 1062.5 219.5 c 128
 1047.5 194.5 1028 167.333 1004 138 c 0
 961.333 86 907.833 48.3333 843.5 25 c 128
 779.167 1.66667 699.333 -10 604 -10 c 0
 482 -10 374 36.6667 280 130 c 0
 230.667 178.667 193.833 229.667 169.5 283 c 128
 145.167 336.333 133 403 133 483 c 0
 133 602.333 160 703.667 214 787 c 0
 254.667 845.667 307.5 893.5 372.5 930.5 c 128
 437.5 967.5 506 986 578 986 c 0
 722 986 826.667 940 892 848 c 0
 938 782.667 961 703.667 961 611 c 0
 961 569 952.167 526.5 934.5 483.5 c 128
 916.833 440.5 897 408.667 875 388 c 0
 794.333 310.667 706.667 272 612 272 c 0
 538 272 478.667 297.333 434 348 c 0
 416 368.667 402.5 389.833 393.5 411.5 c 128
 384.5 433.167 380 462.667 380 500 c 0
 380 559.333 399.333 614.667 438 666 c 0
 452 685.333 470.333 701.333 493 714 c 128
 515.667 726.667 538.333 733 561 733 c 0
 607.667 733 645.167 720.167 673.5 694.5 c 128
 701.833 668.833 716 637.333 716 600 c 0
 716 556 701.833 522 673.5 498 c 128
 645.167 474 615.333 462 584 462 c 0
 576.667 462 567.5 463.5 556.5 466.5 c 2
 540 471 l 1
 550 443.667 583.333 430 640 430 c 0
 663.333 430 684.167 434.667 702.5 444 c 128
 720.833 453.333 733 461.667 739 469 c 128
 745 476.333 753.333 487.333 764 502 c 0
 774 516 781.833 535.5 787.5 560.5 c 128
 793.167 585.5 796 607.333 796 626 c 0
 796 674.667 777.333 718.333 740 757 c 0
 724.667 772.333 699.833 785.333 665.5 796 c 128
 631.167 806.667 600 812 572 812 c 0
 533.333 812 496.5 804.333 461.5 789 c 128
 426.5 773.667 398 754 376 730 c 0
 316.667 666.667 287 584.333 287 483 c 0
 287 387 314.667 310.667 370 254 c 0
 400.667 222 436.833 196.333 478.5 177 c 128
 520.167 157.667 563.333 148 608 148 c 0
 672 148 733.667 160.5 793 185.5 c 128
 852.333 210.5 896.333 242.667 925 282 c 0
 945 309.333 960.667 332.333 972 351 c 128
 983.333 369.667 993.5 389 1002.5 409 c 128
 1016 439 1016 439 1039 489 c 0
 1049.67 511 1059 531.333 1067 550 c 128
 1075 568.667 1086.17 584.167 1100.5 596.5 c 128
 1114.83 608.833 1131.67 615 1151 615 c 0
 1176.33 615 1196.83 606.167 1212.5 588.5 c 128
 1228.17 570.833 1241 544 1251 508 c 0
 1254.33 495.333 1257.67 475 1261 447 c 128
 1264.33 419 1268.17 397 1272.5 381 c 128
 1276.83 365 1283.33 357 1292 357 c 0
 1308.67 357 1322.67 376.667 1334 416 c 0
 1338.67 431.333 1342.83 450.333 1346.5 473 c 128
 1350.17 495.667 1353 510.667 1355 518 c 0
 1369 582.667 1403 615 1457 615 c 0
 1476.33 615 1494 606.833 1510 590.5 c 128
 1526 574.167 1537.33 552 1544 524 c 0
 1548 506 1548 506 1554 478.5 c 128
 1558 460.167 1561.83 444.333 1565.5 431 c 128
 1569.17 417.667 1573.33 404 1578 390 c 0
 1582 378.667 1587.5 368.833 1594.5 360.5 c 128
 1601.5 352.167 1608.67 348 1616 348 c 0
 1631.33 348 1645 362.667 1657 392 c 0
 1672.33 432.667 1683 456.333 1689 463 c 0
 1701.67 479.667 1713 491.167 1723 497.5 c 128
 1733 503.833 1745.33 507 1760 507 c 0
 1771.33 507 1783.17 502.167 1795.5 492.5 c 128
 1807.83 482.833 1818 471 1826 457 c 0
 1828.67 452.333 1832.33 445.333 1837 436 c 128
 1841.67 426.667 1846.33 418.333 1851 411 c 128
 1855.67 403.667 1861 396.333 1867 389 c 0
 1902.33 347 1939.67 326 1979 326 c 2
 2358 326 l 1
 2358 218 l 1
 1973 218 l 2
 1940.33 218 1911 225 1885 239 c 128
 1859 253 1832 276.667 1804 310 c 0
 1787.33 330 1778 340 1776 340 c 0
632 605 m 0
 632 620.333 627.167 633 617.5 643 c 128
 607.833 653 594.667 658 578 658 c 0
 562.667 658 549.833 652.833 539.5 642.5 c 128
 529.167 632.167 524 618.667 524 602 c 0
 524 586.667 529.167 574.167 539.5 564.5 c 128
 549.833 554.833 563.333 550 580 550 c 0
 595.333 550 607.833 555 617.5 565 c 128
 627.167 575 632 588.333 632 605 c 0
EndSplineSet
Fore
483 466 m 0xbf
 483 586 597 708 731 708 c 0
 760 708 782 703 800 696 c 1
 791 737 730 789 641 789 c 0
 496 789 320 658 320 411 c 0
 320 270 384 176 586 176 c 0
 826 176 1013 330 1147 635 c 1
 1285 564 l 1
 1292 356 l 1
 1295 356 l 2
 1359 356 1431 449 1512 635 c 9
 1650 564 l 9
 1660 356 l 1
 1663 356 l 2
 1720 356 1789 449 1870 635 c 9
 2008 564 l 1
 2025 446 2156 387 2403 386 c 1
 2376 248 l 1
 2354 248 2332 249 2311 249 c 0xdf
 2032 249 1893 304 1890 393 c 1
 1809 251 1688 180 1528 180 c 1
 1532 393 l 17
 1461 253 1337 182 1160 180 c 1
 1167 393 l 17
 962 129 745 0 514 0 c 0
 255 0 145 173 145 370 c 0
 145 700 417 969 698 969 c 0
 860 969 990 871 990 695 c 0
 990 479 825 301 654 301 c 0
 547 301 483 377 483 466 c 0xbf
705 577 m 0
 653 577 618 531 618 489 c 0
 618 458 637 432 678 432 c 0xbf
 729 432 764 479 764 521 c 0
 764 551 746 577 705 577 c 0
EndSplineSet
EndChar
StartChar: zerowidthjoiner
Encoding: 316 8205 212
Width: 0
Flags: W
VStem: -89 573<-275 1364 -275 -275>
Fore
-17 -275 m 1
 -89 -275 l 1
 181 1114 l 1
 20 978 l 1
 -19 1027 l 1
 184 1196 l 1
 46 1364 l 1
 105 1413 l 1
 241 1242 l 1
 445 1413 l 1
 484 1364 l 1
 280 1196 l 1
 419 1027 l 1
 360 978 l 1
 253 1114 l 1
 -17 -275 l 1
EndSplineSet
EndChar
StartChar: afii299
Encoding: 317 8206 213
Width: 0
Flags: W
HStem: 1163 71<261 527>
VStem: -89 752<-275 1198 -275 -275>
Fore
663 1198 m 1
 404 984 l 1
 365 1033 l 1
 527 1163 l 1
 261 1163 l 1
 -18 -275 l 1
 -89 -275 l 1
 204 1234 l 1
 541 1234 l 1
 429 1364 l 1
 488 1413 l 1
 663 1198 l 1
EndSplineSet
EndChar
StartChar: afii300
Encoding: 318 8207 214
Width: 0
Flags: W
HStem: 1163 71<-62 190>
VStem: -198 473<1198 1234 1198 1198>
Fore
-18 -275 m 1
 -89 -275 l 1
 190 1163 l 1
 -76 1163 l 1
 36 1033 l 1
 -23 984 l 1
 -198 1198 l 1
 61 1413 l 1
 100 1364 l 1
 -62 1234 l 1
 275 1234 l 1
 -18 -275 l 1
EndSplineSet
EndChar
StartChar: uni2010
Encoding: 319 8208 215
Width: 973
Flags: W
HStem: 580 165<335 928 335 928 335 335>
Fore
335 745 m 1
 960 745 l 1
 928 580 l 1
 303 580 l 1
 335 745 l 1
EndSplineSet
EndChar
StartChar: endash
Encoding: 320 8211 216
Width: 1024
Flags: W
HStem: 489 144<123 1119>
Fore
123 633 m 1
 1147 633 l 1
 1119 489 l 1
 95 489 l 1
 123 633 l 1
EndSplineSet
EndChar
StartChar: emdash
Encoding: 321 8212 217
Width: 2048
Flags: W
HStem: 489 144<123 2143>
Fore
123 633 m 1
 2171 633 l 1
 2143 489 l 1
 95 489 l 1
 123 633 l 1
EndSplineSet
EndChar
StartChar: horizontalbar
Encoding: 322 8213 218
Width: 1862
Flags: W
HStem: 572 160<252 1863>
Fore
1863 572 m 1
 221 572 l 1
 252 732 l 1
 1894 732 l 1
 1863 572 l 1
EndSplineSet
EndChar
StartChar: underscoredbl
Encoding: 323 8215 219
Width: 1118
Flags: W
HStem: -423 130<-73 1052> -212 130<-32 1093>
Fore
1093 -212 m 1
 -57 -212 l 1
 -32 -82 l 1
 1118 -82 l 1
 1093 -212 l 1
1052 -423 m 1
 -98 -423 l 1
 -73 -293 l 1
 1077 -293 l 1
 1052 -423 l 1
EndSplineSet
EndChar
StartChar: quoteleft
Encoding: 324 8216 220
Width: 651
Flags: W
HStem: 1001 492<580 628 628 628>
Fore
580 1001 m 1
 369 1001 l 1
 402 1174 l 1
 628 1493 l 1
 757 1493 l 1
 613 1174 l 1
 580 1001 l 1
EndSplineSet
EndChar
StartChar: quoteright
Encoding: 325 8217 221
Width: 651
Flags: W
HStem: 1022 471<506 550 550 550>
Fore
550 1493 m 1
 761 1493 l 1
 732 1341 l 1
 506 1022 l 1
 377 1022 l 1
 521 1341 l 1
 550 1493 l 1
EndSplineSet
EndChar
StartChar: quotesinglbase
Encoding: 326 8218 222
Width: 651
Flags: W
HStem: -238 492<257 305 305 305>
Fore
305 254 m 1
 516 254 l 1
 483 82 l 1
 257 -238 l 1
 128 -238 l 1
 272 82 l 1
 305 254 l 1
EndSplineSet
EndChar
StartChar: quotereversed
Encoding: 327 8219 223
Width: 432
Flags: W
HStem: 997 559<372 637 637 637>
Fore
637 1556 m 1
 372 997 l 1
 130 997 l 1
 499 1556 l 1
 637 1556 l 1
EndSplineSet
EndChar
StartChar: quotedblleft
Encoding: 328 8220 224
Width: 1061
Flags: W
HStem: 1001 492<580 628 628 628>
Fore
580 1001 m 1
 369 1001 l 1
 402 1174 l 1
 628 1493 l 1
 757 1493 l 1
 613 1174 l 1
 580 1001 l 1
990 1001 m 1
 779 1001 l 1
 812 1174 l 1
 1038 1493 l 1
 1167 1493 l 1
 1023 1174 l 1
 990 1001 l 1
EndSplineSet
EndChar
StartChar: quotedblright
Encoding: 329 8221 225
Width: 1061
Flags: W
HStem: 1001 492<498 546 546 546>
Fore
546 1493 m 1
 757 1493 l 1
 724 1321 l 1
 498 1001 l 1
 369 1001 l 1
 513 1321 l 1
 546 1493 l 1
956 1493 m 1
 1167 1493 l 1
 1134 1321 l 1
 908 1001 l 1
 779 1001 l 1
 923 1321 l 1
 956 1493 l 1
EndSplineSet
EndChar
StartChar: quotedblbase
Encoding: 330 8222 226
Width: 1061
Flags: W
HStem: -238 492<667 715 715 715>
Fore
715 254 m 1
 926 254 l 1
 893 82 l 1
 667 -238 l 1
 538 -238 l 1
 682 82 l 1
 715 254 l 1
305 254 m 1
 516 254 l 1
 483 82 l 1
 257 -238 l 1
 128 -238 l 1
 272 82 l 1
 305 254 l 1
EndSplineSet
EndChar
StartChar: dagger
Encoding: 331 8224 227
Width: 1024
Flags: W
HStem: 920 153<266 603 809 1146 236 1176 266 266> 1473 20G<710.143 890>
Fore
714 1493 m 1
 890 1493 l 1
 809 1073 l 1
 1176 1073 l 1
 1146 920 l 1
 779 920 l 1
 562 -197 l 1
 386 -197 l 1
 603 920 l 1
 236 920 l 1
 266 1073 l 1
 633 1073 l 1
 714 1493 l 1
EndSplineSet
EndChar
StartChar: daggerdbl
Encoding: 332 8225 228
Width: 1024
Flags: W
HStem: 223 154<130 467 673 1010> 920 153<266 603 809 1146> 1473 20G<710.143 890>
Fore
1010 223 m 1
 643 223 l 1
 562 -197 l 1
 386 -197 l 1
 467 223 l 1
 100 223 l 1
 130 377 l 1
 497 377 l 1
 603 920 l 1
 236 920 l 1
 266 1073 l 1
 633 1073 l 1
 714 1493 l 1
 890 1493 l 1
 809 1073 l 1
 1176 1073 l 1
 1146 920 l 1
 779 920 l 1
 673 377 l 1
 1040 377 l 1
 1010 223 l 1
EndSplineSet
EndChar
StartChar: bullet
Encoding: 333 8226 229
Width: 1208
Flags: W
HStem: 465 592<646.607 855.539>
VStem: 449 606<659.944 863.468>
Fore
1055 821 m 0
 1055 635 887 465 694 465 c 256
 542 465 449 568 449 703 c 0
 449 883 612 1057 811 1057 c 0
 962 1057 1055 954 1055 821 c 0
EndSplineSet
EndChar
StartChar: ellipsis
Encoding: 334 8230 230
Width: 2048
Flags: W
HStem: 0 254<285 449 967 1130 1648 1812>
Fore
967 254 m 1
 1179 254 l 1
 1130 0 l 1
 918 0 l 1
 967 254 l 1
1648 254 m 1
 1861 254 l 1
 1812 0 l 1
 1599 0 l 1
 1648 254 l 1
285 254 m 1
 498 254 l 1
 449 0 l 1
 236 0 l 1
 285 254 l 1
EndSplineSet
EndChar
StartChar: perthousand
Encoding: 335 8240 231
Width: 2748
Flags: W
HStem: -29 127<1408.08 1624.7 2207.17 2427.7> 657 127<1498.7 1715.16 2301.63 2518.16> 707 127<518.424 737.366> 1393 127<610.98 831.145>
VStem: 318 160<870.232 1224.9> 870 162<1002.43 1351.45> 1204 162<138.15 489.003> 1756 162<266.465 619.676> 2007 161<138.187 489.078> 2559 162<266.465 619.676>
Fore
2311 98 m 0xdfc0
 2483 98 2559 328 2559 477 c 0
 2559 581 2520 657 2420 657 c 0
 2219 657 2168 377 2168 279 c 0
 2168 175 2209 98 2311 98 c 0xdfc0
2007 261 m 0
 2007 477 2137 784 2444 784 c 0
 2627 784 2721 669 2721 493 c 0
 2721 275 2589 -29 2286 -29 c 0
 2102 -29 2007 84 2007 261 c 0
318 996 m 0
 318 1216 450 1520 752 1520 c 256
 935 1520 1032 1406 1032 1228 c 0
 1032 1018 904 707 594 707 c 256xbfc0
 410 707 318 820 318 996 c 0
1655 1520 m 1
 1815 1520 l 1
 580 -29 l 1
 420 -29 l 1
 1655 1520 l 1
619 834 m 256
 820 834 870 1114 870 1211 c 0
 870 1320 825 1393 728 1393 c 256
 528 1393 478 1111 478 1011 c 0
 478 909 518 834 619 834 c 256
1204 261 m 0
 1204 477 1334 784 1641 784 c 0xdfc0
 1824 784 1918 669 1918 493 c 0
 1918 275 1786 -29 1483 -29 c 0
 1299 -29 1204 84 1204 261 c 0
1508 98 m 0
 1680 98 1756 328 1756 477 c 0
 1756 581 1717 657 1617 657 c 0
 1416 657 1366 377 1366 278 c 0
 1366 175 1406 98 1508 98 c 0
EndSplineSet
EndChar
StartChar: minute
Encoding: 336 8242 232
Width: 602
Flags: W
HStem: 870 619<442 860 860 860>
Fore
860 1489 m 1
 442 870 l 1
 306 870 l 1
 620 1489 l 1
 860 1489 l 1
EndSplineSet
EndChar
StartChar: second
Encoding: 337 8243 233
Width: 972
Flags: W
HStem: 870 619<438 856 856 856>
Fore
856 1489 m 1
 438 870 l 1
 306 870 l 1
 620 1489 l 1
 856 1489 l 1
1250 1489 m 1
 832 870 l 1
 700 870 l 1
 1014 1489 l 1
 1250 1489 l 1
EndSplineSet
EndChar
StartChar: guilsinglleft
Encoding: 338 8249 234
Width: 819
Flags: W
HStem: 141 918<654 833 833 833>
VStem: 267 566<559 1059 559 559>
Fore
833 1059 m 1
 796 868 l 1
 443 600 l 1
 692 332 l 1
 654 141 l 1
 267 559 l 1
 283 641 l 1
 833 1059 l 1
EndSplineSet
EndChar
StartChar: guilsinglright
Encoding: 339 8250 235
Width: 819
Flags: W
HStem: 141 918<220 399 399 399>
VStem: 220 567<141 641 141 141>
Fore
399 1059 m 1
 787 641 l 1
 771 559 l 1
 220 141 l 1
 258 332 l 1
 611 600 l 1
 362 868 l 1
 399 1059 l 1
EndSplineSet
EndChar
StartChar: uni203E
Encoding: 341 8254 237
Width: 1118
Flags: W
HStem: 1658 131<300 1440>
Fore
1440 1658 m 1
 274 1658 l 1
 300 1789 l 1
 1466 1789 l 1
 1440 1658 l 1
EndSplineSet
EndChar
StartChar: fraction
Encoding: 342 8260 238
Width: 886
Flags: W
HStem: 0 21G<-29 150.359>
Fore
1205 1489 m 1
 136 0 l 1
 -29 0 l 1
 1040 1489 l 1
 1205 1489 l 1
EndSplineSet
EndChar
StartChar: uni207F
Encoding: 343 8319 239
Width: 1010
Flags: W
HStem: 1368 151<757.483 928.662>
VStem: 950 178<1178.36 1343.91>
Fore
881 1519 m 0
 970 1519 1128 1491 1128 1276 c 0
 1128 1243 1124 1205 1116 1163 c 2
 1000 566 l 1
 828 566 l 1
 929 1088 l 2
 942 1151 950 1204 950 1246 c 0
 950 1327 916 1368 807 1368 c 0
 758 1368 687 1357 540 1254 c 1
 406 566 l 1
 235 566 l 1
 414 1488 l 1
 585 1488 l 1
 566 1388 l 1
 736 1513 823 1519 881 1519 c 0
EndSplineSet
EndChar
StartChar: dottedcircle
Encoding: 361 9676 240
Width: 1255
Flags: W
HStem: 7 121<569.498 679.893> 68 121<875.498 985.782> 98 121<322.498 432.842> 234 121<1073.57 1183.33> 249 121<209.301 318.893> 445 121<125.742 235.893 1191.74 1282.69> 679 121<186.41 297.446 1221.81 1331.92> 868 121<328.57 438.347> 891 121<1155.5 1265.78> 1011 121<545.344 655.893> 1034 121<995.498 1105.48> 1079 121<784.344 895.173>
VStem: 119 123<451.342 559.304> 180 123<685.562 793.922> 202 123<255.562 363.874> 316 123<107.523 213.062 874.672 982.999> 539 123<1017.34 1125.3> 563 123<13.5618 121.922> 778 124<1085.6 1193.35> 869 123<74.1 182.712> 989 123<1040.95 1148.71> 1067 123<240.517 348.999> 1149 123<897.562 1005.71> 1182 123<444.562 553.062> 1215 123<685.562 793.328>
Fore
445 942 m 0x07
 445 902 411 868 372 868 c 0
 340 868 322 888 322 916 c 0
 322 951 351 989 395 989 c 0
 427 989 445 969 445 942 c 0x07
662 1084 m 0x064080
 662 1043 627 1011 589 1011 c 0
 557 1011 539 1031 539 1059 c 0
 539 1099 576 1132 612 1132 c 0
 642 1132 662 1114 662 1084 c 0x064080
902 1153 m 0x061020
 902 1112 867 1079 828 1079 c 0
 796 1079 778 1099 778 1127 c 0
 778 1167 815 1200 851 1200 c 0
 880 1200 902 1182 902 1153 c 0x061020
242 518 m 0x0608
 242 477 207 445 168 445 c 0
 137 445 119 465 119 493 c 0
 119 533 156 566 192 566 c 0
 222 566 242 548 242 518 c 0x0608
325 322 m 0x0e02
 325 281 290 249 251 249 c 0
 221 249 202 269 202 296 c 0
 202 329 231 370 275 370 c 0
 305 370 325 350 325 322 c 0x0e02
439 171 m 0x2601
 439 130 404 98 365 98 c 0
 335 98 316 118 316 145 c 0
 316 185 349 219 389 219 c 0
 416 219 439 202 439 171 c 0x2601
686 80 m 0x860040
 686 39 651 7 612 7 c 0
 582 7 563 27 563 54 c 0
 563 93 596 128 636 128 c 0
 666 128 686 108 686 80 c 0x860040
992 140 m 0x460010
 992 109 966 68 918 68 c 0
 888 68 869 88 869 115 c 0
 869 155 902 189 942 189 c 0
 974 189 992 168 992 140 c 0x460010
1190 308 m 0x160004
 1190 267 1156 234 1116 234 c 0
 1085 234 1067 254 1067 282 c 0
 1067 317 1096 355 1140 355 c 0
 1172 355 1190 335 1190 308 c 0x160004
1305 511 m 0x060001
 1305 470 1270 438 1231 438 c 0
 1201 438 1182 458 1182 485 c 0
 1182 525 1215 559 1255 559 c 0
 1282 559 1305 542 1305 511 c 0x060001
1338 752 m 0x06000080
 1338 711 1303 679 1264 679 c 0
 1234 679 1215 699 1215 726 c 0
 1215 766 1250 800 1288 800 c 0
 1317 800 1338 781 1338 752 c 0x06000080
1272 963 m 0x068002
 1272 923 1236 891 1198 891 c 0
 1168 891 1149 911 1149 938 c 0
 1149 977 1182 1012 1222 1012 c 0
 1252 1012 1272 991 1272 963 c 0x068002
1112 1106 m 0x062008
 1112 1070 1079 1034 1038 1034 c 0
 1008 1034 989 1054 989 1081 c 0
 989 1121 1022 1155 1062 1155 c 0
 1094 1155 1112 1134 1112 1106 c 0x062008
303 750 m 0x0604
 303 710 267 679 229 679 c 0
 199 679 180 699 180 726 c 0
 180 765 212 800 253 800 c 0
 283 800 303 779 303 750 c 0x0604
EndSplineSet
EndChar
StartChar: uni0E10.descless
Encoding: 362 63232 241
Width: 1170
Flags: W
HStem: 0 21G<683 876.401> 270 125<409.185 547.06> 544 125<422.008 557.233> 1064 158<638.172 1031.59>
VStem: 276 130<397.341 528.225> 561 239<409.307 506.163> 910 202<605.182 743.572>
Back
949.922 658.918 m 10
 949.922 0 l 1
 764 0 l 1
 747.273 40.8519 728.542 79.8772 707.805 117.076 c 128
 687.068 154.275 668.583 185.034 652.35 209.353 c 128
 628 245.833 628 245.833 559.5 344.635 c 1
 549.239 322.296 528.307 303.711 496.705 288.88 c 128
 465.104 274.05 432.369 266.635 398.5 266.635 c 0
 347.445 266.635 302.015 285.189 262.209 322.296 c 128
 222.403 359.404 202.5 406.517 202.5 463.635 c 0
 202.5 522.689 221.983 571.286 260.95 609.426 c 128
 299.917 647.565 351.433 666.635 415.5 666.635 c 0
 440.817 666.635 465.582 662.775 489.797 655.054 c 128
 514.012 647.333 535.725 637.602 554.938 625.86 c 128
 574.151 614.118 593.303 599.042 612.392 580.631 c 128
 631.481 562.22 647.814 544.651 661.389 527.923 c 128
 674.964 511.196 689.017 491.505 703.546 468.85 c 128
 718.075 446.195 729.591 427.233 738.094 411.966 c 128
 750.847 389.064 750.847 389.064 766.5 358.85 c 1
 766.5 594.917 l 2
 766.5 625.1 754.897 652.519 731.692 677.176 c 128
 708.487 701.833 677.768 722.009 639.537 737.704 c 128
 601.306 753.399 557.606 767.697 508.438 780.597 c 128
 459.269 793.496 408.722 803.281 356.796 809.95 c 128
 278.907 819.953 278.907 819.953 203.016 829.858 c 128
 152.422 836.461 106.583 841.314 65.5 844.417 c 1
 65.5 1047.42 l 1
 128.094 1091.74 182.21 1125.6 227.848 1149 c 128
 273.486 1172.39 326.032 1190.73 385.485 1204.01 c 128
 444.938 1217.28 513.943 1223.92 592.5 1223.92 c 0
 683.248 1223.92 762.748 1208.64 831 1178.08 c 0
 873.221 1165.22 873.221 1165.22 891.783 1159.49 c 128
 904.158 1155.67 918.268 1152.21 934.113 1149.1 c 128
 949.958 1145.99 959.955 1144.2 964.104 1143.74 c 128
 968.253 1143.28 975.978 1144.04 987.279 1146.01 c 128
 998.58 1147.98 1006.08 1150.09 1009.79 1152.36 c 128
 1013.5 1154.63 1022.62 1158.97 1037.16 1165.38 c 128
 1058.97 1175.01 1058.97 1175.01 1075.5 1181.92 c 1
 1075.5 997.917 l 1
 980.16 964.558 876.917 973.225 765.77 1023.92 c 0
 717.515 1050.59 659.759 1063.92 592.5 1063.92 c 0
 537.487 1063.92 482.167 1056.22 426.54 1040.83 c 128
 370.913 1025.43 320.567 1004.56 275.5 978.207 c 1
 305 975.712 337.246 971.937 372.237 966.88 c 128
 407.228 961.823 443.296 956.918 480.441 952.163 c 128
 517.586 947.408 554.973 940.577 592.602 931.668 c 128
 630.231 922.759 666.434 913.205 701.211 903.006 c 128
 735.987 892.807 768.502 879.734 798.757 863.789 c 128
 829.012 847.843 855.336 830.456 877.731 811.628 c 128
 900.126 792.799 917.756 770.301 930.623 744.133 c 128
 943.489 717.966 949.922 689.561 949.922 658.918 c 10
403.5 392.635 m 24
 424.454 392.635 442.526 399.69 457.716 413.801 c 128
 472.905 427.912 480.5 445.19 480.5 465.635 c 0
 480.5 486.593 473.073 504.499 458.219 519.354 c 128
 443.365 534.208 425.459 541.635 404.5 541.635 c 128
 383.541 541.635 365.635 534.208 350.781 519.354 c 128
 335.927 504.499 328.5 486.593 328.5 465.635 c 0
 328.5 445.35 335.865 428.113 350.596 413.922 c 128
 365.327 399.731 382.961 392.635 403.5 392.635 c 24
EndSplineSet
Fore
498 544 m 0
 443 544 406 494 406 454 c 0
 406 421 429 395 468 395 c 8
 517 395 561 436 561 484 c 0
 561 521 534 544 498 544 c 0
276 422 m 0
 276 565 391 669 538 669 c 0
 727 669 798 459 800 286 c 1
 900 566 l 2
 904 576 910 597 910 618 c 0
 910 673 867 708 782 722 c 10
 290 802 l 17
 337 1046 l 17
 391 1083 583 1222 900 1222 c 0
 1161 1222 1264 1084 1291 999 c 9
 1117 887 l 17
 1114 980 1017 1064 855 1064 c 0
 712 1064 559 997 474 940 c 9
 883 878 l 18
 1036 854 1112 794 1112 698 c 0
 1112 664 1104 636 1094 608 c 10
 869 0 l 1
 683 0 l 1
 683 12 l 2
 683 70 671 231 626 348 c 1
 596 300 521 270 448 270 c 0
 358 270 276 314 276 422 c 0
EndSplineSet
EndChar
StartChar: uni0E48.low
Encoding: 372 63242 251
Width: 0
Flags: W
HStem: 1450 414<-9 82 -9 82 -9 -9>
AnchorPoint: "AboveBase" 67 1340 mark 0
Fore
-9 1864 m 25
 162 1864 l 1
 82 1450 l 1
 -89 1450 l 1
 -9 1864 l 25
EndSplineSet
EndChar
StartChar: uni0E49.low
Encoding: 373 63243 252
Width: 0
Flags: W
HStem: 1344 86<-514 -396.175> 1518 73<-438.006 -346.677> 1737 81<-428.624 -284.334>
VStem: -525 84<1593.63 1722.5> -282 97<1625.23 1733.82>
AnchorPoint: "AboveBase" -24 1340 mark 0
Fore
-525 1637 m 0
 -525 1734 -438 1818 -335 1818 c 0
 -215 1818 -185 1752 -185 1695 c 0
 -185 1654 -208 1549 -271 1481 c 1
 -131 1503 26 1539 243 1812 c 1
 269 1668 l 1
 -25 1356 -305 1344 -488 1344 c 2
 -531 1344 l 1
 -514 1430 l 1
 -422 1430 -368 1500 -346 1525 c 1
 -357 1520 -379 1518 -409 1518 c 0
 -478 1518 -525 1566 -525 1637 c 0
-346 1737 m 0
 -404 1737 -441 1692 -441 1651 c 0
 -441 1618 -417 1591 -378 1591 c 8
 -324 1591 -282 1636 -282 1679 c 0
 -282 1715 -309 1737 -346 1737 c 0
EndSplineSet
EndChar
StartChar: uni0E4A.low
Encoding: 374 63244 253
Width: 0
Flags: W
HStem: 1332 85<-512.491 -338.822> 1543 76<-459.661 -331.797>
VStem: -621 150<1419.52 1591.18> -331 83<1426.78 1541.21> -24 124<1512.42 1692.58>
AnchorPoint: "AboveBase" 75 1340 mark 0
Fore
-386 1543 m 0
 -432 1543 -471 1499 -471 1463 c 0
 -471 1435 -447 1417 -415 1417 c 0
 -374 1417 -331 1443 -331 1489 c 0
 -331 1522 -354 1543 -386 1543 c 0
-248 1508 m 0
 -248 1437 -307 1332 -468 1332 c 0
 -554 1332 -621 1402 -621 1500 c 0
 -621 1606 -556 1748 -349 1817 c 1
 -215 1724 l 1
 -57 1825 l 1
 6 1805 100 1752 100 1651 c 0
 100 1552 43 1493 14 1465 c 1
 126 1502 251 1714 305 1847 c 1
 374 1748 l 1
 314 1592 126 1344 -93 1344 c 1
 -145 1426 l 1
 -102 1470 l 2
 -63 1512 -24 1555 -24 1617 c 0
 -24 1668 -58 1685 -84 1706 c 1
 -243 1618 l 1
 -371 1704 l 1
 -437 1679 -501 1619 -516 1544 c 1
 -511 1555 -453 1619 -371 1619 c 0
 -288 1619 -248 1567 -248 1508 c 0
EndSplineSet
EndChar
StartChar: uni0E4B.low
Encoding: 375 63245 254
Width: 0
VWidth: 2104
Flags: W
HStem: 1344 480<-170 -94> 1499 170<-356 -234 -31 91 -389 124 -356 -356>
AnchorPoint: "AboveBase" 11 1340 mark 0
Fore
91 1499 m 1x40
 -64 1499 l 1x40
 -94 1344 l 1
 -264 1344 l 1x80
 -234 1499 l 1
 -389 1499 l 1
 -356 1669 l 1
 -201 1669 l 1x40
 -170 1824 l 1
 -0 1824 l 1x80
 -31 1669 l 1
 124 1669 l 1
 91 1499 l 1x40
EndSplineSet
EndChar
StartChar: uni0E4C.low
Encoding: 376 63246 255
Width: 0
VWidth: 2104
Flags: W
HStem: 1344 116<-370.789 -180.913> 1683 135<-339.473 -151.417> 1709 108<-44.7373 95.6355>
VStem: -508 127<1472.47 1645.16> -145 134<1495.21 1666.44>
AnchorPoint: "AboveBase" -56 1340 mark 0
Fore
-508 1523 m 0xb8
 -508 1658 -372 1818 -191 1818 c 0xd8
 -164 1818 -124 1817 -79 1817 c 0
 50 1817 233 1825 331 1880 c 1
 342 1738 l 1
 283 1708 233 1699 186 1699 c 0
 133 1699 83 1709 28 1709 c 0
 4 1709 -19 1708 -46 1702 c 1
 -30 1682 l 2
 -17 1666 -11 1651 -11 1628 c 0
 -11 1478 -140 1344 -302 1344 c 0
 -467 1344 -508 1443 -508 1523 c 0xb8
-236 1683 m 0
 -341 1683 -381 1595 -381 1543 c 0
 -381 1493 -341 1460 -283 1460 c 0
 -218 1460 -145 1505 -145 1603 c 0
 -145 1657 -175 1683 -236 1683 c 0
EndSplineSet
EndChar
StartChar: uni0E0D.descless
Encoding: 377 63247 256
Width: 1800
Flags: W
HStem: -10 132<397.888 528.016> 0 156<1136 1463> 266 132<451.022 538.106> 1072 160<623.27 1011.61>
VStem: 229 165<125.445 232.495> 541 133<136.395 264.14> 1067 186<719.241 740 756 779.689 779.689 841.651 810.67 1003.96>
Fore
674 234 m 0x7e
 674 111 560 -10 426 -10 c 0xbe
 285 -10 229 81 229 183 c 0
 229 202 230 220 234 239 c 2
 278 465 l 2
 298 566 381 702 510 760 c 1
 292 862 l 1
 329 1056 l 17
 372 1087 570 1232 881 1232 c 0
 1065 1232 1267 1160 1267 889 c 0
 1267 849 1263 805 1253 756 c 2
 1136 156 l 1
 1463 156 l 1
 1667 1204 l 1
 1852 1204 l 1
 1618 0 l 1
 923 0 l 1
 1067 740 l 2
 1075 783 1080 824 1080 862 c 0
 1080 985 1026 1072 850 1072 c 0
 711 1072 561 1014 465 950 c 1
 694 836 l 1
 665 688 l 1
 596 663 489 597 463 464 c 2
 450 395 l 1
 451 397 470 398 505 398 c 0
 605 398 674 328 674 234 c 0x7e
482 266 m 0
 434 266 394 223 394 179 c 0
 394 144 421 122 454 122 c 0
 501 122 541 164 541 208 c 0
 541 243 516 266 482 266 c 0
EndSplineSet
EndChar
StartChar: uni0E38.low
Encoding: 386 63256 265
Width: 0
Flags: W
HStem: -782 92<-567.099 -491.235> -584 106<-564.24 -454.355>
VStem: -658.125 90<-688.565 -589.407> -454.125 144<-675.938 -595.193>
Back
-408 -410 m 0
 -300 -410 -264 -463 -264 -542 c 0
 -264 -560 -266 -579 -270 -600 c 2
 -306 -804 l 1
 -437 -804 l 1
 -415 -682 l 1
 -430 -694 -456 -694 -466 -694 c 0
 -549 -694 -578 -620 -578 -579 c 0
 -578 -493 -490 -410 -408 -410 c 0
-375 -547 m 0
 -375 -517 -399 -496 -429 -496 c 24
 -470 -496 -508 -526 -508 -570 c 0
 -508 -599 -484 -622 -452 -622 c 0
 -412 -622 -375 -588 -375 -547 c 0
EndSplineSet
Refer: 179 3640 N 1 0 0 1 -63.125 -358 2
EndChar
StartChar: uni0E39.low
Encoding: 387 63257 266
Width: 0
Flags: W
HStem: -882 102<-661.125 -520.125> -782 92<-891.599 -815.353> -584 106<-888.595 -778.856>
VStem: -983.125 91<-688.599 -589.671> -778.125 143<-675.797 -585.776>
Back
-529 -569 m 0
 -529 -584 -531 -601 -534 -617 c 2
 -552 -722 l 1
 -417 -722 l 1
 -365 -428 l 1
 -231 -428 l 1
 -300 -816 l 1
 -700 -816 l 1
 -674 -672 l 1
 -692 -688 -704 -688 -732 -688 c 0
 -795 -688 -837 -639 -837 -582 c 0
 -837 -502 -767 -417 -667 -417 c 0
 -557 -417 -529 -494 -529 -569 c 0
-634 -541 m 0
 -634 -516 -656 -495 -685 -495 c 24
 -726 -495 -763 -531 -763 -570 c 0
 -763 -595 -745 -620 -711 -620 c 0
 -663 -620 -634 -573 -634 -541 c 0
EndSplineSet
Refer: 180 3641 N 1 0 0 1 -63.125 -358 2
EndChar
StartChar: uniF71B
Encoding: 389 63259 268
Width: 1000
Flags: W
HStem: 61 1024<426 842 227 1041 426 426>
Fore
1041 1085 m 1
 842 61 l 1
 227 61 l 1
 426 1085 l 1
 1041 1085 l 1
EndSplineSet
EndChar
StartChar: uniF71C
Encoding: 390 63260 269
Width: 700
Flags: W
HStem: -423 269<25 214 214 214>
Fore
25 -423 m 1
 214 -154 l 1
 456 -154 l 1
 163 -423 l 1
 25 -423 l 1
EndSplineSet
EndChar
StartChar: uniF71D
Encoding: 391 63261 270
Width: 800
Flags: W
HStem: -236 211<177 220 507 570 136 611 177 177> -127 102<241 507>
Fore
570 -236 m 1x80
 486 -236 l 1x80
 507 -127 l 1
 241 -127 l 1x40
 220 -236 l 1
 136 -236 l 1
 177 -25 l 1
 611 -25 l 1
 570 -236 l 1x80
EndSplineSet
EndChar
StartChar: zerowidthnonjoiner
Encoding: 315 8204 271
Width: 0
Flags: W
VStem: -89 376<-275 1289 -275 -275>
Fore
287 1289 m 1
 -17 -275 l 1
 -89 -275 l 1
 215 1289 l 1
 287 1289 l 1
EndSplineSet
EndChar
StartChar: uni00B9
Encoding: 122 185 274
Width: 821
Flags: W
HStem: 668 835<615.441 630 630 655 659 839 659 659> 668 110<307 511 655 839 286 860 307 307>
Fore
307 778 m 1x40
 511 778 l 1x40
 630 1389 l 1
 399 1348 l 1
 422 1464 l 1
 659 1503 l 1
 796 1503 l 1x80
 655 778 l 1
 860 778 l 1x40
 839 668 l 1x80
 286 668 l 1
 307 778 l 1x40
EndSplineSet
EndChar
StartChar: ordmasculine
Encoding: 123 186 275
Width: 965
Flags: W
HStem: 469 123<254 918> 698 117<520.144 779.036> 1405 115<620.731 878.063>
VStem: 300 158<878.477 1218.1> 937 158<1001.2 1346.82>
Fore
254 592 m 1
 942 592 l 1
 918 469 l 1
 230 469 l 1
 254 592 l 1
300 1000 m 0
 300 1225 443 1520 778 1520 c 256
 982 1520 1095 1407 1095 1220 c 0
 1095 1006 965 698 619 698 c 256
 414 698 300 811 300 1000 c 0
641 815 m 0
 843 815 937 1036 937 1200 c 0
 937 1321 880 1405 756 1405 c 0
 559 1405 458 1188 458 1021 c 0
 458 893 526 815 641 815 c 0
EndSplineSet
EndChar
StartChar: guillemotright
Encoding: 124 187 276
Width: 1253
Flags: W
HStem: 141 918<220 399 399 399>
VStem: 220 1001<141 641 141 141>
Fore
399 1059 m 1
 787 641 l 1
 771 559 l 1
 220 141 l 1
 258 332 l 1
 611 600 l 1
 362 868 l 1
 399 1059 l 1
833 1059 m 1
 1221 641 l 1
 1205 559 l 1
 654 141 l 1
 692 332 l 1
 1045 600 l 1
 796 868 l 1
 833 1059 l 1
EndSplineSet
EndChar
StartChar: questiondown
Encoding: 128 191 280
Width: 1087
Flags: W
HStem: -29 164<464.19 724.806> 1239 254<784 937>
VStem: 199 208<187.911 423.982>
Fore
545 -29 m 0
 326 -29 199 80 199 250 c 0
 199 399 275 500 426 623 c 2
 531 709 l 2
 644 802 661 828 688 969 c 2
 712 1092 l 1
 902 1092 l 1
 872 936 l 2
 844 790 795 723 665 618 c 2
 558 530 l 2
 512 495 407 413 407 294 c 0
 407 198 483 135 612 135 c 0
 753 135 910 221 993 272 c 1
 956 84 l 1
 770 -18 628 -29 545 -29 c 0
937 1239 m 1
 735 1239 l 1
 784 1493 l 1
 986 1493 l 1
 937 1239 l 1
EndSplineSet
EndChar
StartChar: Agrave
Encoding: 129 192 281
Width: 1401
Flags: W
HStem: 0 21<16 239.966 1170.76 1384> 383 168<533 1082> 1473 20<864.48 1108.74>
Back
1012 1899 m 1
 1157 1635 l 1
 1004 1635 l 1
 825 1899 l 1
 1012 1899 l 1
EndSplineSet
Refer: 400 63182 N 1 0 0 1 1366 373 2
Refer: 37 65 N 1 0 0 1 0 0 3
EndChar
StartChar: Aacute
Encoding: 130 193 282
Width: 1401
Flags: W
HStem: 0 21<16 239.966 1170.76 1384> 383 168<533 1082> 1473 20<864.48 1108.74>
Back
1124 1899 m 1
 1309 1899 l 1
 1030 1635 l 1
 877 1635 l 1
 1124 1899 l 1
EndSplineSet
Refer: 398 63177 N 1 0 0 1 1366 373 2
Refer: 37 65 N 1 0 0 1 0 0 3
EndChar
StartChar: Acircumflex
Encoding: 131 194 283
Width: 1401
Flags: W
HStem: 0 21<16 239.966 1170.76 1384> 383 168<533 1082> 1473 20<864.48 1108.74>
VStem: 680 635<1635 1635 1635 1635>
Back
976 1901 m 1
 1164 1901 l 1
 1323 1635 l 1
 1184 1635 l 1
 1052 1813 l 1
 852 1635 l 1
 713 1635 l 1
 976 1901 l 1
EndSplineSet
Refer: 401 61431 N 1 0 0 1 1366 373 2
Refer: 37 65 N 1 0 0 1 0 0 3
EndChar
StartChar: Atilde
Encoding: 132 195 284
Width: 1401
Flags: W
HStem: 0 21<16 239.966 1170.76 1384> 383 168<533 1082> 1473 20<864.48 1108.74> 1667 119<1060.23 1238.78> 1667 219<1029.22 1044.41 1264 1283 674 1389 917 917> 1768 118<828.26 1002.81>
VStem: 1264 125<1780.8 1886>
Back
1397 1886 m 1xe8
 1368 1753 1278 1667 1165 1667 c 0xf0
 1113 1667 1080 1680 1028 1710 c 2
 978 1743 l 2
 945 1764 929 1768 915 1768 c 0xe4
 864 1768 831 1728 820 1673 c 2
 819 1667 l 1
 694 1667 l 1
 719 1797 806 1886 926 1886 c 0xe8
 984 1886 1017 1872 1062 1843 c 2
 1113 1813 l 2
 1148 1791 1167 1788 1181 1788 c 0xf0
 1224 1788 1260 1825 1270 1880 c 2
 1272 1886 l 1
 1397 1886 l 1xe8
EndSplineSet
Refer: 399 61429 N 1 0 0 1 1366 373 2
Refer: 37 65 N 1 0 0 1 0 0 3
EndChar
StartChar: Adieresis
Encoding: 133 196 285
Width: 1401
Flags: W
HStem: 0 21<16 239.966 1170.76 1384> 383 168<533 1082> 1473 20<864.48 1108.74> 1667 203<748 911 1139 1303 709 1341 748 748>
Back
1157 1870 m 1
 1360 1870 l 1
 1321 1667 l 1
 1118 1667 l 1
 1157 1870 l 1
766 1870 m 1
 969 1870 l 1
 930 1667 l 1
 727 1667 l 1
 766 1870 l 1
EndSplineSet
Refer: 397 63179 N 1 0 0 1 1366 373 2
Refer: 37 65 N 1 0 0 1 0 0 3
EndChar
StartChar: Aring
Encoding: 134 197 286
Width: 1401
Flags: W
HStem: 0 21G<16 239.966 1170.76 1384> 383 168<535 1080> 1778 123<929.294 1143.12>
VStem: 736 126<1500.86 1709.68> 1171 125<1544.34 1749.86>
Fore
1046 1778 m 0
 938 1778 862 1682 862 1596 c 0
 862 1525 914 1475 987 1475 c 256
 1088 1475 1171 1564 1171 1656 c 0
 1171 1728 1118 1778 1046 1778 c 0
952 1294 m 1
 535 551 l 1
 1080 551 l 1
 952 1294 l 1
1296 1681 m 0
 1296 1601 1260 1479 1124 1397 c 1
 1384 0 l 1
 1174 0 l 1
 1112 383 l 1
 439 383 l 1
 229 0 l 1
 16 0 l 1
 821 1397 l 1
 752 1451 736 1517 736 1569 c 0
 736 1746 894 1901 1070 1901 c 0
 1205 1901 1296 1807 1296 1681 c 0
EndSplineSet
EndChar
StartChar: AE
Encoding: 135 198 287
Width: 1995
Flags: W
HStem: 0 170<1137 1864> 383 168<549 975> 711 170<1275 1953> 1323 170<1031 1160 1361 2102>
Fore
2135 1493 m 1
 2102 1323 l 1
 1361 1323 l 1
 1275 881 l 1
 1986 881 l 1
 1953 711 l 1
 1242 711 l 1
 1137 170 l 1
 1897 170 l 1
 1864 0 l 1
 901 0 l 1
 975 383 l 1
 447 383 l 1
 213 0 l 1
 8 0 l 1
 923 1493 l 1
 2135 1493 l 1
1031 1335 m 1
 549 551 l 1
 1008 551 l 1
 1160 1335 l 1
 1031 1335 l 1
EndSplineSet
EndChar
StartChar: Egrave
Encoding: 137 200 289
Width: 1294
Flags: W
HStem: 0 170<457 1184> 711 170<595 1273> 1323 170<681 1423>
Back
982 1899 m 1
 1127 1635 l 1
 974 1635 l 1
 795 1899 l 1
 982 1899 l 1
EndSplineSet
Refer: 400 63182 N 1 0 0 1 1330 373 2
Refer: 41 69 N 1 0 0 1 21 0 3
EndChar
StartChar: Eacute
Encoding: 138 201 290
Width: 1294
Flags: W
HStem: 0 170<436 1163> 711 170<574 1252> 1323 170<660 1402>
Back
1094 1899 m 5
 1279 1899 l 5
 1000 1635 l 5
 847 1635 l 5
 1094 1899 l 5
EndSplineSet
Refer: 398 63177 N 1 0 0 1 1330 373 2
Refer: 41 69 N 1 0 0 1 0 0 3
EndChar
StartChar: Ecircumflex
Encoding: 139 202 291
Width: 1294
Flags: W
HStem: 0 170<436 1163> 711 170<574 1252> 1323 170<660 1402>
VStem: 644 635<1635 1635 1635 1635>
Back
946 1901 m 1
 1134 1901 l 1
 1293 1635 l 1
 1154 1635 l 1
 1022 1813 l 1
 822 1635 l 1
 683 1635 l 1
 946 1901 l 1
EndSplineSet
Refer: 401 61431 N 1 0 0 1 1330 373 2
Refer: 41 69 N 1 0 0 1 0 0 3
EndChar
StartChar: Edieresis
Encoding: 140 203 292
Width: 1294
Flags: W
HStem: 0 170<436 1163> 711 170<574 1252> 1323 170<660 1402> 1667 203<712 875 1103 1267 673 1305 712 712>
Back
1127 1870 m 1
 1330 1870 l 1
 1291 1667 l 1
 1088 1667 l 1
 1127 1870 l 1
736 1870 m 1
 939 1870 l 1
 900 1667 l 1
 697 1667 l 1
 736 1870 l 1
EndSplineSet
Refer: 397 63179 N 1 0 0 1 1330 373 2
Refer: 41 69 N 1 0 0 1 0 0 3
EndChar
StartChar: Igrave
Encoding: 141 204 293
Width: 604
Flags: W
HStem: 0 21<201 406.885> 1473 20<487.115 693>
Back
615 1899 m 1
 760 1635 l 1
 607 1635 l 1
 428 1899 l 1
 615 1899 l 1
EndSplineSet
Refer: 400 63182 N 1 0 0 1 973 373 2
Refer: 45 73 N 1 0 0 1 0 0 3
EndChar
StartChar: Iacute
Encoding: 142 205 294
Width: 604
Flags: W
HStem: 0 21<201 406.885> 1473 20<487.115 693>
Back
727 1899 m 1
 912 1899 l 1
 633 1635 l 1
 480 1635 l 1
 727 1899 l 1
EndSplineSet
Refer: 398 63177 N 1 0 0 1 973 373 2
Refer: 45 73 N 1 0 0 1 0 0 3
EndChar
StartChar: Icircumflex
Encoding: 143 206 295
Width: 604
Flags: W
HStem: 0 21<201 406.885> 1473 20<487.115 693>
VStem: 287 635<1635 1635 1635 1635>
Back
579 1901 m 1xe8
 767 1901 l 1
 926 1635 l 1
 787 1635 l 1
 655 1813 l 1
 455 1635 l 1
 316 1635 l 1
 579 1901 l 1xe8
EndSplineSet
Refer: 401 61431 N 1 0 0 1 973 373 2
Refer: 45 73 N 1 0 0 1 0 0 3
EndChar
StartChar: Idieresis
Encoding: 144 207 296
Width: 604
Flags: W
HStem: 0 21<201 406.885> 1473 20<487.115 693> 1667 203<355 518 746 910 316 948 355 355>
Back
760 1870 m 1
 963 1870 l 1
 924 1667 l 1
 721 1667 l 1
 760 1870 l 1
369 1870 m 1
 572 1870 l 1
 533 1667 l 1
 330 1667 l 1
 369 1870 l 1
EndSplineSet
Refer: 397 63179 N 1 0 0 1 973 373 2
Refer: 45 73 N 1 0 0 1 0 0 3
EndChar
StartChar: Eth
Encoding: 145 208 297
Width: 1587
Flags: W
HStem: 0 166<446 976.15> 700 144<174 347 578 886> 1327 166<672 1191.17>
VStem: 1418 216<839.083 1131.28>
Fore
1611 748 m 0
 1507 211 1174 0 627 0 c 2
 211 0 l 1
 347 700 l 1
 146 700 l 1
 174 844 l 1
 375 844 l 1
 501 1493 l 1
 917 1493 l 2
 1382 1493 1634 1342 1634 966 c 0
 1634 900 1627 828 1611 748 c 0
1398 748 m 0
 1411 815 1418 876 1418 931 c 0
 1418 1207 1252 1327 915 1327 c 2
 672 1327 l 1
 578 844 l 1
 914 844 l 1
 886 700 l 1
 550 700 l 1
 446 166 l 1
 689 166 l 2
 1093 166 1319 340 1398 748 c 0
EndSplineSet
EndChar
StartChar: Ntilde
Encoding: 146 209 298
Width: 1532
Flags: W
HStem: 0 21<201 400.891 1052.29 1334.88> 1473 20<487.115 769.709 1421.11 1621> 1667 119<1118.23 1296.78> 1667 219<1087.22 1102.41 1322 1341 732 1447 975 975> 1768 118<886.26 1060.81>
VStem: 1322 125<1780.8 1886>
Back
1463 1886 m 1xd0
 1434 1753 1344 1667 1231 1667 c 0xe0
 1179 1667 1146 1680 1094 1710 c 2
 1044 1743 l 2
 1011 1764 995 1768 981 1768 c 0xc8
 930 1768 897 1728 886 1673 c 2
 885 1667 l 1
 760 1667 l 1
 785 1797 872 1886 992 1886 c 0xd0
 1050 1886 1083 1872 1128 1843 c 2
 1179 1813 l 2
 1214 1791 1233 1788 1247 1788 c 0xe0
 1290 1788 1326 1825 1336 1880 c 2
 1338 1886 l 1
 1463 1886 l 1xd0
EndSplineSet
Refer: 399 61429 N 1 0 0 1 1424 373 2
Refer: 50 78 N 1 0 0 1 0 0 3
EndChar
StartChar: Ograve
Encoding: 147 210 299
Width: 1612
Flags: W
HStem: -29 164<640.973 1031.9> 1356 164<865.352 1261.86>
VStem: 238 216<329.677 832.961> 1448 215<657.858 1160.81>
Back
1119 1899 m 1
 1264 1635 l 1
 1111 1635 l 1
 932 1899 l 1
 1119 1899 l 1
EndSplineSet
Refer: 400 63182 N 1 0 0 1 1520 373 2
Refer: 51 79 N 1 0 0 1 0 0 3
EndChar
StartChar: Oacute
Encoding: 148 211 300
Width: 1612
Flags: W
HStem: -29 164<640.973 1031.9> 1356 164<865.352 1261.86>
VStem: 238 216<329.677 832.961> 1448 215<657.858 1160.81>
Back
1231 1899 m 1
 1416 1899 l 1
 1137 1635 l 1
 984 1635 l 1
 1231 1899 l 1
EndSplineSet
Refer: 398 63177 N 1 0 0 1 1520 373 2
Refer: 51 79 N 1 0 0 1 0 0 3
EndChar
StartChar: Ocircumflex
Encoding: 149 212 301
Width: 1612
Flags: W
HStem: -29 164<640.973 1031.9> 1356 164<865.352 1261.86>
VStem: 238 216<329.677 832.961> 834 635<1635 1635 1635 1635> 1448 215<657.858 1160.81>
Back
1083 1901 m 1
 1271 1901 l 1
 1430 1635 l 1
 1291 1635 l 1
 1159 1813 l 1
 959 1635 l 1
 820 1635 l 1
 1083 1901 l 1
EndSplineSet
Refer: 401 61431 N 1 0 0 1 1520 373 2
Refer: 51 79 N 1 0 0 1 0 0 3
EndChar
StartChar: Otilde
Encoding: 150 213 302
Width: 1612
Flags: W
HStem: -29 164<640.973 1031.9> 1356 164<865.352 1261.86> 1667 119<1214.23 1392.78> 1667 219<1183.22 1198.41 1418 1437 828 1543 1071 1071> 1768 118<982.26 1156.81>
VStem: 238 216<329.677 832.961> 1418 125<1780.8 1886> 1448 215<657.858 1160.81>
Back
1504 1886 m 1xd6
 1475 1753 1385 1667 1272 1667 c 0xe6
 1220 1667 1187 1680 1135 1710 c 2
 1085 1743 l 2
 1052 1764 1036 1768 1022 1768 c 0xce
 971 1768 938 1728 927 1673 c 2
 926 1667 l 1
 801 1667 l 1
 826 1797 913 1886 1033 1886 c 0xd6
 1091 1886 1124 1872 1169 1843 c 2
 1220 1813 l 2
 1255 1791 1274 1788 1288 1788 c 0xe6
 1331 1788 1367 1825 1377 1880 c 2
 1379 1886 l 1
 1504 1886 l 1xd6
EndSplineSet
Refer: 399 61429 N 1 0 0 1 1520 373 2
Refer: 51 79 N 1 0 0 1 0 0 3
EndChar
StartChar: Odieresis
Encoding: 151 214 303
Width: 1612
Flags: W
HStem: -29 164<640.973 1031.9> 1356 164<865.352 1261.86> 1667 203<902 1065 1293 1457 863 1495 902 902>
VStem: 238 216<329.677 832.961> 1448 215<657.858 1160.81>
Back
1264 1870 m 1
 1467 1870 l 1
 1428 1667 l 1
 1225 1667 l 1
 1264 1870 l 1
873 1870 m 1
 1076 1870 l 1
 1037 1667 l 1
 834 1667 l 1
 873 1870 l 1
EndSplineSet
Refer: 397 63179 N 1 0 0 1 1520 373 2
Refer: 51 79 N 1 0 0 1 0 0 3
EndChar
StartChar: multiply
Encoding: 152 215 304
Width: 1716
Flags: W
HStem: 1201 20G<612.694 652.122 1530.12 1569.87>
Fore
1650 1100 m 1
 1104 641 l 1
 1472 184 l 1
 1329 63 l 1
 959 522 l 1
 411 63 l 1
 317 184 l 1
 862 641 l 1
 495 1100 l 1
 636 1221 l 1
 1006 762 l 1
 1554 1221 l 1
 1650 1100 l 1
EndSplineSet
EndChar
StartChar: Oslash
Encoding: 153 216 305
Width: 1612
Flags: W
HStem: -29 164<642.087 1037.36> 1356 164<863.573 1262.26>
VStem: 238 214<417.109 833.051> 1449 214<652.27 1070.33>
Fore
833 135 m 0
 1297 135 1449 664 1449 935 c 0
 1449 1002 1440 1061 1422 1112 c 1
 541 266 l 1
 611 175 714 135 833 135 c 0
1071 1356 m 0
 604 1356 452 825 452 550 c 0
 452 484 461 425 479 377 c 1
 1362 1225 l 1
 1293 1316 1190 1356 1071 1356 c 0
1663 950 m 0
 1663 522 1385 -29 801 -29 c 0
 616 -29 484 30 391 121 c 1
 191 -70 l 1
 105 18 l 1
 315 219 l 1
 265 305 238 410 238 536 c 0
 238 954 506 1520 1102 1520 c 0
 1290 1520 1422 1460 1511 1368 c 1
 1710 1559 l 1
 1795 1470 l 1
 1586 1272 l 1
 1635 1185 1663 1078 1663 950 c 0
EndSplineSet
EndChar
StartChar: Ugrave
Encoding: 154 217 306
Width: 1499
Flags: W
HStem: -29 164<581.243 986.283> 1473 20<464.116 671 1404.12 1611>
VStem: 268 208<233.943 498.897> 468 203<607.752 1493>
Back
1062 1899 m 1xe0
 1207 1635 l 1
 1054 1635 l 1
 875 1899 l 1
 1062 1899 l 1xe0
EndSplineSet
Refer: 400 63182 N 1 0 0 1 1425 373 2
Refer: 57 85 N 1 0 0 1 0 0 3
EndChar
StartChar: Uacute
Encoding: 155 218 307
Width: 1499
Flags: W
HStem: -29 164<581.243 986.283> 1473 20<464.116 671 1404.12 1611>
VStem: 268 208<233.943 498.897> 468 203<607.752 1493>
Back
1174 1899 m 1xe0
 1359 1899 l 1
 1080 1635 l 1
 927 1635 l 1
 1174 1899 l 1xe0
EndSplineSet
Refer: 398 63177 N 1 0 0 1 1425 373 2
Refer: 57 85 N 1 0 0 1 0 0 3
EndChar
StartChar: Ucircumflex
Encoding: 156 219 308
Width: 1499
Flags: W
HStem: -29 164<581.243 986.283> 1473 20<464.116 671 1404.12 1611>
VStem: 268 208<233.943 498.897> 468 203<607.752 1493> 739 635<1635 1635 1635 1635>
Back
1026 1901 m 1xe4
 1214 1901 l 1
 1373 1635 l 1
 1234 1635 l 1
 1102 1813 l 1
 902 1635 l 1
 763 1635 l 1
 1026 1901 l 1xe4
EndSplineSet
Refer: 401 61431 N 1 0 0 1 1425 373 2
Refer: 57 85 N 1 0 0 1 0 0 3
EndChar
StartChar: Udieresis
Encoding: 157 220 309
Width: 1499
Flags: W
HStem: -29 164<581.243 986.283> 1473 20<464.116 671 1404.12 1611> 1667 203<807 970 1198 1362 768 1400 807 807>
VStem: 268 208<233.943 498.897> 468 203<607.752 1493>
Back
1207 1870 m 1xe0
 1410 1870 l 1
 1371 1667 l 1
 1168 1667 l 1
 1207 1870 l 1xe0
816 1870 m 1
 1019 1870 l 1
 980 1667 l 1
 777 1667 l 1
 816 1870 l 1
EndSplineSet
Refer: 397 63179 N 1 0 0 1 1425 373 2
Refer: 57 85 N 1 0 0 1 0 0 3
EndChar
